<svg width="42" height="42" viewBox="0 0 42 42" fill="none" xmlns="http://www.w3.org/2000/svg">
<g clip-path="url(#clip0_15_398)">
<path d="M21 -0.0410156C16.8385 -0.0410156 12.7704 1.19302 9.31025 3.50504C5.85007 5.81705 3.15319 9.10321 1.56065 12.948C-0.0318988 16.7927 -0.448581 21.0233 0.363291 25.1049C1.17516 29.1865 3.17913 32.9356 6.12177 35.8783C9.0644 38.8209 12.8136 40.8248 16.8951 41.6367C20.9767 42.4486 25.2073 42.0319 29.0521 40.4394C32.8968 38.8468 36.183 36.1499 38.495 32.6898C40.807 29.2296 42.041 25.1615 42.041 21C42.0348 15.4215 39.816 10.0732 35.8714 6.12859C31.9268 2.18397 26.5785 -0.0348276 21 -0.0410156ZM21 40.4824C17.1468 40.4824 13.38 39.3398 10.1762 37.199C6.97229 35.0583 4.47518 32.0155 3.0006 28.4556C1.52602 24.8957 1.1402 20.9784 1.89194 17.1992C2.64367 13.4199 4.49919 9.94851 7.22386 7.22385C9.94852 4.49918 13.42 2.64366 17.1992 1.89193C20.9784 1.14019 24.8957 1.52601 28.4556 3.00059C32.0156 4.47517 35.0583 6.97228 37.1991 10.1761C39.3398 13.38 40.4824 17.1467 40.4824 21C40.4762 26.1652 38.4217 31.117 34.7693 34.7693C31.117 38.4216 26.1652 40.4762 21 40.4824Z" fill="#0B6EDA"/>
<path d="M31.5205 14.4811L21.3896 8.63639C21.2712 8.56799 21.1368 8.53198 21 8.53198C20.8632 8.53198 20.7288 8.56799 20.6104 8.63639L10.4795 14.4811C10.3611 14.5494 10.2628 14.6477 10.1944 14.766C10.1261 14.8843 10.09 15.0185 10.0898 15.1552V26.8447C10.09 26.9813 10.1261 27.1155 10.1944 27.2339C10.2628 27.3522 10.3611 27.4504 10.4795 27.5188L20.6104 33.3635C20.7288 33.4319 20.8632 33.4679 21 33.4679C21.1368 33.4679 21.2712 33.4319 21.3896 33.3635L31.5205 27.5188C31.6389 27.4504 31.7372 27.3522 31.8055 27.2339C31.8739 27.1155 31.91 26.9813 31.9102 26.8447V15.1552C31.91 15.0185 31.8739 14.8843 31.8055 14.766C31.7372 14.6477 31.6389 14.5494 31.5205 14.4811ZM21 10.195L29.5723 15.1552L21 20.0998L12.4277 15.1552L21 10.195ZM11.6484 16.5034L20.2207 21.448V31.3412L11.6484 26.3966V16.5034ZM21.7793 31.3412V21.448L30.3516 16.5034V26.3966L21.7793 31.3412Z" fill="#0B6EDA"/>
</g>
<defs>
<clipPath id="clip0_15_398">
<rect width="42" height="42" fill="white"/>
</clipPath>
</defs>
</svg>
