<svg width="42" height="42" viewBox="0 0 42 42" fill="none" xmlns="http://www.w3.org/2000/svg">
<g clip-path="url(#clip0_15_375)">
<path d="M41.6358 30.5582L37.3308 28.4057L34.5909 21.2788C34.5587 21.1946 34.5094 21.1178 34.4462 21.0535C34.3829 20.9891 34.3071 20.9385 34.2234 20.9048L17.2233 14.1093C17.1044 14.062 16.9743 14.0504 16.849 14.0761C16.7236 14.1017 16.6085 14.1634 16.5178 14.2537L14.2505 16.521C14.1615 16.6118 14.1007 16.7265 14.0757 16.8512C14.0506 16.9758 14.0623 17.1051 14.1094 17.2232L20.9048 34.2233C20.9386 34.307 20.9892 34.3829 21.0536 34.4461C21.1179 34.5093 21.1946 34.5586 21.2789 34.5908L28.4058 37.3307L30.5583 41.6357C30.6036 41.7306 30.6711 41.8132 30.755 41.8766C30.839 41.94 30.9369 41.9823 31.0406 41.9999C31.0755 42.0032 31.1107 42.0032 31.1456 41.9999C31.3194 41.9992 31.4858 41.9296 31.6083 41.8063L41.8064 31.6082C41.8815 31.5358 41.9382 31.4465 41.9718 31.3478C42.0055 31.2491 42.0152 31.1437 42 31.0405C41.9824 30.9368 41.9401 30.8389 41.8767 30.7549C41.8133 30.671 41.7307 30.6035 41.6358 30.5582ZM15.4842 17.1379L15.8484 16.7769L24.3108 25.2393C23.7531 26.0295 23.5122 27.0003 23.6358 27.9596C23.7594 28.9189 24.2385 29.7969 24.9783 30.42C25.7181 31.0431 26.6647 31.3659 27.6311 31.3246C28.5974 31.2833 29.5131 30.8809 30.1971 30.197C30.881 29.513 31.2834 28.5974 31.3247 27.631C31.366 26.6647 31.0432 25.718 30.4201 24.9782C29.797 24.2384 28.919 23.7593 27.9597 23.6357C27.0004 23.5121 26.0296 23.753 25.2394 24.3107L16.777 15.8483L17.138 15.4841L33.4688 22.0171L36.0445 28.7174L28.7175 36.0444L22.0172 33.4687L15.4842 17.1379ZM27.4641 24.9144C28.0539 24.9153 28.6251 25.1207 29.0805 25.4955C29.5359 25.8703 29.8472 26.3914 29.9615 26.97C30.0758 27.5487 29.9859 28.149 29.7072 28.6688C29.4284 29.1886 28.9781 29.5956 28.4329 29.8207C27.8878 30.0457 27.2814 30.0747 26.7172 29.9028C26.153 29.7309 25.6659 29.3687 25.3388 28.878C25.0117 28.3872 24.8648 27.7982 24.9233 27.2113C24.9818 26.6244 25.2419 26.0759 25.6594 25.6593C26.1385 25.1817 26.7876 24.9138 27.4641 24.9144ZM31.3261 40.2346L29.6855 36.9533L36.9469 29.6919L40.2281 31.3326L31.3261 40.2346Z" fill="#0B6EDA"/>
<path d="M12.5513 35.11C12.4258 34.9914 12.2597 34.9253 12.087 34.9253C11.9143 34.9253 11.7482 34.9914 11.6227 35.11L10.7893 35.9435C8.56519 32.9249 7.33823 29.2876 7.27941 25.5386C7.2206 21.7896 8.33285 18.1157 10.4612 15.0288C11.0988 15.3797 11.833 15.5144 12.5537 15.4129C13.2744 15.3114 13.9428 14.9791 14.4587 14.4658C14.9746 13.9524 15.3103 13.2857 15.4154 12.5655C15.5205 11.8454 15.3894 11.1105 15.0418 10.4711C18.1287 8.34282 21.8026 7.23056 25.5516 7.28938C29.3006 7.3482 32.9379 8.57515 35.9565 10.7993L35.1099 11.6228C34.9879 11.7459 34.9195 11.9122 34.9196 12.0855C34.9191 12.1719 34.9357 12.2575 34.9683 12.3374C35.001 12.4174 35.0491 12.4901 35.1099 12.5514L38.004 15.4225C38.1269 15.5448 38.2933 15.6134 38.4666 15.6134C38.64 15.6134 38.8063 15.5448 38.9293 15.4225L41.8069 12.5449C41.868 12.4839 41.9164 12.4116 41.9494 12.3319C41.9824 12.2522 41.9994 12.1668 41.9994 12.0806C41.9994 11.9943 41.9824 11.9089 41.9494 11.8293C41.9164 11.7496 41.868 11.6772 41.8069 11.6163L38.9293 8.73863C38.8063 8.6164 38.64 8.5478 38.4666 8.5478C38.2933 8.5478 38.1269 8.6164 38.004 8.73863L36.8916 9.84441C34.1502 7.78148 30.909 6.48538 27.501 6.08923C24.093 5.69307 20.641 6.21112 17.4994 7.59019L21.2827 3.81675C21.7117 4.02173 22.1994 4.06812 22.6593 3.94771C23.1193 3.82731 23.5217 3.54787 23.7952 3.15899C24.0687 2.77011 24.1956 2.29693 24.1534 1.82338C24.1112 1.34983 23.9026 0.906529 23.5647 0.57213C23.2267 0.23773 22.7813 0.0338456 22.3073 -0.00335258C21.8333 -0.0405508 21.3615 0.0913419 20.9755 0.368927C20.5895 0.646512 20.3144 1.05184 20.1988 1.51301C20.0833 1.97418 20.1348 2.46138 20.3443 2.88816L13.959 9.28332C13.3107 8.84842 12.5314 8.65212 11.7545 8.72794C10.9775 8.80375 10.2509 9.14699 9.69889 9.69901C9.14686 10.251 8.80363 10.9776 8.72781 11.7546C8.652 12.5316 8.8483 13.3108 9.28319 13.9591L2.88804 20.3444C2.45958 20.1356 1.97098 20.0855 1.50906 20.203C1.04714 20.3204 0.641819 20.5978 0.365118 20.9859C0.0884157 21.374 -0.0417441 21.8476 -0.00223286 22.3225C0.0372784 22.7975 0.243902 23.2431 0.580921 23.5801C0.91794 23.9171 1.36353 24.1238 1.8385 24.1633C2.31348 24.2028 2.78708 24.0726 3.17515 23.7959C3.56323 23.5192 3.84063 23.1139 3.95808 22.652C4.07553 22.1901 4.02541 21.7015 3.81663 21.273L7.59991 17.4996C6.21947 20.6403 5.69978 24.0918 6.0942 27.4998C6.48863 30.9078 7.78295 34.1494 9.84429 36.8918L8.73523 38.0041C8.613 38.1271 8.54439 38.2934 8.54439 38.4668C8.54439 38.6401 8.613 38.8065 8.73523 38.9294L11.6129 41.8071C11.7354 41.9303 11.9018 41.9999 12.0755 42.0007C12.1621 42.0007 12.2479 41.9837 12.3279 41.9504C12.4078 41.9172 12.4804 41.8685 12.5415 41.8071L15.4224 38.9294C15.5446 38.8065 15.6132 38.6401 15.6132 38.4668C15.6132 38.2934 15.5446 38.1271 15.4224 38.0041L12.5513 35.11ZM38.4732 10.1233L40.4223 12.0724L38.4732 14.0214L36.5241 12.0724L38.4732 10.1233ZM21.6568 1.51988C21.7543 1.42157 21.8788 1.35444 22.0146 1.32701C22.1503 1.29958 22.2911 1.31309 22.4191 1.36582C22.5472 1.41855 22.6567 1.50813 22.7337 1.62319C22.8108 1.73824 22.8519 1.87359 22.8519 2.01207C22.8519 2.15054 22.8108 2.28589 22.7337 2.40095C22.6567 2.51601 22.5472 2.60558 22.4191 2.65832C22.2911 2.71105 22.1503 2.72455 22.0146 2.69713C21.8788 2.6697 21.7543 2.60257 21.6568 2.50426C21.5921 2.43965 21.5408 2.36293 21.5058 2.27847C21.4708 2.19402 21.4527 2.10349 21.4527 2.01207C21.4527 1.92064 21.4708 1.83012 21.5058 1.74566C21.5408 1.66121 21.5921 1.58449 21.6568 1.51988ZM10.6318 10.6319C10.8223 10.4404 11.0489 10.2885 11.2983 10.1848C11.5478 10.0811 11.8152 10.0278 12.0854 10.0278C12.3555 10.0278 12.623 10.0811 12.8725 10.1848C13.1219 10.2885 13.3484 10.4404 13.539 10.6319C13.827 10.9195 14.0233 11.2861 14.103 11.6853C14.1826 12.0844 14.1421 12.4983 13.9864 12.8744C13.8308 13.2505 13.5671 13.572 13.2287 13.7982C12.8903 14.0244 12.4924 14.1452 12.0854 14.1452C11.6783 14.1452 11.2804 14.0244 10.942 13.7982C10.6036 13.572 10.3399 13.2505 10.1843 12.8744C10.0287 12.4983 9.98816 12.0844 10.0678 11.6853C10.1475 11.2861 10.3437 10.9195 10.6318 10.6319ZM2.50741 22.6413C2.37344 22.753 2.20252 22.8106 2.02825 22.8027C1.85398 22.7948 1.68895 22.7221 1.56559 22.5987C1.44224 22.4754 1.36948 22.3103 1.3616 22.1361C1.35373 21.9618 1.41131 21.7909 1.52304 21.6569C1.65436 21.5279 1.83111 21.4555 2.01523 21.4555C2.19934 21.4555 2.3761 21.5279 2.50741 21.6569C2.5721 21.7215 2.62342 21.7982 2.65843 21.8827C2.69344 21.9671 2.71146 22.0577 2.71146 22.1491C2.71146 22.2405 2.69344 22.331 2.65843 22.4155C2.62342 22.5 2.5721 22.5767 2.50741 22.6413ZM12.0854 40.4027L10.1363 38.4536L12.0854 36.5046L14.0344 38.4536L12.0854 40.4027Z" fill="#0B6EDA"/>
</g>
<defs>
<clipPath id="clip0_15_375">
<rect width="42" height="42" fill="white"/>
</clipPath>
</defs>
</svg>
