<svg width="42" height="42" viewBox="0 0 42 42" fill="none" xmlns="http://www.w3.org/2000/svg">
<g clip-path="url(#clip0_15_383)">
<path d="M21.6163 15.3803C21.2575 15.5182 20.8721 15.5733 20.489 15.5415C20.1058 15.5097 19.7348 15.3918 19.4037 15.1965C19.2432 15.0706 19.0394 15.0136 18.8369 15.038C18.6345 15.0625 18.45 15.1663 18.3241 15.3267C18.1982 15.4871 18.1412 15.691 18.1656 15.8934C18.19 16.0959 18.2939 16.2803 18.4543 16.4062C18.9772 16.7809 19.5929 17.0047 20.2344 17.0532V17.9375C20.2344 18.1405 20.315 18.3353 20.4586 18.4789C20.6022 18.6224 20.7969 18.7031 21 18.7031C21.203 18.7031 21.3978 18.6224 21.5414 18.4789C21.6849 18.3353 21.7656 18.1405 21.7656 17.9375V16.9422C21.9195 16.9015 22.0704 16.8504 22.2173 16.789C22.6615 16.6154 23.0476 16.3199 23.3313 15.9367C23.6151 15.5534 23.7849 15.0978 23.8213 14.6223C24.0051 12.7619 22.3513 12.1494 21.2565 11.7436C20.108 11.311 19.7252 11.089 19.7252 10.5951C19.7288 10.4329 19.7781 10.2749 19.8675 10.1395C19.9569 10.004 20.0827 9.89656 20.2305 9.82951C20.5743 9.67942 20.9501 9.61761 21.3238 9.6497C21.6975 9.68179 22.0573 9.80676 22.3705 10.0133C22.4519 10.092 22.5498 10.1517 22.6571 10.188C22.7644 10.2243 22.8784 10.2364 22.9909 10.2233C23.1035 10.2102 23.2117 10.1724 23.3078 10.1124C23.4039 10.0525 23.4855 9.97192 23.5467 9.87661C23.608 9.78131 23.6473 9.6736 23.6619 9.56126C23.6764 9.44893 23.6659 9.33476 23.631 9.22698C23.5961 9.11921 23.5377 9.02053 23.4601 8.93804C23.3825 8.85555 23.2875 8.79132 23.182 8.74998C22.7504 8.47244 22.2696 8.28013 21.7656 8.18342V7.2417C21.7656 7.03864 21.6849 6.8439 21.5414 6.70032C21.3978 6.55674 21.203 6.47607 21 6.47607C20.7969 6.47607 20.6022 6.55674 20.4586 6.70032C20.315 6.8439 20.2344 7.03864 20.2344 7.2417V8.22553C19.9831 8.28491 19.7401 8.3749 19.5108 8.4935C19.1255 8.68716 18.7999 8.98167 18.5687 9.34568C18.3375 9.7097 18.2093 10.1296 18.1978 10.5607C18.1442 12.2221 19.6333 12.7733 20.7244 13.1791C21.9762 13.6423 22.3551 13.8835 22.2977 14.4769C22.2862 14.678 22.2154 14.8711 22.0941 15.0319C21.9728 15.1928 21.8065 15.314 21.6163 15.3803Z" fill="#0B6EDA"/>
<path d="M40.2172 23.297C38.3912 21.7887 36.0637 23.0558 34.8119 23.7372C34.0156 24.1698 32.1322 25.3795 30.31 26.593C30.3109 25.9386 30.1104 25.2997 29.7358 24.7631C28.2045 22.4969 25.6359 23.4539 23.7601 24.1545C23.1822 24.3905 22.5855 24.5775 21.9762 24.7134C20.9405 24.8876 19.8801 24.8485 18.8601 24.5985C17.5318 24.2832 16.1505 24.2636 14.8138 24.5411C12.2478 25.049 9.81212 26.0741 7.65518 27.5538L7.27236 27.7988C4.01846 29.8469 2.59057 30.4288 2.57525 30.4364C2.4411 30.4903 2.32495 30.5812 2.24027 30.6984C2.15559 30.8156 2.10582 30.9544 2.09674 31.0987C2.09674 31.2135 1.95893 33.8664 4.27877 37.0935C6.26939 39.8689 8.15666 40.6958 9.38932 40.9216H9.51564C9.62313 40.9219 9.72947 40.8996 9.82774 40.856C9.92601 40.8125 10.014 40.7488 10.086 40.669C10.086 40.669 10.9014 39.7617 11.5407 39.1913C11.9656 38.8085 13.1026 38.4257 16.0924 38.6898C18.6802 38.9234 24.8588 38.9119 27.4236 37.3806C30.1913 35.723 36.7413 30.6355 39.2908 28.5759C40.646 27.4849 41.3082 26.4475 41.312 25.4101C41.3067 24.9969 41.205 24.5907 41.0149 24.2239C40.8248 23.857 40.5517 23.5396 40.2172 23.297ZM38.3376 27.3701C36.1747 29.1119 29.3874 34.41 26.6312 36.0599C24.7171 37.2084 19.3578 37.438 16.2263 37.1548C13.3093 36.8906 11.4948 37.1548 10.5186 38.0391C10.0669 38.4219 9.56541 38.9655 9.24767 39.3062C8.01885 38.9425 6.7058 37.8591 5.51908 36.2016C4.50563 34.8678 3.85894 33.292 3.6433 31.6308C5.16771 30.866 6.65005 30.02 8.08393 29.0966L8.46674 28.8439C10.4593 27.4665 12.7133 26.5127 15.0894 26.0417C16.2281 25.8056 17.4051 25.8265 18.5347 26.103C19.7342 26.3878 20.9786 26.4295 22.1944 26.2255C22.9116 26.0801 23.6139 25.8686 24.2922 25.5938C26.2981 24.8473 27.6724 24.4454 28.4649 25.6206C28.5923 25.7974 28.683 25.9978 28.7317 26.2102C28.7803 26.4226 28.7859 26.6425 28.7481 26.8571C28.6295 27.4198 28.1624 28.0055 27.3853 28.5338L27.125 28.7061C26.5814 29.0659 26.1603 29.3454 25.9766 29.4717C24.4913 30.3866 23.0787 30.4173 21.712 30.4479C21.4556 30.4479 21.2067 30.4479 20.9464 30.4709C20.8458 30.4753 20.7471 30.4995 20.6559 30.5421C20.5647 30.5847 20.4828 30.6449 20.4149 30.7193C20.347 30.7936 20.2944 30.8805 20.2601 30.9752C20.2259 31.0699 20.2106 31.1704 20.2153 31.2709C20.2252 31.4706 20.3128 31.6585 20.4595 31.7945C20.6061 31.9304 20.8001 32.0035 21 31.9983C21.2374 31.9983 21.4747 31.9983 21.7197 31.9753C23.2165 31.9447 24.9124 31.9064 26.7537 30.7733C26.9681 30.6393 27.3968 30.3598 27.9634 29.9847L28.2505 29.7971L29.1654 29.1923C31.4202 27.6916 34.5248 25.6436 35.5469 25.0809C37.1968 24.1851 38.3874 23.7716 39.2449 24.4798C39.7961 24.9316 39.7961 25.2761 39.7923 25.3871C39.7885 25.9116 39.2717 26.6159 38.3376 27.3701Z" fill="#0B6EDA"/>
<path d="M21 22.5314C23.2455 22.5293 25.3986 21.6367 26.9868 20.0492C28.575 18.4617 29.4686 16.3091 29.4716 14.0635C29.4716 8.80753 21.8958 0.186591 21.5742 -0.180909C21.4999 -0.258256 21.4108 -0.319795 21.3121 -0.361832C21.2134 -0.403868 21.1073 -0.425537 21 -0.425537C20.8928 -0.425537 20.7866 -0.403868 20.6879 -0.361832C20.5893 -0.319795 20.5001 -0.258256 20.4258 -0.180909C20.1042 0.201904 12.5322 8.80753 12.5322 14.0635C12.5342 16.3087 13.427 18.4614 15.0146 20.049C16.6022 21.6365 18.7548 22.5293 21 22.5314ZM21 1.50729C22.7571 3.61276 27.9404 10.155 27.9404 14.0635C27.8978 15.8755 27.1481 17.599 25.8516 18.8654C24.555 20.1319 22.8144 20.8409 21.0019 20.8409C19.1894 20.8409 17.4489 20.1319 16.1523 18.8654C14.8557 17.599 14.106 15.8755 14.0634 14.0635C14.0634 10.1589 19.2429 3.61276 21 1.50729Z" fill="#0B6EDA"/>
</g>
<defs>
<clipPath id="clip0_15_383">
<rect width="42" height="42" fill="white"/>
</clipPath>
</defs>
</svg>
