<svg width="42" height="42" viewBox="0 0 42 42" fill="none" xmlns="http://www.w3.org/2000/svg">
<path d="M17.0941 23.8711C15.0824 23.1055 13.8523 22.5657 13.8971 21.1225C13.9073 20.7059 14.0296 20.3003 14.2507 19.9504C14.4717 19.6005 14.7828 19.3199 15.1497 19.1395C16.4285 18.439 18.2532 18.5883 19.689 19.5223C19.8567 19.6294 20.059 19.6642 20.2517 19.619C20.4444 19.5738 20.6118 19.4523 20.7172 19.2812C20.7696 19.196 20.8051 19.1011 20.8216 19.0018C20.8381 18.9026 20.8354 18.801 20.8135 18.7029C20.7916 18.6047 20.751 18.512 20.6941 18.4299C20.6372 18.3479 20.565 18.2781 20.4817 18.2246C19.5876 17.6467 18.573 17.2926 17.5203 17.191V14.875C17.5203 14.6719 17.4415 14.4772 17.3013 14.3336C17.161 14.19 16.9708 14.1094 16.7725 14.1094C16.5742 14.1094 16.384 14.19 16.2437 14.3336C16.1035 14.4772 16.0247 14.6719 16.0247 14.875V17.2484C15.4738 17.3405 14.941 17.5228 14.4468 17.7882C13.8482 18.0959 13.3421 18.5636 12.982 19.1419C12.6219 19.7201 12.4213 20.3873 12.4015 21.0727C12.3192 23.6797 14.6786 24.587 16.5743 25.3066C18.7131 26.1182 20.018 26.7039 19.8573 28.3998C19.8236 28.8928 19.652 29.3655 19.3629 29.7613C19.0738 30.157 18.6794 30.4592 18.227 30.6316C16.6454 31.3359 14.4916 30.9531 13.5531 30.1875C13.4767 30.1194 13.3875 30.0679 13.2911 30.0361C13.1946 30.0044 13.0928 29.993 12.9919 30.0028C12.8911 30.0125 12.7932 30.0431 12.7042 30.0928C12.6152 30.1424 12.537 30.2101 12.4744 30.2916C12.4117 30.3732 12.3659 30.4669 12.3397 30.5671C12.3135 30.6674 12.3075 30.772 12.322 30.8747C12.3366 30.9773 12.3713 31.0759 12.4242 31.1644C12.477 31.2529 12.5469 31.3295 12.6296 31.3895C13.6231 32.1096 14.8075 32.5022 16.0247 32.515V34.7812C16.0247 34.9843 16.1035 35.179 16.2437 35.3226C16.384 35.4662 16.5742 35.5469 16.7725 35.5469C16.9708 35.5469 17.161 35.4662 17.3013 35.3226C17.4415 35.179 17.5203 34.9843 17.5203 34.7812V32.4155C17.9651 32.342 18.3996 32.2135 18.814 32.0327C19.5125 31.7511 20.12 31.2748 20.5674 30.6577C21.0148 30.0406 21.2844 29.3074 21.3454 28.5414C21.6333 25.5937 19.1132 24.6367 17.0941 23.8711Z" fill="#0B6EDA"/>
<path d="M41.4506 17.1718C41.456 13.5881 40.2919 10.1052 38.143 7.2763C35.9941 4.44737 32.9836 2.43457 29.5897 1.55753C26.1957 0.680482 22.6129 0.989474 19.41 2.43543C16.2072 3.8814 13.5681 6.38143 11.9117 9.53853C9.47261 10.3521 7.26534 11.7651 5.48286 13.6538C3.70038 15.5426 2.39696 17.8496 1.68657 20.3732C0.976174 22.8969 0.880433 25.5603 1.40772 28.1305C1.935 30.7008 3.06925 33.0997 4.7113 35.1175C6.35335 37.1353 8.45321 38.7105 10.8273 39.7054C13.2013 40.7004 15.7773 41.0848 18.33 40.825C20.8827 40.5652 23.3344 39.6691 25.4707 38.2152C27.6069 36.7612 29.3628 34.7936 30.5847 32.4843C33.7496 31.4443 36.5088 29.3996 38.4624 26.6465C40.416 23.8933 41.4627 20.5748 41.4506 17.1718ZM16.7725 39.3749C13.9623 39.3749 11.2152 38.5218 8.87865 36.9233C6.54206 35.3249 4.72091 33.053 3.6455 30.3949C2.57009 27.7368 2.28871 24.8119 2.83695 21.9901C3.38519 19.1683 4.73843 16.5763 6.72553 14.5419C8.71264 12.5074 11.2444 11.122 14.0006 10.5607C16.7568 9.9994 19.6136 10.2875 22.2099 11.3885C24.8062 12.4895 27.0253 14.354 28.5865 16.7462C30.1478 19.1385 30.9811 21.951 30.9811 24.8281C30.9811 28.6861 29.4841 32.3862 26.8195 35.1143C24.1549 37.8423 20.5409 39.3749 16.7725 39.3749ZM31.4672 30.4899C32.3611 28.0572 32.6658 25.439 32.3549 22.8595C32.0441 20.2799 31.1271 17.816 29.6825 15.6788C28.2379 13.5415 26.3087 11.7947 24.0603 10.588C21.8118 9.38123 19.3112 8.75054 16.7725 8.74993C15.8409 8.75139 14.9112 8.83722 13.9944 9.00642C15.2302 7.14059 16.8726 5.59435 18.7921 4.48975C20.7116 3.38514 22.8556 2.75239 25.0549 2.64144C27.2541 2.53049 29.4485 2.94438 31.4647 3.85043C33.481 4.75649 35.264 6.12991 36.673 7.86232C38.082 9.59472 39.0784 11.6387 39.5836 13.8329C40.0889 16.0271 40.0891 18.3115 39.5842 20.5058C39.0794 22.7001 38.0834 24.7443 36.6747 26.477C35.266 28.2096 33.4833 29.5834 31.4672 30.4899Z" fill="#0B6EDA"/>
</svg>
