<svg width="40" height="40" viewBox="0 0 40 40" fill="none" xmlns="http://www.w3.org/2000/svg">
<g clip-path="url(#clip0_15_508)">
<path d="M20 20C19.9017 20 19.805 19.9833 19.7117 19.9483L3.87833 14.115C3.55 13.995 3.33333 13.6816 3.33333 13.3333C3.33333 12.985 3.55167 12.6716 3.88 12.5516L14.7133 8.56831C15.1433 8.41164 15.625 8.63164 15.7833 9.06331C15.9417 9.49498 15.72 9.97331 15.2883 10.1333L6.58 13.3333L20 18.2783L33.42 13.3333L24.7117 10.1316C24.28 9.97331 24.0583 9.49331 24.2167 9.06164C24.375 8.62998 24.855 8.40998 25.2867 8.56664L36.12 12.55C36.4483 12.6716 36.6667 12.985 36.6667 13.3333C36.6667 13.6816 36.45 13.995 36.1217 14.115L20.2883 19.9483C20.195 19.9833 20.0983 20 20 20Z" fill="#0B6EDA"/>
<path d="M20 40C19.9017 40 19.805 39.9833 19.7133 39.9483L10.8633 36.6983C10.4317 36.54 10.21 36.0617 10.3683 35.6283C10.5267 35.1967 11.0067 34.975 11.4383 35.1333L20 38.2783L28.5633 35.1333C28.995 34.9733 29.4733 35.1967 29.6333 35.6283C29.7917 36.06 29.57 36.5383 29.1383 36.6983L20.2883 39.9483C20.195 39.9833 20.0983 40 20 40Z" fill="#0B6EDA"/>
<path d="M4.16667 29.6C3.70667 29.6 3.33333 29.2267 3.33333 28.7667V13.3333C3.33333 12.8733 3.70667 12.5 4.16667 12.5C4.62667 12.5 5 12.8733 5 13.3333V28.7667C5 29.2267 4.62667 29.6 4.16667 29.6Z" fill="#0B6EDA"/>
<path d="M35.8333 29.6C35.3733 29.6 35 29.2267 35 28.7667V13.3333C35 12.8733 35.3733 12.5 35.8333 12.5C36.2933 12.5 36.6667 12.8733 36.6667 13.3333V28.7667C36.6667 29.2267 36.2933 29.6 35.8333 29.6Z" fill="#0B6EDA"/>
<path d="M20 13.3333C19.54 13.3333 19.1667 12.96 19.1667 12.5V5.83333C19.1667 5.37333 19.54 5 20 5C20.46 5 20.8333 5.37333 20.8333 5.83333V12.5C20.8333 12.96 20.46 13.3333 20 13.3333Z" fill="#0B6EDA"/>
<path d="M34.9 35.7333C34.6867 35.7333 34.4733 35.6516 34.31 35.49L30.2433 31.4233C29.9183 31.0983 29.9183 30.57 30.2433 30.245C30.5683 29.92 31.0967 29.92 31.4217 30.245L35.4883 34.3116C35.8133 34.6366 35.8133 35.165 35.4883 35.49C35.3267 35.6516 35.1133 35.7333 34.9 35.7333Z" fill="#0B6EDA"/>
<path d="M5.1 35.7333C4.88667 35.7333 4.67333 35.6516 4.51 35.49C4.185 35.165 4.185 34.6366 4.51 34.3116L8.57667 30.245C8.90167 29.92 9.43 29.92 9.755 30.245C10.08 30.57 10.08 31.0983 9.755 31.4233L5.68833 35.49C5.52667 35.6516 5.31333 35.7333 5.1 35.7333Z" fill="#0B6EDA"/>
<path d="M20 40C19.54 40 19.1667 39.6266 19.1667 39.1666V19.1666C19.1667 18.7066 19.54 18.3333 20 18.3333C20.46 18.3333 20.8333 18.7066 20.8333 19.1666V39.1666C20.8333 39.6266 20.46 40 20 40Z" fill="#0B6EDA"/>
<path d="M20 6.66667C18.1617 6.66667 16.6667 5.17167 16.6667 3.33333C16.6667 1.495 18.1617 0 20 0C21.8383 0 23.3333 1.495 23.3333 3.33333C23.3333 5.17167 21.8383 6.66667 20 6.66667ZM20 1.66667C19.0817 1.66667 18.3333 2.415 18.3333 3.33333C18.3333 4.25167 19.0817 5 20 5C20.9183 5 21.6667 4.25167 21.6667 3.33333C21.6667 2.415 20.9183 1.66667 20 1.66667Z" fill="#0B6EDA"/>
<path d="M36.6667 40C34.8283 40 33.3333 38.505 33.3333 36.6666C33.3333 34.8283 34.8283 33.3333 36.6667 33.3333C38.505 33.3333 40 34.8283 40 36.6666C40 38.505 38.505 40 36.6667 40ZM36.6667 35C35.7483 35 35 35.7483 35 36.6666C35 37.585 35.7483 38.3333 36.6667 38.3333C37.585 38.3333 38.3333 37.585 38.3333 36.6666C38.3333 35.7483 37.585 35 36.6667 35Z" fill="#0B6EDA"/>
<path d="M3.33333 40C1.495 40 -9.53674e-07 38.505 -9.53674e-07 36.6666C-9.53674e-07 34.8283 1.495 33.3333 3.33333 33.3333C5.17167 33.3333 6.66667 34.8283 6.66667 36.6666C6.66667 38.505 5.17167 40 3.33333 40ZM3.33333 35C2.415 35 1.66667 35.7483 1.66667 36.6666C1.66667 37.585 2.415 38.3333 3.33333 38.3333C4.25167 38.3333 5 37.585 5 36.6666C5 35.7483 4.25167 35 3.33333 35Z" fill="#0B6EDA"/>
</g>
<defs>
<clipPath id="clip0_15_508">
<rect width="40" height="40" fill="white"/>
</clipPath>
</defs>
</svg>
