<svg width="40" height="40" viewBox="0 0 40 40" fill="none" xmlns="http://www.w3.org/2000/svg">
<g clip-path="url(#clip0_15_532)">
<path d="M32.1739 0C27.6557 0 25.2174 8.95997 25.2174 17.3913C25.2174 25.8226 27.6557 34.7825 32.1739 34.7825C36.6922 34.7825 39.1304 25.8226 39.1304 17.3913C39.1304 8.95997 36.6922 0 32.1739 0ZM32.1739 33.0434C29.7061 33.0434 26.9565 26.6156 26.9565 17.3913C26.9565 8.16692 29.7061 1.7391 32.1739 1.7391C34.6418 1.7391 37.3913 8.16692 37.3913 17.3913C37.3913 26.6156 34.6418 33.0434 32.1739 33.0434Z" fill="#0B6EDA"/>
<path d="M31.3043 12.1739C30.8243 12.1739 30.4347 12.5635 30.4347 13.0435C30.4347 13.5235 30.8243 13.9131 31.3043 13.9131C32.7426 13.9131 33.913 15.4731 33.913 17.3914C33.913 19.3096 32.7426 20.8696 31.3043 20.8696C30.8243 20.8696 30.4347 21.2592 30.4347 21.7392C30.4347 22.2192 30.8243 22.6087 31.3043 22.6087C33.7026 22.6087 35.6521 20.2679 35.6521 17.3914C35.6521 14.5149 33.7026 12.1739 31.3043 12.1739Z" fill="#0B6EDA"/>
<path d="M26.9565 17.3912C26.9565 11.5704 28.0991 6.22432 29.9409 3.43644C30.1722 3.08859 30.1218 2.62604 29.8209 2.33386C29.52 2.04169 29.0522 2.00688 28.7148 2.24688L17.1147 10.4348H7.82609C3.9896 10.4348 0.869598 13.5548 0.869598 17.3912C0.869598 21.2277 3.9896 24.3478 7.82609 24.3478H17.1147L28.7147 32.5356C28.866 32.6417 29.0399 32.6938 29.2156 32.6938C29.4347 32.6938 29.6538 32.6104 29.8208 32.4486C30.1217 32.1582 30.1721 31.6956 29.9408 31.346C28.0991 28.5582 26.9565 23.2121 26.9565 17.3912ZM17.8921 22.7669C17.7461 22.6643 17.5722 22.6087 17.3913 22.6087H7.82609C4.9496 22.6087 2.6087 20.2678 2.6087 17.3913C2.6087 14.5148 4.9496 12.1739 7.82609 12.1739H17.3913C17.5722 12.1739 17.7461 12.1183 17.8921 12.0139L26.9965 5.5878C25.8712 8.73739 25.2174 12.953 25.2174 17.3912C25.2174 21.8294 25.8712 26.0452 26.9965 29.193L17.8921 22.7669Z" fill="#0B6EDA"/>
<path d="M16.7043 31.3495L18.2452 23.6487C18.2957 23.393 18.2295 23.1287 18.0643 22.927C17.899 22.7253 17.6504 22.6087 17.3913 22.6087C14.1808 22.6087 13.0435 19.7983 13.0435 17.3913C13.0435 14.9844 14.1808 12.1739 17.3913 12.1739C17.8713 12.1739 18.2608 11.7843 18.2608 11.3043C18.2608 10.8243 17.8713 10.4348 17.3913 10.4348C13.7495 10.4348 11.3043 13.2296 11.3043 17.3912C11.3043 21.1408 13.2904 23.7808 16.346 24.266L14.9982 31.0069C14.8173 31.9147 15.099 32.8486 15.7582 33.5078C16.2504 34.0017 16.5217 34.6556 16.5217 35.353V35.9495C16.5217 36.6469 16.2504 37.3025 15.7582 37.7964L15.5426 38.0121L12.466 35.9616C11.7391 35.4764 11.3043 34.6642 11.3043 33.7912V26.9564C11.3043 26.7251 11.2121 26.5042 11.0486 26.3408L7.57033 22.8625C7.2312 22.5234 6.67987 22.5234 6.34074 22.8625C6.00161 23.2016 6.00161 23.753 6.34074 24.0921L9.56509 27.3164V33.7912C9.56509 35.2486 10.2886 36.5999 11.5007 37.4086L15.1703 39.8538C15.3181 39.9529 15.485 39.9999 15.652 39.9999C15.8763 39.9999 16.099 39.9129 16.2676 39.746L16.9876 39.026C17.8086 38.2052 18.2608 37.113 18.2608 35.9513V35.3548C18.2608 34.193 17.8086 33.1009 16.9861 32.2765C16.7409 32.033 16.6365 31.6852 16.7043 31.3495Z" fill="#0B6EDA"/>
</g>
<defs>
<clipPath id="clip0_15_532">
<rect width="40" height="40" fill="white"/>
</clipPath>
</defs>
</svg>
