<svg width="40" height="40" viewBox="0 0 40 40" fill="none" xmlns="http://www.w3.org/2000/svg">
<g clip-path="url(#clip0_15_497)">
<path d="M15 16.6667C10.405 16.6667 6.66669 12.9283 6.66669 8.33333C6.66669 3.73833 10.405 0 15 0C19.595 0 23.3334 3.73833 23.3334 8.33333C23.3334 12.9283 19.595 16.6667 15 16.6667ZM15 1.66667C11.3234 1.66667 8.33335 4.65667 8.33335 8.33333C8.33335 12.01 11.3234 15 15 15C18.6767 15 21.6667 12.01 21.6667 8.33333C21.6667 4.65667 18.6767 1.66667 15 1.66667Z" fill="#0B6EDA"/>
<path d="M14.1667 35H0.833333C0.373333 35 0 34.6267 0 34.1667V27.5C0 23.365 3.365 20 7.5 20H17.5C17.96 20 18.3333 20.3733 18.3333 20.8333C18.3333 21.2933 17.96 21.6667 17.5 21.6667H7.5C4.28333 21.6667 1.66667 24.2833 1.66667 27.5V33.3333H14.1667C14.6267 33.3333 15 33.7067 15 34.1667C15 34.6267 14.6267 35 14.1667 35Z" fill="#0B6EDA"/>
<path d="M28.3333 33.3333C26.0366 33.3333 24.1666 31.4633 24.1666 29.1667C24.1666 26.87 26.0366 25 28.3333 25C30.63 25 32.5 26.87 32.5 29.1667C32.5 31.4633 30.63 33.3333 28.3333 33.3333ZM28.3333 26.6667C26.955 26.6667 25.8333 27.7883 25.8333 29.1667C25.8333 30.545 26.955 31.6667 28.3333 31.6667C29.7116 31.6667 30.8333 30.545 30.8333 29.1667C30.8333 27.7883 29.7116 26.6667 28.3333 26.6667Z" fill="#0B6EDA"/>
<path d="M29.6616 40H27.0033C26.1433 40 25.43 39.355 25.345 38.4984L25.1333 36.38C24.6283 36.155 24.1466 35.875 23.6916 35.5417L21.745 36.42C20.9633 36.7767 20.045 36.4784 19.6166 35.7334L18.2883 33.4317C17.8583 32.6867 18.0616 31.7467 18.7583 31.245L20.4733 30.0117C20.44 29.7534 20.4166 29.4667 20.4166 29.1667C20.4166 28.8667 20.44 28.5784 20.4733 28.3217L18.7583 27.0884C18.0616 26.5867 17.8583 25.6467 18.2883 24.9017L19.6166 22.6C20.0466 21.855 20.96 21.56 21.745 21.9134L23.6916 22.7917C24.1466 22.4584 24.6283 22.1784 25.1333 21.9534L25.345 19.835C25.43 18.98 26.1433 18.335 27.0033 18.335H29.6616C30.5216 18.335 31.235 18.98 31.32 19.8367L31.5316 21.955C32.0383 22.18 32.52 22.4617 32.9733 22.7934L34.92 21.915C35.705 21.5634 36.62 21.8584 37.0483 22.6017L38.3766 24.9034C38.8066 25.6484 38.6033 26.5884 37.9066 27.09L36.1916 28.3234C36.225 28.5817 36.2483 28.8684 36.2483 29.1684C36.2483 29.4684 36.225 29.7567 36.1916 30.0134L37.9066 31.2467C38.6033 31.7484 38.8066 32.6884 38.3766 33.4334L37.05 35.7334C36.62 36.4767 35.7083 36.775 34.9216 36.42L32.975 35.5417C32.52 35.875 32.0383 36.155 31.5333 36.38L31.32 38.5C31.235 39.355 30.5216 40 29.6616 40ZM23.8083 33.7417C24 33.7417 24.19 33.8084 24.3433 33.9367C24.9083 34.41 25.5333 34.7717 26.1983 35.015C26.4983 35.125 26.71 35.3967 26.7416 35.715L27.005 38.3334H29.6633L29.925 35.715C29.9566 35.3967 30.1683 35.125 30.4683 35.015C31.1333 34.7717 31.7583 34.4084 32.3233 33.9367C32.57 33.7317 32.91 33.685 33.2 33.8167L35.6066 34.9034L36.935 32.6017L34.805 31.0717C34.545 30.885 34.4166 30.565 34.47 30.25C34.5316 29.8984 34.5816 29.54 34.5816 29.17C34.5816 28.8 34.5316 28.4417 34.47 28.09C34.415 27.775 34.545 27.4567 34.805 27.2684L36.935 25.7384L35.6066 23.4367L33.2 24.5217C32.9083 24.6534 32.5683 24.6067 32.3216 24.4017C31.7583 23.9284 31.135 23.5667 30.4666 23.3234C30.1666 23.2134 29.955 22.9417 29.9233 22.6234L29.6616 20H27.0033L26.7416 22.6184C26.71 22.9367 26.4983 23.2084 26.1983 23.3184C25.5333 23.5617 24.9083 23.925 24.3433 24.3967C24.0983 24.6017 23.7583 24.65 23.4666 24.5167L21.06 23.43L19.7316 25.7317L21.8616 27.2617C22.1216 27.4484 22.25 27.7684 22.1966 28.0834C22.135 28.435 22.085 28.7934 22.085 29.1634C22.085 29.5334 22.135 29.8917 22.1966 30.2434C22.2516 30.5584 22.1216 30.8767 21.8616 31.065L19.7316 32.595L21.06 34.8967L23.4666 33.8117C23.5766 33.765 23.6916 33.7417 23.8083 33.7417Z" fill="#0B6EDA"/>
</g>
<defs>
<clipPath id="clip0_15_497">
<rect width="40" height="40" fill="white"/>
</clipPath>
</defs>
</svg>
