<svg width="40" height="40" viewBox="0 0 40 40" fill="none" xmlns="http://www.w3.org/2000/svg">
<path fill-rule="evenodd" clip-rule="evenodd" d="M17.6107 2.22224C13.6833 2.22224 10.4996 5.40599 10.4996 9.33335C10.4996 13.2607 13.6833 16.4445 17.6107 16.4445C21.538 16.4445 24.7218 13.2607 24.7218 9.33335C24.7218 5.40599 21.538 2.22224 17.6107 2.22224ZM8.7218 9.33335C8.7218 4.42416 12.7015 0.444458 17.6107 0.444458C22.5198 0.444458 26.4996 4.42416 26.4996 9.33335C26.4996 14.2425 22.5198 18.2222 17.6107 18.2222C12.7015 18.2222 8.7218 14.2425 8.7218 9.33335Z" fill="#0B6EDA"/>
<path fill-rule="evenodd" clip-rule="evenodd" d="M21.6554 23.6834C15.1976 22.786 8.52448 23.9097 2.60674 27.0544C2.37004 27.1801 2.22211 27.4264 2.22211 27.6944V34.2221C2.22211 34.7131 2.62009 35.111 3.111 35.111H18.2221C18.713 35.111 19.111 35.509 19.111 35.9999C19.111 36.4909 18.713 36.8888 18.2221 36.8888H3.111C1.63824 36.8888 0.444336 35.695 0.444336 34.2221V27.6944C0.444336 26.7688 0.95518 25.9188 1.7725 25.4845C8.02553 22.1616 15.0768 20.9744 21.9 21.9225C22.3862 21.9901 22.7256 22.4392 22.658 22.9254C22.5905 23.4116 22.1417 23.751 21.6554 23.6834Z" fill="#0B6EDA"/>
<path fill-rule="evenodd" clip-rule="evenodd" d="M23.5555 28.8889C23.5555 27.4162 24.7495 26.2222 26.2222 26.2222H36.8889C38.3616 26.2222 39.5555 27.4162 39.5555 28.8889V36C39.5555 37.4727 38.3616 38.6667 36.8889 38.6667H26.2222C24.7495 38.6667 23.5555 37.4727 23.5555 36V28.8889ZM26.2222 28C25.7314 28 25.3333 28.3981 25.3333 28.8889V36C25.3333 36.4909 25.7314 36.8889 26.2222 36.8889H36.8889C37.3797 36.8889 37.7778 36.4909 37.7778 36V28.8889C37.7778 28.3981 37.3797 28 36.8889 28H26.2222Z" fill="#0B6EDA"/>
<path fill-rule="evenodd" clip-rule="evenodd" d="M29.7778 22.6667C29.2869 22.6667 28.8889 23.0647 28.8889 23.5556V27.1111H27.1111V23.5556C27.1111 22.0829 28.305 20.8889 29.7778 20.8889H33.3333C34.806 20.8889 36 22.0829 36 23.5556V27.1111H34.2222V23.5556C34.2222 23.0647 33.8242 22.6667 33.3333 22.6667H29.7778Z" fill="#0B6EDA"/>
</svg>
