<svg width="60" height="60" viewBox="0 0 60 60" fill="none" xmlns="http://www.w3.org/2000/svg">
<path d="M30 5.625C29.7514 5.625 29.5129 5.52623 29.3371 5.35041C29.1613 5.1746 29.0625 4.93614 29.0625 4.6875V2.8125C29.0625 2.56386 29.1613 2.3254 29.3371 2.14959C29.5129 1.97377 29.7514 1.875 30 1.875C30.2486 1.875 30.4871 1.97377 30.6629 2.14959C30.8387 2.3254 30.9375 2.56386 30.9375 2.8125V4.6875C30.9375 4.93614 30.8387 5.1746 30.6629 5.35041C30.4871 5.52623 30.2486 5.625 30 5.625Z" fill="url(#paint0_linear_27_431)"/>
<path d="M22.0312 7.75972C21.8665 7.75989 21.7046 7.71664 21.5619 7.63435C21.4193 7.55206 21.3008 7.43363 21.2184 7.29097L20.2809 5.66722C20.1585 5.45201 20.1263 5.19714 20.1911 4.95823C20.256 4.71931 20.4127 4.51575 20.6271 4.39197C20.8415 4.26818 21.0962 4.23422 21.3355 4.2975C21.5749 4.36078 21.7795 4.51616 21.9047 4.72972L22.8422 6.35347C22.9244 6.49592 22.9677 6.6575 22.9678 6.82198C22.9678 6.98647 22.9246 7.14807 22.8424 7.29056C22.7602 7.43305 22.642 7.55141 22.4996 7.63376C22.3572 7.71611 22.1957 7.75956 22.0312 7.75972Z" fill="url(#paint1_linear_27_431)"/>
<path d="M37.9687 7.75972C37.8042 7.75956 37.6427 7.71611 37.5003 7.63376C37.3579 7.55141 37.2397 7.43305 37.1575 7.29056C37.0754 7.14807 37.0321 6.98647 37.0322 6.82198C37.0322 6.6575 37.0755 6.49592 37.1578 6.35347L38.0953 4.72972C38.2205 4.51616 38.4251 4.36078 38.6644 4.2975C38.9037 4.23422 39.1584 4.26818 39.3728 4.39197C39.5872 4.51575 39.7439 4.71931 39.8088 4.95823C39.8736 5.19714 39.8414 5.45201 39.719 5.66722L38.7815 7.29097C38.6992 7.43363 38.5807 7.55206 38.438 7.63435C38.2953 7.71664 38.1334 7.75989 37.9687 7.75972Z" fill="url(#paint2_linear_27_431)"/>
<path d="M55.9922 21.9065C56.014 21.7396 56.025 21.5715 56.025 21.4031C56.0216 20.544 55.7242 19.7119 55.1824 19.0452C54.6405 18.3785 53.8868 17.9174 53.0466 17.7384C52.0858 17.5597 51.093 17.7536 50.2702 18.2808C49.4473 18.808 48.8561 19.6287 48.6169 20.5762L45.3581 32.085C44.9991 32.1628 44.6534 32.2933 44.3325 32.4722L36.045 37.3303C34.7776 38.0769 33.7266 39.1408 32.9954 40.4171C32.2642 41.6934 31.8781 43.1381 31.875 44.609V56.25C31.875 56.4986 31.9738 56.7371 32.1496 56.9129C32.3254 57.0887 32.5639 57.1875 32.8125 57.1875C33.0611 57.1875 33.2996 57.0887 33.4754 56.9129C33.6512 56.7371 33.75 56.4986 33.75 56.25V44.609C33.7524 43.465 34.0528 42.3414 34.6216 41.3488C35.1904 40.3562 36.0079 39.5289 36.9937 38.9484L45.2756 34.0931C45.4889 33.9681 45.7249 33.8864 45.9699 33.8529C46.2149 33.8194 46.4641 33.8347 46.7031 33.8979C46.9422 33.9611 47.1664 34.071 47.3628 34.2212C47.5593 34.3714 47.724 34.559 47.8477 34.7731C47.9713 34.9873 48.0514 35.2237 48.0833 35.469C48.1151 35.7142 48.0982 35.9633 48.0334 36.2019C47.9686 36.4405 47.8573 36.664 47.7058 36.8594C47.5542 37.0549 47.3656 37.2184 47.1506 37.3406L41.7778 40.4428C41.6703 40.5039 41.576 40.5857 41.5002 40.6834C41.4245 40.7811 41.3688 40.8928 41.3364 41.0121C41.304 41.1315 41.2956 41.256 41.3115 41.3786C41.3274 41.5012 41.3675 41.6195 41.4293 41.7265C41.4911 41.8336 41.5735 41.9274 41.6717 42.0025C41.7699 42.0776 41.882 42.1325 42.0016 42.1641C42.1211 42.1957 42.2457 42.2034 42.3682 42.1866C42.4907 42.1699 42.6087 42.1291 42.7153 42.0665L48.0881 38.9644C48.8557 38.5234 49.4415 37.8238 49.7409 36.9907C50.0402 36.1576 50.0336 35.2452 49.7222 34.4165L52.2956 24.8278C52.4123 24.3426 52.7072 23.9189 53.1218 23.6411C53.5364 23.3632 54.0402 23.2514 54.5334 23.3278C54.9528 23.4166 55.3292 23.646 55.6005 23.9779C55.8717 24.3099 56.0215 24.7245 56.025 25.1531C56.0262 25.3179 56.0054 25.4822 55.9631 25.6415L51.8859 40.859C51.7432 41.3901 51.4483 41.8679 51.0375 42.2334L44.6991 47.8678C44.2037 48.3079 43.8073 48.8481 43.536 49.4526C43.2646 50.0571 43.1246 50.7123 43.125 51.375V56.25C43.125 56.4986 43.2238 56.7371 43.3996 56.9129C43.5754 57.0887 43.8139 57.1875 44.0625 57.1875C44.3111 57.1875 44.5496 57.0887 44.7254 56.9129C44.9012 56.7371 45 56.4986 45 56.25V51.375C45 50.9778 45.0842 50.5852 45.2469 50.2229C45.4096 49.8607 45.6472 49.5369 45.9441 49.2731L52.2844 43.6378C52.9693 43.0277 53.4602 42.2301 53.6963 41.3437L57.7734 26.1281C57.8588 25.8099 57.9014 25.4817 57.9 25.1522C57.8958 24.4911 57.7171 23.8429 57.3822 23.273C57.0472 22.7031 56.5677 22.2318 55.9922 21.9065ZM50.4853 24.344L48.2681 32.6015C47.9665 32.4013 47.6374 32.2456 47.2913 32.1394L50.4244 21.0769C50.543 20.5924 50.8387 20.1698 51.2531 19.8922C51.6676 19.6146 52.1709 19.5021 52.6641 19.5769C53.0831 19.6657 53.4591 19.8954 53.7294 20.2277C53.9998 20.5599 54.1482 20.9748 54.15 21.4031V21.4162C53.3037 21.4378 52.4877 21.7353 51.8261 22.2635C51.1645 22.7917 50.6937 23.5217 50.4853 24.3422V24.344Z" fill="url(#paint3_linear_27_431)"/>
<path d="M23.955 37.3303L15.6619 32.4694C15.3428 32.2912 14.999 32.1613 14.6419 32.0841L11.3869 20.5875C11.1499 19.6368 10.5589 18.8124 9.73454 18.2828C8.91017 17.7533 7.91469 17.5586 6.95154 17.7384C6.1117 17.9179 5.35852 18.3793 4.81707 19.0459C4.27562 19.7125 3.97847 20.5443 3.97498 21.4031C3.97495 21.5715 3.98591 21.7396 4.00779 21.9066C3.28521 22.3128 2.71812 22.9476 2.39569 23.7113C2.07325 24.475 2.01375 25.3241 2.22654 26.1253L6.30373 41.3437C6.54086 42.2285 7.03203 43.0244 7.71654 43.6331L14.0559 49.2675C14.3535 49.532 14.5915 49.8566 14.7542 50.2199C14.917 50.5832 15.0007 50.9769 15 51.375V56.25C15 56.4986 15.0987 56.7371 15.2746 56.9129C15.4504 57.0887 15.6888 57.1875 15.9375 57.1875C16.1861 57.1875 16.4246 57.0887 16.6004 56.9129C16.7762 56.7371 16.875 56.4986 16.875 56.25V51.375C16.8749 50.713 16.7346 50.0585 16.4632 49.4547C16.1919 48.8508 15.7958 48.3113 15.3009 47.8716L8.96341 42.2372C8.55196 41.872 8.25665 41.3941 8.11404 40.8628L4.03591 25.6397C3.97169 25.3935 3.95807 25.1368 3.99587 24.8852C4.03367 24.6336 4.12211 24.3923 4.25584 24.1758C4.38957 23.9594 4.56581 23.7723 4.77391 23.6259C4.982 23.4795 5.21763 23.3768 5.46654 23.3241C5.95975 23.2474 6.46376 23.3591 6.87837 23.637C7.29298 23.915 7.58784 24.3387 7.70435 24.8241L10.2778 34.4128C9.9664 35.2415 9.95978 36.1539 10.2591 36.987C10.5585 37.8201 11.1443 38.5196 11.9119 38.9606L17.2847 42.0628C17.3913 42.1253 17.5093 42.1661 17.6318 42.1829C17.7543 42.1996 17.8789 42.192 17.9984 42.1604C18.118 42.1288 18.2301 42.0739 18.3283 41.9988C18.4265 41.9237 18.5089 41.8299 18.5707 41.7228C18.6325 41.6157 18.6725 41.4975 18.6885 41.3749C18.7044 41.2523 18.6959 41.1277 18.6635 41.0084C18.6312 40.8891 18.5755 40.7774 18.4997 40.6796C18.424 40.5819 18.3296 40.5002 18.2222 40.4391L12.8494 37.3406C12.483 37.1307 12.1984 36.8028 12.0421 36.4105C11.8858 36.0182 11.867 35.5846 11.9886 35.1802C12.1103 34.7758 12.3653 34.4245 12.712 34.1835C13.0588 33.9425 13.477 33.8261 13.8984 33.8531H13.9059C14.1916 33.8677 14.47 33.9489 14.7187 34.0903L23.0062 38.9484C23.992 39.5289 24.8096 40.3562 25.3784 41.3488C25.9472 42.3414 26.2476 43.465 26.25 44.6091V56.25C26.25 56.4986 26.3487 56.7371 26.5246 56.9129C26.7004 57.0887 26.9388 57.1875 27.1875 57.1875C27.4361 57.1875 27.6746 57.0887 27.8504 56.9129C28.0262 56.7371 28.125 56.4986 28.125 56.25V44.6091C28.1219 43.1381 27.7358 41.6934 27.0046 40.4171C26.2734 39.1408 25.2223 38.0769 23.955 37.3303ZM11.7319 32.6006L9.51466 24.3422C9.30709 23.5215 8.83677 22.7912 8.17545 22.2628C7.51413 21.7343 6.6981 21.4367 5.85185 21.4153V21.4031C5.85293 20.9745 6.0008 20.5593 6.27083 20.2265C6.54086 19.8937 6.91676 19.6634 7.33591 19.5741C7.83185 19.4979 8.33828 19.6113 8.75437 19.8917C9.17046 20.1721 9.46567 20.5989 9.58123 21.0872L12.7087 32.1375C12.3624 32.2436 12.0333 32.3997 11.7319 32.6006Z" fill="url(#paint4_linear_27_431)"/>
<path d="M37.1325 33.2616C37.428 33.259 37.7189 33.187 37.9815 33.0514C38.2442 32.9158 38.4713 32.7204 38.6446 32.481C38.8179 32.2415 38.9326 31.9647 38.9793 31.6729C39.0261 31.381 39.0036 31.0822 38.9137 30.8006L36.6103 23.7113L42.6403 19.3294C42.9604 19.0968 43.1987 18.7689 43.3211 18.3927C43.4436 18.0164 43.4438 17.6111 43.3219 17.2347C43.2 16.8583 42.9621 16.5301 42.6423 16.2971C42.3225 16.0641 41.9372 15.9382 41.5415 15.9375H34.0865L31.7812 8.84812C31.6579 8.473 31.4193 8.14637 31.0995 7.91481C30.7796 7.68326 30.3948 7.55859 30 7.55859C29.6051 7.55859 29.2203 7.68326 28.9005 7.91481C28.5806 8.14637 28.342 8.473 28.2187 8.84812L25.9134 15.9375H18.4584C18.0625 15.9376 17.6768 16.0631 17.3565 16.2958C17.0363 16.5286 16.798 16.8568 16.6757 17.2333C16.5534 17.6099 16.5534 18.0155 16.6758 18.392C16.7981 18.7685 17.0366 19.0967 17.3568 19.3294L23.3868 23.7113L21.0834 30.8006C20.961 31.1772 20.961 31.583 21.0833 31.9596C21.2057 32.3362 21.4442 32.6645 21.7646 32.8972C22.085 33.13 22.4708 33.2553 22.8669 33.2552C23.2629 33.2552 23.6487 33.1297 23.969 32.8969L30 28.5159L36.0309 32.8969C36.35 33.1325 36.7358 33.2602 37.1325 33.2616ZM30 26.6391C29.6038 26.6393 29.2178 26.765 28.8975 26.9981L22.8675 31.38L25.1709 24.2906C25.2932 23.914 25.2931 23.5083 25.1707 23.1318C25.0483 22.7552 24.8097 22.4271 24.4893 22.1944L18.4584 17.8125H25.9134C26.309 17.8121 26.6944 17.6865 27.0143 17.4538C27.3343 17.2211 27.5724 16.8931 27.6947 16.5169L30 9.41531V9.4275L32.3034 16.5169C32.4258 16.8934 32.6642 17.2216 32.9845 17.4544C33.3048 17.6871 33.6906 17.8125 34.0865 17.8125H41.5415L35.5115 22.1934C35.1908 22.4261 34.9519 22.7543 34.8293 23.1311C34.7067 23.5078 34.7066 23.9138 34.829 24.2906L37.1325 31.38L31.1025 27C30.7824 26.7662 30.3964 26.6398 30 26.6391Z" fill="url(#paint5_linear_27_431)"/>
<path d="M14.1056 12.5307L15.7284 13.4682C15.8351 13.5307 15.953 13.5715 16.0755 13.5883C16.198 13.605 16.3226 13.5974 16.4422 13.5658C16.5617 13.5342 16.6738 13.4792 16.772 13.4041C16.8702 13.329 16.9526 13.2353 17.0144 13.1282C17.0762 13.0211 17.1163 12.9029 17.1322 12.7803C17.1481 12.6577 17.1397 12.5331 17.1073 12.4138C17.0749 12.2945 17.0192 12.1827 16.9435 12.085C16.8677 11.9873 16.7734 11.9056 16.6659 11.8444L15.0431 10.9069C14.8279 10.7846 14.573 10.7523 14.3341 10.8172C14.0952 10.882 13.8916 11.0388 13.7678 11.2532C13.644 11.4676 13.6101 11.7222 13.6734 11.9616C13.7366 12.2009 13.892 12.4055 14.1056 12.5307Z" fill="url(#paint6_linear_27_431)"/>
<path d="M43.8037 13.5938C43.9683 13.5938 44.13 13.5505 44.2725 13.4682L45.8953 12.5307C46.1089 12.4055 46.2642 12.2009 46.3275 11.9616C46.3908 11.7222 46.3568 11.4676 46.2331 11.2532C46.1093 11.0388 45.9057 10.882 45.6668 10.8172C45.4279 10.7523 45.173 10.7846 44.9578 10.9069L43.335 11.8444C43.1563 11.9476 43.0166 12.1069 42.9376 12.2976C42.8587 12.4882 42.8448 12.6996 42.8982 12.899C42.9516 13.0983 43.0693 13.2744 43.233 13.4001C43.3968 13.5257 43.5974 13.5938 43.8037 13.5938Z" fill="url(#paint7_linear_27_431)"/>
<defs>
<linearGradient id="paint0_linear_27_431" x1="29.2388" y1="2.39583" x2="31.3675" y2="2.70987" gradientUnits="userSpaceOnUse">
<stop stop-color="#2AD3F8"/>
<stop offset="0.9813" stop-color="#933CFF"/>
</linearGradient>
<linearGradient id="paint1_linear_27_431" x1="20.4225" y1="4.75155" x2="23.5078" y2="5.4836" gradientUnits="userSpaceOnUse">
<stop stop-color="#2AD3F8"/>
<stop offset="0.9813" stop-color="#933CFF"/>
</linearGradient>
<linearGradient id="paint2_linear_27_431" x1="37.2963" y1="4.75155" x2="40.3816" y2="5.4836" gradientUnits="userSpaceOnUse">
<stop stop-color="#2AD3F8"/>
<stop offset="0.9813" stop-color="#933CFF"/>
</linearGradient>
<linearGradient id="paint3_linear_27_431" x1="34.3218" y1="23.1616" x2="63.4135" y2="28.8148" gradientUnits="userSpaceOnUse">
<stop stop-color="#2AD3F8"/>
<stop offset="0.9813" stop-color="#933CFF"/>
</linearGradient>
<linearGradient id="paint4_linear_27_431" x1="4.54793" y1="23.1612" x2="33.6383" y2="28.8137" gradientUnits="userSpaceOnUse">
<stop stop-color="#2AD3F8"/>
<stop offset="0.9813" stop-color="#933CFF"/>
</linearGradient>
<linearGradient id="paint5_linear_27_431" x1="19.1064" y1="11.1285" x2="47.5333" y2="19.883" gradientUnits="userSpaceOnUse">
<stop stop-color="#2AD3F8"/>
<stop offset="0.9813" stop-color="#933CFF"/>
</linearGradient>
<linearGradient id="paint6_linear_27_431" x1="13.9711" y1="11.175" x2="17.5472" y2="12.4872" gradientUnits="userSpaceOnUse">
<stop stop-color="#2AD3F8"/>
<stop offset="0.9813" stop-color="#933CFF"/>
</linearGradient>
<linearGradient id="paint7_linear_27_431" x1="43.1946" y1="11.1746" x2="46.7656" y2="12.4843" gradientUnits="userSpaceOnUse">
<stop stop-color="#2AD3F8"/>
<stop offset="0.9813" stop-color="#933CFF"/>
</linearGradient>
</defs>
</svg>
