<svg width="34" height="34" viewBox="0 0 34 34" fill="none" xmlns="http://www.w3.org/2000/svg">
<path d="M8.84445 9.83917C12.3662 8.643 11.6113 3.51657 7.84829 3.42944C4.08458 3.51697 3.33114 8.64366 6.85226 9.83917V13.9832L11.4248 18.5557V34H13.417V17.7306L8.84445 13.158V9.83917ZM7.84836 5.42163C8.55977 5.42163 9.13856 6.00036 9.13856 6.71177C9.06771 8.42339 6.62881 8.42286 6.55822 6.71177C6.55822 6.00036 7.13701 5.42163 7.84836 5.42163Z" fill="#0B6EDA"/>
<path d="M5.41499 22.4136C8.93664 21.2175 8.1818 16.091 4.41883 16.0039C0.655185 16.0914 -0.0983273 21.2181 3.4228 22.4136V26.5577L6.85222 29.9871V34H8.8444V29.1619L5.41499 25.7325V22.4136ZM4.41889 17.9961C5.1303 17.9961 5.70903 18.5749 5.70903 19.2863C5.63818 20.9979 3.19927 20.9973 3.12868 19.2863C3.12868 18.5749 3.70748 17.9961 4.41889 17.9961Z" fill="#0B6EDA"/>
<path d="M27.1345 9.83917C30.6562 8.643 29.9014 3.51657 26.1383 3.42944C22.3747 3.51697 21.6213 8.64366 25.1423 9.83917V13.158L20.5698 17.7306V34H22.562V18.5558L27.1345 13.9833V9.83917ZM26.1384 5.42163C26.8498 5.42163 27.4286 6.00036 27.4286 6.71177C27.3577 8.42333 24.9189 8.42293 24.8483 6.71177C24.8482 6.00036 25.427 5.42163 26.1384 5.42163Z" fill="#0B6EDA"/>
<path d="M32.8503 19.2863C32.8503 17.4764 31.3778 16.0039 29.5679 16.0039C25.8039 16.0914 25.051 21.2183 28.5718 22.4136V25.7325L25.1423 29.1619V34H27.1345V29.9871L30.564 26.5577V22.4136C31.8883 21.9908 32.8503 20.749 32.8503 19.2863ZM29.5679 20.5764C28.8565 20.5764 28.2777 19.9977 28.2777 19.2863C28.3486 17.5747 30.7875 17.5752 30.8581 19.2863C30.8581 19.9977 30.2793 20.5764 29.5679 20.5764Z" fill="#0B6EDA"/>
<path d="M16.9934 0C13.2285 0.0879883 12.477 5.21468 15.9973 6.40973V34H17.9895V6.40973C21.512 5.21296 20.7554 0.0869258 16.9934 0ZM16.9934 4.57254C16.2819 4.57254 15.7032 3.9938 15.7032 3.28239C15.774 1.57077 18.2129 1.5713 18.2835 3.28239C18.2836 3.9938 17.7048 4.57254 16.9934 4.57254Z" fill="#0B6EDA"/>
</svg>
