<svg width="34" height="34" viewBox="0 0 34 34" fill="none" xmlns="http://www.w3.org/2000/svg">
<g clip-path="url(#clip0_86_381)">
<path d="M12.5929 23.2576V24.2537H21.407V23.2576C21.407 22.2372 22.2372 21.407 23.2576 21.407H24.2537V12.5928H23.2576C22.2372 12.5928 21.407 11.7627 21.407 10.7422V9.74609H12.5929V10.7422C12.5929 11.7627 11.7627 12.5928 10.7422 12.5928H9.74609V21.407H10.7422C11.7627 21.407 12.5929 22.2372 12.5929 23.2576ZM11.7383 14.4541C13.058 14.0996 14.0997 13.058 14.4542 11.7383H19.5457C19.9002 13.058 20.9418 14.0996 22.2615 14.4541V19.5457C20.9418 19.9002 19.9001 20.9418 19.5457 22.2615H14.4542C14.0996 20.9418 13.058 19.9002 11.7383 19.5457V14.4541Z" fill="#0B6EDA"/>
<path d="M34 17.9961V16.0039H28.4275V13.9891H31.0955L33.9296 11.1928L32.5304 9.77473L30.2781 11.997H28.4276V10.0048H30.3817V8.01264H28.4276V5.57248H25.9876V3.61841H23.9954V5.57248H22.0032V3.72194L24.2255 1.46964L22.8072 0.070457L20.0109 2.90461V5.57255H17.9961V0H16.0039V5.57248H13.9891V2.90454L11.1928 0.070457L9.77467 1.46964L11.997 3.72194V5.57248H10.0048V3.61841H8.01258V5.57248H5.57248V8.01258H3.61841V10.0048H5.57248V11.997H3.72194L1.46964 9.77467L0.070457 11.1928L2.90461 13.9891H5.57255V16.0039H0V17.9961H5.57248V20.0109H2.90454L0.070457 22.8072L1.46964 24.2253L3.72194 22.003H5.57248V23.9952H3.61841V25.9874H5.57248V28.4275H8.01251V30.3816H10.0047V28.4275H11.9969V30.2781L9.7746 32.5304L11.1927 33.9295L13.989 31.0954V28.4275H16.0039V34H17.9961V28.4275H20.0109V31.0955L22.8072 33.9296L24.2253 32.5304L22.003 30.2781V28.4276H23.9952V30.3817H25.9874V28.4276H28.4275V25.9874H30.3815V23.9952H28.4275V22.003H30.278L32.5303 24.2253L33.9295 22.8072L31.0953 20.0109H28.4274V17.9961H34ZM26.4353 26.4353H7.56467V7.56467H26.4353V26.4353Z" fill="#0B6EDA"/>
<path d="M16.0039 14.0117H17.9961V16.0039H16.0039V14.0117Z" fill="#0B6EDA"/>
<path d="M16.0039 17.9961H17.9961V19.9883H16.0039V17.9961Z" fill="#0B6EDA"/>
</g>
<defs>
<clipPath id="clip0_86_381">
<rect width="34" height="34" fill="white"/>
</clipPath>
</defs>
</svg>
