<svg width="52" height="52" viewBox="0 0 52 52" fill="none" xmlns="http://www.w3.org/2000/svg">
<path d="M44.3828 27.234H39.2927C38.5999 27.234 37.9292 27.3286 37.2909 27.5027C36.0317 25.0274 33.461 23.3267 30.4987 23.3267H21.5013C18.539 23.3267 15.9683 25.0274 14.7091 27.5027C14.0708 27.3286 13.4001 27.234 12.7073 27.234H7.61719C3.41707 27.234 0 30.651 0 34.8512V42.9881C0 45.5082 2.05024 47.5585 4.57031 47.5585H47.4297C49.9498 47.5585 52 45.5082 52 42.9881V34.8512C52 30.651 48.5829 27.234 44.3828 27.234ZM13.8841 30.9441V44.5117H4.57031C3.73029 44.5117 3.04688 43.8283 3.04688 42.9882V34.8513C3.04688 32.3312 5.09712 30.281 7.61719 30.281H12.7073C13.1209 30.281 13.5213 30.3371 13.9026 30.4406C13.8916 30.6073 13.8841 30.7748 13.8841 30.9441ZM35.069 44.5117H16.931V30.9439C16.931 28.4239 18.9812 26.3736 21.5013 26.3736H30.4987C33.0188 26.3736 35.069 28.4239 35.069 30.9439V44.5117ZM48.9531 42.9882C48.9531 43.8283 48.2697 44.5117 47.4297 44.5117H38.1159V30.9439C38.1159 30.7746 38.1084 30.6071 38.0974 30.4405C38.4787 30.3371 38.8791 30.2808 39.2927 30.2808H44.3828C46.9029 30.2808 48.9531 32.3311 48.9531 34.8512V42.9882Z" fill="white"/>
<path d="M10.1623 12.8481C6.43003 12.8481 3.39362 15.8846 3.39362 19.6169C3.39351 23.3492 6.43003 26.3856 10.1623 26.3856C13.8946 26.3856 16.9311 23.3492 16.9311 19.6169C16.9311 15.8846 13.8947 12.8481 10.1623 12.8481ZM10.1622 23.3387C8.10997 23.3387 6.44039 21.6692 6.44039 19.6169C6.44039 17.5646 8.10997 15.895 10.1622 15.895C12.2145 15.895 13.8841 17.5646 13.8841 19.6169C13.8841 21.6692 12.2145 23.3387 10.1622 23.3387Z" fill="white"/>
<path d="M26 4.44141C21.0137 4.44141 16.9571 8.49801 16.9571 13.4843C16.9571 18.4706 21.0137 22.5272 26 22.5272C30.9863 22.5272 35.0429 18.4706 35.0429 13.4843C35.0429 8.49812 30.9863 4.44141 26 4.44141ZM26 19.4804C22.6937 19.4804 20.004 16.7906 20.004 13.4843C20.004 10.1782 22.6937 7.48828 26 7.48828C29.3063 7.48828 31.9961 10.1781 31.9961 13.4843C31.9961 16.7906 29.3063 19.4804 26 19.4804Z" fill="white"/>
<path d="M41.8376 12.8481C38.1054 12.8481 35.0689 15.8846 35.0689 19.6169C35.069 23.3492 38.1054 26.3856 41.8376 26.3856C45.57 26.3856 48.6064 23.3492 48.6064 19.6169C48.6064 15.8846 45.57 12.8481 41.8376 12.8481ZM41.8376 23.3387C39.7855 23.3387 38.1158 21.6692 38.1158 19.6169C38.1159 17.5646 39.7855 15.895 41.8376 15.895C43.8899 15.895 45.5595 17.5646 45.5595 19.6169C45.5595 21.6692 43.8899 23.3387 41.8376 23.3387Z" fill="white"/>
</svg>
