<svg width="52" height="52" viewBox="0 0 52 52" fill="none" xmlns="http://www.w3.org/2000/svg">
<path d="M38.1875 35.563H29.25C28.4087 35.563 27.7266 36.2451 27.7266 37.0864C27.7266 37.9278 28.4087 38.6099 29.25 38.6099H38.1875C39.0288 38.6099 39.7109 37.9278 39.7109 37.0864C39.7109 36.2451 39.0288 35.563 38.1875 35.563Z" fill="white"/>
<path d="M38.1875 23.6592H29.25C28.4087 23.6592 27.7266 24.3413 27.7266 25.1826C27.7266 26.024 28.4087 26.7061 29.25 26.7061H38.1875C39.0288 26.7061 39.7109 26.024 39.7109 25.1826C39.7109 24.3413 39.0288 23.6592 38.1875 23.6592Z" fill="white"/>
<path d="M20.4765 21.5807C19.8307 21.0415 18.87 21.1277 18.3307 21.7735L15.7583 24.8541L15.1746 23.6892C14.7977 22.9369 13.8824 22.6326 13.1301 23.0096C12.3779 23.3865 12.0737 24.3019 12.4506 25.0541L14.0756 28.2974C14.3056 28.7566 14.7516 29.069 15.2618 29.1283C15.3207 29.1351 15.3793 29.1384 15.4378 29.1384C15.8862 29.1384 16.3157 28.9403 16.607 28.5915L20.6695 23.7267C21.2086 23.0807 21.1223 22.12 20.4765 21.5807Z" fill="white"/>
<path d="M18.7605 32.8752C18.0758 32.3863 17.1245 32.5448 16.6353 33.2293L15.8437 34.3376L15.0522 33.2293C14.5631 32.5447 13.6116 32.3862 12.927 32.8752C12.2423 33.3642 12.0838 34.3158 12.5728 35.0004L13.9715 36.9586L12.5728 38.9168C12.0838 39.6015 12.2423 40.5529 12.927 41.042C13.1954 41.2338 13.5047 41.3259 13.8112 41.3259C14.2865 41.3259 14.7548 41.1041 15.0522 40.6879L15.8437 39.5797L16.6353 40.688C16.9327 41.1043 17.401 41.326 17.8763 41.326C18.1827 41.326 18.4921 41.2338 18.7605 41.0421C19.4452 40.5531 19.6037 39.6016 19.1147 38.9169L17.716 36.9586L19.1147 35.0004C19.6037 34.3158 19.4452 33.3643 18.7605 32.8752Z" fill="white"/>
<path d="M40.5234 5.22519V4.57031C40.5234 2.05024 38.4732 0 35.9531 0H16.0469C13.5268 0 11.4766 2.05024 11.4766 4.57031V5.22519C8.19376 6.08481 5.78906 9.08426 5.78906 12.5938V44.3828C5.78906 48.5829 9.20613 52 13.4062 52H38.5938C42.7939 52 46.2109 48.5829 46.2109 44.3828V12.5938C46.2109 9.08426 43.8062 6.08481 40.5234 5.22519ZM14.5234 4.57031C14.5234 3.73029 15.2069 3.04688 16.0469 3.04688H35.9531C36.7931 3.04688 37.4766 3.73029 37.4766 4.57031V8.32812C37.4766 9.16815 36.7931 9.85156 35.9531 9.85156H16.0469C15.2069 9.85156 14.5234 9.16815 14.5234 8.32812V4.57031ZM43.1641 44.3828C43.1641 46.9029 41.1138 48.9531 38.5938 48.9531H13.4062C10.8862 48.9531 8.83594 46.9029 8.83594 44.3828V12.5938C8.83594 10.7726 9.91484 9.18115 11.4797 8.45051C11.5449 10.9141 13.5678 12.8984 16.0469 12.8984H35.9531C38.4322 12.8984 40.4551 10.9141 40.5203 8.45051C42.0852 9.18115 43.1641 10.7726 43.1641 12.5938V44.3828Z" fill="white"/>
</svg>
