<svg width="52" height="52" viewBox="0 0 52 52" fill="none" xmlns="http://www.w3.org/2000/svg">
<path d="M50.4766 21.4454H45.0085V12.2104C45.0085 10.3849 43.5234 8.89973 41.6978 8.89973H21.643C21.5418 8.89973 21.4484 8.84072 21.4048 8.74931L20.6059 7.0718C20.06 5.92537 18.8868 5.18457 17.6169 5.18457H3.31073C1.48515 5.18467 0 6.66982 0 8.49531V36.1253C0 37.9509 1.48515 39.436 3.31073 39.436H26.1441V45.2917C26.1441 46.133 26.8262 46.8151 27.6676 46.8151H50.4766C51.3179 46.8151 52 46.133 52 45.2917V22.9689C52 22.1275 51.3179 21.4454 50.4766 21.4454ZM48.9531 28.4815L41.558 34.0194L39.0393 31.4663C38.5117 30.9316 37.6734 30.8611 37.0639 31.3004L29.191 36.9757V24.4923H48.9531V28.4815ZM3.31073 36.3891C3.1652 36.3891 3.04688 36.2708 3.04688 36.1253V8.49531C3.04688 8.34977 3.1652 8.23145 3.31073 8.23145H17.6169C17.7181 8.23145 17.8115 8.29045 17.8551 8.38186L18.654 10.0594C19.1999 11.2058 20.3731 11.9466 21.643 11.9466H41.6979C41.8434 11.9466 41.9618 12.0649 41.9618 12.2104V21.4454H27.6676C26.8262 21.4454 26.1441 22.1275 26.1441 22.9689V36.3891H3.31073ZM29.191 40.7316L32.5268 38.327C32.9915 39.6218 33.787 40.5181 34.4724 41.2902C35.1686 42.0744 35.7599 42.7408 36.0395 43.7683H29.1909V40.7316H29.191ZM48.9531 43.7683H39.151C38.804 41.5815 37.6828 40.3171 36.7511 39.2674C35.9335 38.3466 35.3208 37.6528 35.202 36.3986L37.7869 34.5352L40.3225 37.1056C40.8576 37.6478 41.7104 37.7117 42.3203 37.2552L48.9531 32.288V43.7683Z" fill="white"/>
<path d="M40.6865 28.8586C40.8885 29.9692 42.285 30.4671 43.1465 29.7391C44.0816 28.9872 43.7764 27.4389 42.6224 27.1037C41.5507 26.7548 40.4444 27.7583 40.6865 28.8586Z" fill="white"/>
<path d="M14.2351 27.7207H7.50275C6.6614 27.7207 5.97931 28.4028 5.97931 29.2441C5.97931 30.0855 6.6614 30.7676 7.50275 30.7676H14.2351C15.0765 30.7676 15.7586 30.0855 15.7586 29.2441C15.7586 28.4028 15.0765 27.7207 14.2351 27.7207Z" fill="white"/>
<path d="M19.1759 21.4453H7.50275C6.6614 21.4453 5.97931 22.1274 5.97931 22.9688C5.97931 23.8101 6.6614 24.4922 7.50275 24.4922H19.1759C20.0173 24.4922 20.6994 23.8101 20.6994 22.9688C20.6994 22.1274 20.0173 21.4453 19.1759 21.4453Z" fill="white"/>
</svg>
