<svg width="52" height="52" viewBox="0 0 52 52" fill="none" xmlns="http://www.w3.org/2000/svg">
<g clip-path="url(#clip0_49_23)">
<path d="M26 0C11.6635 0 0 11.6635 0 26C0 40.3365 11.6635 52 26 52C40.3365 52 52 40.3365 52 26C52 11.6635 40.3365 0 26 0ZM26 48.9531C13.3436 48.9531 3.04688 38.6564 3.04688 26C3.04688 13.3436 13.3436 3.04688 26 3.04688C38.6564 3.04688 48.9531 13.3436 48.9531 26C48.9531 38.6564 38.6564 48.9531 26 48.9531Z" fill="white"/>
<path d="M19.7935 21.1251C20.066 21.9211 20.9321 22.3454 21.7283 22.073C22.5242 21.8004 22.9486 20.9343 22.6762 20.1382C21.7552 17.4481 19.2259 15.6406 16.3824 15.6406C13.5368 15.6406 11.0071 17.4498 10.0873 20.1426C9.81529 20.9387 10.2402 21.8047 11.0365 22.0766C11.1996 22.1324 11.3657 22.1589 11.5291 22.1589C12.1626 22.1589 12.7543 21.7605 12.9706 21.1275C13.4691 19.6681 14.8403 18.6876 16.3825 18.6876C17.9235 18.6875 19.2943 19.6672 19.7935 21.1251Z" fill="white"/>
<path d="M35.6269 15.6406C32.7814 15.6406 30.2516 17.4498 29.3318 20.1426C29.0598 20.9387 29.4847 21.8047 30.281 22.0766C30.4441 22.1324 30.6103 22.1589 30.7736 22.1589C31.4071 22.1589 31.9988 21.7605 32.2151 21.1275C32.7136 19.6681 34.0848 18.6876 35.627 18.6876C37.1681 18.6876 38.5389 19.6673 39.0381 21.1252C39.3106 21.9212 40.1766 22.3455 40.9729 22.0731C41.7688 21.8005 42.1933 20.9344 41.9208 20.1383C40.9997 17.4481 38.4705 15.6406 35.6269 15.6406Z" fill="white"/>
<path d="M35.9409 32.3591C35.2181 31.9282 34.283 32.1652 33.8525 32.888C32.2127 35.6403 29.2038 37.35 26 37.35C22.8054 37.35 19.8008 35.6476 18.159 32.9072C17.7266 32.1856 16.7911 31.951 16.0691 32.3834C15.3474 32.8158 15.1128 33.7514 15.5453 34.4731C17.7344 38.127 21.7405 40.3969 25.9999 40.3969C30.2715 40.3969 34.2833 38.1173 36.4698 34.4476C36.9006 33.7249 36.6638 32.7897 35.9409 32.3591Z" fill="white"/>
</g>
<defs>
<clipPath id="clip0_49_23">
<rect width="52" height="52" fill="white"/>
</clipPath>
</defs>
</svg>
