<svg width="32" height="32" viewBox="0 0 32 32" fill="none" xmlns="http://www.w3.org/2000/svg">
<g clip-path="url(#clip0_86_72)">
<path d="M16 -0.03125C12.8293 -0.03125 9.72985 0.908967 7.09352 2.6705C4.4572 4.43204 2.40243 6.93578 1.18906 9.86511C-0.0243039 12.7944 -0.341776 16.0178 0.276793 19.1275C0.895362 22.2373 2.42219 25.0938 4.6642 27.3358C6.90621 29.5778 9.76271 31.1046 12.8725 31.7232C15.9822 32.3418 19.2056 32.0243 22.1349 30.8109C25.0642 29.5976 27.568 27.5428 29.3295 24.9065C31.091 22.2702 32.0313 19.1707 32.0313 16C32.0265 11.7497 30.336 7.67482 27.3306 4.6694C24.3252 1.66398 20.2503 -0.0265353 16 -0.03125ZM16 30.8438C13.0642 30.8438 10.1943 29.9732 7.75326 28.3421C5.31222 26.7111 3.40966 24.3928 2.28617 21.6805C1.16268 18.9681 0.868726 15.9835 1.44148 13.1041C2.01423 10.2247 3.42796 7.57982 5.50389 5.50388C7.57983 3.42795 10.2247 2.01422 13.1041 1.44147C15.9835 0.868719 18.9681 1.16267 21.6805 2.28616C24.3928 3.40965 26.7111 5.31221 28.3421 7.75325C29.9732 10.1943 30.8438 13.0642 30.8438 16C30.839 19.9354 29.2736 23.7082 26.4909 26.4909C23.7082 29.2736 19.9354 30.839 16 30.8438Z" fill="#0B6EDA"/>
<path d="M24.0156 11.0332L16.2969 6.58004C16.2066 6.52792 16.1042 6.50049 16 6.50049C15.8958 6.50049 15.7934 6.52792 15.7031 6.58004L7.98438 11.0332C7.8942 11.0852 7.81931 11.1601 7.7672 11.2502C7.71509 11.3404 7.68761 11.4426 7.6875 11.5468V20.453C7.68761 20.5571 7.71509 20.6594 7.7672 20.7495C7.81931 20.8397 7.8942 20.9145 7.98438 20.9666L15.7031 25.4197C15.7934 25.4718 15.8958 25.4993 16 25.4993C16.1042 25.4993 16.2066 25.4718 16.2969 25.4197L24.0156 20.9666C24.1058 20.9145 24.1807 20.8397 24.2328 20.7495C24.2849 20.6594 24.3124 20.5571 24.3125 20.453V11.5468C24.3124 11.4426 24.2849 11.3404 24.2328 11.2502C24.1807 11.1601 24.1058 11.0852 24.0156 11.0332ZM16 7.76754L22.5312 11.5468L16 15.3141L9.46875 11.5468L16 7.76754ZM8.875 12.5739L15.4062 16.3413V23.8789L8.875 20.1116V12.5739ZM16.5938 23.8789V16.3413L23.125 12.5739V20.1116L16.5938 23.8789Z" fill="#0B6EDA"/>
</g>
<defs>
<clipPath id="clip0_86_72">
<rect width="32" height="32" fill="white"/>
</clipPath>
</defs>
</svg>
