<svg width="32" height="32" viewBox="0 0 32 32" fill="none" xmlns="http://www.w3.org/2000/svg">
<g clip-path="url(#clip0_86_127)">
<path d="M25.739 0C22.1244 0 20.1738 7.16797 20.1738 13.913C20.1738 20.6581 22.1244 27.826 25.739 27.826C29.3536 27.826 31.3042 20.6581 31.3042 13.913C31.3042 7.16797 29.3536 0 25.739 0ZM25.739 26.4347C23.7648 26.4347 21.5651 21.2925 21.5651 13.913C21.5651 6.53354 23.7648 1.39128 25.739 1.39128C27.7133 1.39128 29.9129 6.53354 29.9129 13.913C29.9129 21.2925 27.7133 26.4347 25.739 26.4347Z" fill="#0B6EDA"/>
<path d="M25.0436 9.73914C24.6596 9.73914 24.3479 10.0508 24.3479 10.4348C24.3479 10.8188 24.6596 11.1305 25.0436 11.1305C26.1942 11.1305 27.1305 12.3785 27.1305 13.9131C27.1305 15.4477 26.1942 16.6957 25.0436 16.6957C24.6596 16.6957 24.3479 17.0073 24.3479 17.3913C24.3479 17.7753 24.6596 18.087 25.0436 18.087C26.9622 18.087 28.5218 16.2143 28.5218 13.9131C28.5218 11.6119 26.9622 9.73914 25.0436 9.73914Z" fill="#0B6EDA"/>
<path d="M21.5651 13.913C21.5651 9.25626 22.4792 4.97943 23.9526 2.74913C24.1376 2.47085 24.0973 2.1008 23.8566 1.86707C23.6159 1.63333 23.2416 1.60548 22.9717 1.79748L13.6917 8.34778H6.26075C3.19155 8.34778 0.695557 10.8438 0.695557 13.913C0.695557 16.9822 3.19155 19.4782 6.26075 19.4782H13.6917L22.9717 26.0285C23.0927 26.1133 23.2318 26.1551 23.3723 26.1551C23.5476 26.1551 23.723 26.0883 23.8565 25.9589C24.0972 25.7265 24.1375 25.3565 23.9525 25.0768C22.4792 22.8466 21.5651 18.5697 21.5651 13.913ZM14.3136 18.2135C14.1967 18.1314 14.0576 18.0869 13.9129 18.0869H6.26075C3.95955 18.0869 2.08684 16.2142 2.08684 13.913C2.08684 11.6118 3.95955 9.73913 6.26075 9.73913H13.9129C14.0576 9.73913 14.1967 9.69458 14.3136 9.6111L21.5971 4.47022C20.6969 6.98989 20.1738 10.3624 20.1738 13.913C20.1738 17.4635 20.6969 20.8361 21.5971 23.3544L14.3136 18.2135Z" fill="#0B6EDA"/>
<path d="M13.3635 25.0796L14.5962 18.9189C14.6365 18.7144 14.5837 18.5029 14.4515 18.3416C14.3193 18.1802 14.1204 18.0869 13.913 18.0869C11.3447 18.0869 10.4348 15.8386 10.4348 13.913C10.4348 11.9875 11.3447 9.73913 13.913 9.73913C14.297 9.73913 14.6087 9.42745 14.6087 9.04345C14.6087 8.65945 14.297 8.34778 13.913 8.34778C10.9996 8.34778 9.04344 10.5836 9.04344 13.913C9.04344 16.9126 10.6323 19.0246 13.0768 19.4128L11.9986 24.8055C11.8539 25.5318 12.0792 26.2789 12.6066 26.8062C13.0003 27.2013 13.2174 27.7244 13.2174 28.2824V28.7596C13.2174 29.3175 13.0003 29.842 12.6066 30.2371L12.4341 30.4096L9.97286 28.7693C9.39131 28.3811 9.04344 27.7314 9.04344 27.0329V21.5651C9.04344 21.3801 8.96968 21.2034 8.83892 21.0726L6.05629 18.29C5.78499 18.0187 5.34392 18.0187 5.07262 18.29C4.80131 18.5613 4.80131 19.0023 5.07262 19.2736L7.6521 21.8531V27.0329C7.6521 28.1988 8.2309 29.2799 9.20062 29.9268L12.1362 31.883C12.2545 31.9623 12.388 31.9999 12.5216 31.9999C12.7011 31.9999 12.8792 31.9303 13.0141 31.7967L13.5901 31.2207C14.2469 30.5641 14.6087 29.6903 14.6087 28.761V28.2838C14.6087 27.3544 14.2469 26.4807 13.5889 25.8212C13.3927 25.6264 13.3092 25.3481 13.3635 25.0796Z" fill="#0B6EDA"/>
</g>
<defs>
<clipPath id="clip0_86_127">
<rect width="32" height="32" fill="white"/>
</clipPath>
</defs>
</svg>
