<svg width="32" height="32" viewBox="0 0 32 32" fill="none" xmlns="http://www.w3.org/2000/svg">
<g clip-path="url(#clip0_86_103)">
<path d="M11.9999 13.3333C8.32392 13.3333 5.33325 10.3427 5.33325 6.66667C5.33325 2.99067 8.32392 0 11.9999 0C15.6759 0 18.6666 2.99067 18.6666 6.66667C18.6666 10.3427 15.6759 13.3333 11.9999 13.3333ZM11.9999 1.33333C9.05859 1.33333 6.66659 3.72533 6.66659 6.66667C6.66659 9.608 9.05859 12 11.9999 12C14.9413 12 17.3333 9.608 17.3333 6.66667C17.3333 3.72533 14.9413 1.33333 11.9999 1.33333Z" fill="#0B6EDA"/>
<path d="M11.3333 28H0.666667C0.298667 28 0 27.7013 0 27.3333V22C0 18.692 2.692 16 6 16H14C14.368 16 14.6667 16.2987 14.6667 16.6667C14.6667 17.0347 14.368 17.3333 14 17.3333H6C3.42667 17.3333 1.33333 19.4267 1.33333 22V26.6667H11.3333C11.7013 26.6667 12 26.9653 12 27.3333C12 27.7013 11.7013 28 11.3333 28Z" fill="#0B6EDA"/>
<path d="M22.6668 26.6667C20.8295 26.6667 19.3335 25.1707 19.3335 23.3333C19.3335 21.496 20.8295 20 22.6668 20C24.5042 20 26.0002 21.496 26.0002 23.3333C26.0002 25.1707 24.5042 26.6667 22.6668 26.6667ZM22.6668 21.3333C21.5642 21.3333 20.6668 22.2307 20.6668 23.3333C20.6668 24.436 21.5642 25.3333 22.6668 25.3333C23.7695 25.3333 24.6668 24.436 24.6668 23.3333C24.6668 22.2307 23.7695 21.3333 22.6668 21.3333Z" fill="#0B6EDA"/>
<path d="M23.7294 32H21.6027C20.9147 32 20.3441 31.484 20.2761 30.7986L20.1067 29.104C19.7027 28.924 19.3174 28.7 18.9534 28.4333L17.3961 29.136C16.7707 29.4213 16.0361 29.1826 15.6934 28.5866L14.6307 26.7453C14.2867 26.1493 14.4494 25.3973 15.0067 24.996L16.3787 24.0093C16.3521 23.8026 16.3334 23.5733 16.3334 23.3333C16.3334 23.0933 16.3521 22.8626 16.3787 22.6573L15.0067 21.6706C14.4494 21.2693 14.2867 20.5173 14.6307 19.9213L15.6934 18.08C16.0374 17.484 16.7681 17.248 17.3961 17.5306L18.9534 18.2333C19.3174 17.9666 19.7027 17.7426 20.1067 17.5626L20.2761 15.868C20.3441 15.184 20.9147 14.668 21.6027 14.668H23.7294C24.4174 14.668 24.9881 15.184 25.0561 15.8693L25.2254 17.564C25.6307 17.744 26.0161 17.9693 26.3787 18.2346L27.9361 17.532C28.5641 17.2506 29.2961 17.4866 29.6387 18.0813L30.7014 19.9226C31.0454 20.5186 30.8827 21.2706 30.3254 21.672L28.9534 22.6586C28.9801 22.8653 28.9987 23.0946 28.9987 23.3346C28.9987 23.5746 28.9801 23.8053 28.9534 24.0106L30.3254 24.9973C30.8827 25.3986 31.0454 26.1506 30.7014 26.7466L29.6401 28.5866C29.2961 29.1813 28.5667 29.42 27.9374 29.136L26.3801 28.4333C26.0161 28.7 25.6307 28.924 25.2267 29.104L25.0561 30.8C24.9881 31.484 24.4174 32 23.7294 32ZM19.0467 26.9933C19.2001 26.9933 19.3521 27.0466 19.4747 27.1493C19.9267 27.528 20.4267 27.8173 20.9587 28.012C21.1987 28.1 21.3681 28.3173 21.3934 28.572L21.6041 30.6666H23.7307L23.9401 28.572C23.9654 28.3173 24.1347 28.1 24.3747 28.012C24.9067 27.8173 25.4067 27.5266 25.8587 27.1493C26.0561 26.9853 26.3281 26.948 26.5601 27.0533L28.4854 27.9226L29.5481 26.0813L27.8441 24.8573C27.6361 24.708 27.5334 24.452 27.5761 24.2C27.6254 23.9186 27.6654 23.632 27.6654 23.336C27.6654 23.04 27.6254 22.7533 27.5761 22.472C27.5321 22.22 27.6361 21.9653 27.8441 21.8146L29.5481 20.5906L28.4854 18.7493L26.5601 19.6173C26.3267 19.7226 26.0547 19.6853 25.8574 19.5213C25.4067 19.1426 24.9081 18.8533 24.3734 18.6586C24.1334 18.5706 23.9641 18.3533 23.9387 18.0986L23.7294 16H21.6027L21.3934 18.0946C21.3681 18.3493 21.1987 18.5666 20.9587 18.6546C20.4267 18.8493 19.9267 19.14 19.4747 19.5173C19.2787 19.6813 19.0067 19.72 18.7734 19.6133L16.8481 18.744L15.7854 20.5853L17.4894 21.8093C17.6974 21.9586 17.8001 22.2146 17.7574 22.4666C17.7081 22.748 17.6681 23.0346 17.6681 23.3306C17.6681 23.6266 17.7081 23.9133 17.7574 24.1946C17.8014 24.4466 17.6974 24.7013 17.4894 24.852L15.7854 26.076L16.8481 27.9173L18.7734 27.0493C18.8614 27.012 18.9534 26.9933 19.0467 26.9933Z" fill="#0B6EDA"/>
</g>
<defs>
<clipPath id="clip0_86_103">
<rect width="32" height="32" fill="white"/>
</clipPath>
</defs>
</svg>
