<svg width="32" height="32" viewBox="0 0 32 32" fill="none" xmlns="http://www.w3.org/2000/svg">
<g clip-path="url(#clip0_2034_1028)">
<path d="M16.4697 11.7184C16.1963 11.8235 15.9027 11.8655 15.6108 11.8413C15.3189 11.817 15.0362 11.7272 14.7839 11.5784C14.6617 11.4825 14.5064 11.4391 14.3521 11.4577C14.1979 11.4763 14.0573 11.5554 13.9614 11.6776C13.8655 11.7998 13.822 11.9551 13.8406 12.1094C13.8592 12.2636 13.9383 12.4042 14.0606 12.5001C14.459 12.7856 14.9281 12.9561 15.4168 12.993V13.6668C15.4168 13.8215 15.4783 13.9698 15.5877 14.0792C15.6971 14.1886 15.8454 14.2501 16.0002 14.2501C16.1549 14.2501 16.3032 14.1886 16.4126 14.0792C16.522 13.9698 16.5835 13.8215 16.5835 13.6668V12.9084C16.7007 12.8775 16.8157 12.8385 16.9277 12.7918C17.266 12.6595 17.5602 12.4344 17.7764 12.1423C17.9926 11.8503 18.122 11.5032 18.1497 11.1409C18.2897 9.72343 17.0297 9.25676 16.1956 8.9476C15.3206 8.61802 15.0289 8.44885 15.0289 8.0726C15.0316 7.94897 15.0692 7.82862 15.1373 7.72541C15.2054 7.62221 15.3013 7.54035 15.4139 7.48927C15.6758 7.37491 15.9621 7.32781 16.2469 7.35226C16.5316 7.37671 16.8057 7.47193 17.0443 7.62927C17.1064 7.68925 17.181 7.73472 17.2627 7.76239C17.3445 7.79007 17.4313 7.79926 17.5171 7.7893C17.6028 7.77934 17.6852 7.75048 17.7585 7.7048C17.8317 7.65912 17.8939 7.59777 17.9405 7.52515C17.9872 7.45254 18.0171 7.37048 18.0282 7.28489C18.0393 7.1993 18.0313 7.11231 18.0047 7.0302C17.9781 6.94809 17.9337 6.8729 17.8745 6.81005C17.8154 6.7472 17.743 6.69826 17.6627 6.66677C17.3338 6.45531 16.9675 6.30878 16.5835 6.2351V5.5176C16.5835 5.36289 16.522 5.21452 16.4126 5.10512C16.3032 4.99572 16.1549 4.93427 16.0002 4.93427C15.8454 4.93427 15.6971 4.99572 15.5877 5.10512C15.4783 5.21452 15.4168 5.36289 15.4168 5.5176V6.26718C15.2254 6.31242 15.0403 6.38099 14.8656 6.47135C14.572 6.6189 14.3239 6.84329 14.1478 7.12064C13.9716 7.39798 13.8739 7.7179 13.8652 8.04635C13.8243 9.31218 14.9589 9.73218 15.7902 10.0413C16.7439 10.3943 17.0327 10.578 16.9889 11.0301C16.9801 11.1833 16.9261 11.3305 16.8337 11.453C16.7413 11.5755 16.6146 11.6679 16.4697 11.7184Z" fill="#0B6EDA"/>
<path d="M30.6415 17.75C29.2503 16.6008 27.477 17.5663 26.5232 18.0854C25.9165 18.415 24.4815 19.3367 23.0932 20.2613C23.0939 19.7627 22.9411 19.2759 22.6557 18.8671C21.489 17.1404 19.532 17.8696 18.1028 18.4033C17.6625 18.5832 17.2078 18.7256 16.7436 18.8292C15.9545 18.9619 15.1466 18.9322 14.3695 18.7417C13.3574 18.5014 12.305 18.4865 11.2865 18.6979C9.33152 19.0849 7.47576 19.8659 5.83238 20.9933L5.54071 21.18C3.06154 22.7404 1.97363 23.1838 1.96196 23.1896C1.85974 23.2307 1.77125 23.2999 1.70673 23.3892C1.64221 23.4785 1.6043 23.5842 1.59738 23.6942C1.59738 23.7817 1.49238 25.8029 3.25988 28.2617C4.77654 30.3763 6.21446 31.0063 7.15363 31.1783H7.24988C7.33177 31.1786 7.41279 31.1615 7.48766 31.1284C7.56254 31.0952 7.62959 31.0466 7.68446 30.9858C7.68446 30.9858 8.30571 30.2946 8.79279 29.86C9.11654 29.5683 9.98279 29.2767 12.2607 29.4779C14.2324 29.6558 18.9399 29.6471 20.894 28.4804C23.0028 27.2175 27.9932 23.3413 29.9357 21.7721C30.9682 20.9408 31.4728 20.1504 31.4757 19.36C31.4716 19.0452 31.3941 18.7357 31.2493 18.4562C31.1045 18.1767 30.8964 17.9349 30.6415 17.75ZM29.2095 20.8533C27.5615 22.1804 22.3903 26.2171 20.2903 27.4742C18.832 28.3492 14.7486 28.5242 12.3628 28.3083C10.1403 28.1071 8.75779 28.3083 8.01404 28.9821C7.66988 29.2738 7.28779 29.6879 7.04571 29.9475C6.10946 29.6704 5.10904 28.845 4.20488 27.5821C3.43272 26.5659 2.94001 25.3653 2.77571 24.0996C3.93717 23.5169 5.06656 22.8723 6.15904 22.1688L6.45071 21.9763C7.96882 20.9268 9.68621 20.2001 11.4965 19.8413C12.3641 19.6614 13.2609 19.6773 14.1215 19.8879C15.0354 20.1049 15.9835 20.1367 16.9099 19.9813C17.4564 19.8705 17.9914 19.7094 18.5082 19.5C20.0365 18.9313 21.0836 18.625 21.6874 19.5204C21.7845 19.6551 21.8536 19.8078 21.8906 19.9696C21.9277 20.1314 21.932 20.299 21.9032 20.4625C21.8128 20.8913 21.457 21.3375 20.8649 21.74L20.6665 21.8713C20.2524 22.1454 19.9315 22.3583 19.7915 22.4546C18.6599 23.1517 17.5836 23.175 16.5424 23.1983C16.347 23.1983 16.1574 23.1983 15.959 23.2158C15.8824 23.2192 15.8072 23.2377 15.7377 23.2701C15.6682 23.3026 15.6058 23.3485 15.5541 23.4051C15.5023 23.4617 15.4623 23.528 15.4362 23.6001C15.4101 23.6722 15.3984 23.7488 15.402 23.8254C15.4095 23.9776 15.4763 24.1207 15.588 24.2243C15.6998 24.3278 15.8476 24.3836 15.9999 24.3796C16.1807 24.3796 16.3615 24.3796 16.5482 24.3621C17.6886 24.3388 18.9807 24.3096 20.3836 23.4463C20.547 23.3442 20.8736 23.1313 21.3053 22.8454L21.524 22.7025L22.2211 22.2417C23.939 21.0983 26.3045 19.5379 27.0832 19.1092C28.3403 18.4267 29.2474 18.1117 29.9007 18.6513C30.3207 18.9954 30.3207 19.2579 30.3178 19.3425C30.3149 19.7421 29.9211 20.2788 29.2095 20.8533Z" fill="#0B6EDA"/>
<path d="M16 17.1667C17.7109 17.1652 19.3513 16.4851 20.5613 15.2756C21.7714 14.0661 22.4523 12.426 22.4546 10.7151C22.4546 6.7105 16.6825 0.142165 16.4375 -0.137835C16.3809 -0.196767 16.313 -0.243653 16.2378 -0.275681C16.1626 -0.307709 16.0817 -0.324219 16 -0.324219C15.9183 -0.324219 15.8374 -0.307709 15.7622 -0.275681C15.6871 -0.243653 15.6191 -0.196767 15.5625 -0.137835C15.3175 0.153831 9.54834 6.7105 9.54834 10.7151C9.54988 12.4257 10.2301 14.0658 11.4397 15.2754C12.6493 16.485 14.2894 17.1652 16 17.1667ZM16 1.14841C17.3388 2.75258 21.2879 7.73716 21.2879 10.7151C21.2555 12.0956 20.6843 13.4087 19.6964 14.3737C18.7086 15.3386 17.3824 15.8788 16.0015 15.8788C14.6205 15.8788 13.2944 15.3386 12.3065 14.3737C11.3186 13.4087 10.7474 12.0956 10.715 10.7151C10.715 7.74008 14.6613 2.75258 16 1.14841Z" fill="#0B6EDA"/>
</g>
<defs>
<clipPath id="clip0_2034_1028">
<rect width="32" height="32" fill="white"/>
</clipPath>
</defs>
</svg>
