<svg width="32" height="32" viewBox="0 0 32 32" fill="none" xmlns="http://www.w3.org/2000/svg">
<g clip-path="url(#clip0_2034_22)">
<path d="M12.0002 13.3333C8.32416 13.3333 5.3335 10.3427 5.3335 6.66667C5.3335 2.99067 8.32416 0 12.0002 0C15.6762 0 18.6668 2.99067 18.6668 6.66667C18.6668 10.3427 15.6762 13.3333 12.0002 13.3333ZM12.0002 1.33333C9.05883 1.33333 6.66683 3.72533 6.66683 6.66667C6.66683 9.608 9.05883 12 12.0002 12C14.9415 12 17.3335 9.608 17.3335 6.66667C17.3335 3.72533 14.9415 1.33333 12.0002 1.33333Z" fill="#0B6EDA"/>
<path d="M11.3333 28H0.666667C0.298667 28 0 27.7013 0 27.3333V22C0 18.692 2.692 16 6 16H14C14.368 16 14.6667 16.2987 14.6667 16.6667C14.6667 17.0347 14.368 17.3333 14 17.3333H6C3.42667 17.3333 1.33333 19.4267 1.33333 22V26.6667H11.3333C11.7013 26.6667 12 26.9653 12 27.3333C12 27.7013 11.7013 28 11.3333 28Z" fill="#0B6EDA"/>
<path d="M22.6663 26.6667C20.829 26.6667 19.333 25.1707 19.333 23.3333C19.333 21.496 20.829 20 22.6663 20C24.5037 20 25.9997 21.496 25.9997 23.3333C25.9997 25.1707 24.5037 26.6667 22.6663 26.6667ZM22.6663 21.3333C21.5637 21.3333 20.6663 22.2307 20.6663 23.3333C20.6663 24.436 21.5637 25.3333 22.6663 25.3333C23.769 25.3333 24.6663 24.436 24.6663 23.3333C24.6663 22.2307 23.769 21.3333 22.6663 21.3333Z" fill="#0B6EDA"/>
<path d="M23.7292 32H21.6025C20.9145 32 20.3438 31.484 20.2758 30.7987L20.1065 29.104C19.7025 28.924 19.3172 28.7 18.9532 28.4334L17.3958 29.136C16.7705 29.4214 16.0358 29.1827 15.6932 28.5867L14.6305 26.7454C14.2865 26.1494 14.4492 25.3974 15.0065 24.996L16.3785 24.0094C16.3518 23.8027 16.3332 23.5734 16.3332 23.3334C16.3332 23.0934 16.3518 22.8627 16.3785 22.6574L15.0065 21.6707C14.4492 21.2694 14.2865 20.5174 14.6305 19.9214L15.6932 18.08C16.0372 17.484 16.7678 17.248 17.3958 17.5307L18.9532 18.2334C19.3172 17.9667 19.7025 17.7427 20.1065 17.5627L20.2758 15.868C20.3438 15.184 20.9145 14.668 21.6025 14.668H23.7292C24.4172 14.668 24.9878 15.184 25.0558 15.8694L25.2252 17.564C25.6305 17.744 26.0158 17.9694 26.3785 18.2347L27.9358 17.532C28.5638 17.2507 29.2958 17.4867 29.6385 18.0814L30.7012 19.9227C31.0452 20.5187 30.8825 21.2707 30.3252 21.672L28.9532 22.6587C28.9798 22.8654 28.9985 23.0947 28.9985 23.3347C28.9985 23.5747 28.9798 23.8054 28.9532 24.0107L30.3252 24.9974C30.8825 25.3987 31.0452 26.1507 30.7012 26.7467L29.6398 28.5867C29.2958 29.1814 28.5665 29.42 27.9372 29.136L26.3798 28.4334C26.0158 28.7 25.6305 28.924 25.2265 29.104L25.0558 30.8C24.9878 31.484 24.4172 32 23.7292 32ZM19.0465 26.9934C19.1998 26.9934 19.3518 27.0467 19.4745 27.1494C19.9265 27.528 20.4265 27.8174 20.9585 28.012C21.1985 28.1 21.3678 28.3174 21.3932 28.572L21.6038 30.6667H23.7305L23.9398 28.572C23.9652 28.3174 24.1345 28.1 24.3745 28.012C24.9065 27.8174 25.4065 27.5267 25.8585 27.1494C26.0558 26.9854 26.3278 26.948 26.5598 27.0534L28.4852 27.9227L29.5478 26.0814L27.8438 24.8574C27.6358 24.708 27.5332 24.452 27.5758 24.2C27.6252 23.9187 27.6652 23.632 27.6652 23.336C27.6652 23.04 27.6252 22.7534 27.5758 22.472C27.5318 22.22 27.6358 21.9654 27.8438 21.8147L29.5478 20.5907L28.4852 18.7494L26.5598 19.6174C26.3265 19.7227 26.0545 19.6854 25.8572 19.5214C25.4065 19.1427 24.9078 18.8534 24.3732 18.6587C24.1332 18.5707 23.9638 18.3534 23.9385 18.0987L23.7292 16H21.6025L21.3932 18.0947C21.3678 18.3494 21.1985 18.5667 20.9585 18.6547C20.4265 18.8494 19.9265 19.14 19.4745 19.5174C19.2785 19.6814 19.0065 19.72 18.7732 19.6134L16.8478 18.744L15.7852 20.5854L17.4892 21.8094C17.6972 21.9587 17.7998 22.2147 17.7572 22.4667C17.7078 22.748 17.6678 23.0347 17.6678 23.3307C17.6678 23.6267 17.7078 23.9134 17.7572 24.1947C17.8012 24.4467 17.6972 24.7014 17.4892 24.852L15.7852 26.076L16.8478 27.9174L18.7732 27.0494C18.8612 27.012 18.9532 26.9934 19.0465 26.9934Z" fill="#0B6EDA"/>
</g>
<defs>
<clipPath id="clip0_2034_22">
<rect width="32" height="32" fill="white"/>
</clipPath>
</defs>
</svg>
