<svg width="32" height="32" viewBox="0 0 32 32" fill="none" xmlns="http://www.w3.org/2000/svg">
<path fill-rule="evenodd" clip-rule="evenodd" d="M14.0886 1.77781C10.9468 1.77781 8.39976 4.32481 8.39976 7.4667C8.39976 10.6086 10.9468 13.1556 14.0886 13.1556C17.2305 13.1556 19.7775 10.6086 19.7775 7.4667C19.7775 4.32481 17.2305 1.77781 14.0886 1.77781ZM6.97754 7.4667C6.97754 3.53935 10.1613 0.355591 14.0886 0.355591C18.016 0.355591 21.1997 3.53935 21.1997 7.4667C21.1997 11.3941 18.016 14.5778 14.0886 14.5778C10.1613 14.5778 6.97754 11.3941 6.97754 7.4667Z" fill="#0B6EDA"/>
<path fill-rule="evenodd" clip-rule="evenodd" d="M17.3244 18.9467C12.158 18.2288 6.81958 19.1278 2.08539 21.6436C1.89603 21.7441 1.77769 21.9411 1.77769 22.1556V27.3777C1.77769 27.7705 2.09607 28.0888 2.4888 28.0888H14.5777C14.9704 28.0888 15.2888 28.4072 15.2888 28.7999C15.2888 29.1927 14.9704 29.511 14.5777 29.511H2.4888C1.31059 29.511 0.355469 28.556 0.355469 27.3777V22.1556C0.355469 21.415 0.764144 20.735 1.418 20.3876C6.42042 17.7293 12.0615 16.7796 17.52 17.538C17.9089 17.5921 18.1805 17.9513 18.1264 18.3403C18.0724 18.7293 17.7133 19.0008 17.3244 18.9467Z" fill="#0B6EDA"/>
<path fill-rule="evenodd" clip-rule="evenodd" d="M18.8442 23.1111C18.8442 21.9329 19.7994 20.9778 20.9776 20.9778H29.5109C30.6891 20.9778 31.6442 21.9329 31.6442 23.1111V28.8C31.6442 29.9782 30.6891 30.9333 29.5109 30.9333H20.9776C19.7994 30.9333 18.8442 29.9782 18.8442 28.8V23.1111ZM20.9776 22.4C20.5849 22.4 20.2665 22.7184 20.2665 23.1111V28.8C20.2665 29.1927 20.5849 29.5111 20.9776 29.5111H29.5109C29.9036 29.5111 30.222 29.1927 30.222 28.8V23.1111C30.222 22.7184 29.9036 22.4 29.5109 22.4H20.9776Z" fill="#0B6EDA"/>
<path fill-rule="evenodd" clip-rule="evenodd" d="M23.8223 18.1333C23.4296 18.1333 23.1112 18.4518 23.1112 18.8445V21.6889H21.689V18.8445C21.689 17.6663 22.6441 16.7111 23.8223 16.7111H26.6667C27.8449 16.7111 28.8001 17.6663 28.8001 18.8445V21.6889H27.3779V18.8445C27.3779 18.4518 27.0594 18.1333 26.6667 18.1333H23.8223Z" fill="#0B6EDA"/>
</svg>
