<svg width="47" height="47" viewBox="0 0 47 47" fill="none" xmlns="http://www.w3.org/2000/svg">
<path d="M23.5002 47C36.4584 47 47 36.4579 47 23.4997C47 10.5421 36.4584 0 23.5002 0C10.5421 0 0 10.5421 0 23.5003C0 36.4579 10.5421 47 23.5002 47ZM16.8365 16.9003C18.0258 16.9003 18.9933 17.8673 18.9933 19.0566C18.9933 20.2458 18.0258 21.2128 16.8365 21.2128C15.6473 21.2128 14.6798 20.2458 14.6798 19.0566C14.6803 17.8678 15.6473 16.9003 16.8365 16.9003ZM15.5943 7.68322V14.5897C13.6376 15.135 12.1958 16.9286 12.1958 19.0566C12.1958 21.6156 14.278 23.6973 16.8365 23.6973C19.3955 23.6973 21.4777 21.6151 21.4777 19.0566C21.4777 16.9286 20.0359 15.1345 18.0787 14.5897V6.65396C19.789 6.10203 21.6089 5.79701 23.5002 5.79701C23.5836 5.79701 23.6643 5.80832 23.7477 5.80935V24.2384H30.486C31.0312 26.1951 32.8254 27.6369 34.9533 27.6369C37.5124 27.6369 39.5945 25.5547 39.5945 22.9962C39.5945 20.4372 37.5118 18.355 34.9533 18.355C32.8254 18.355 31.0312 19.7968 30.486 21.754H26.2321V6.03002C34.6977 7.35042 41.2035 14.67 41.2035 23.4997C41.2035 25.6431 40.8013 27.6893 40.1002 29.5925H20.4809C19.9356 27.6353 18.142 26.1935 16.014 26.1935C13.455 26.1935 11.3728 28.2757 11.3728 30.8347C11.3728 33.3937 13.455 35.4754 16.014 35.4754C18.142 35.4754 19.9361 34.0336 20.4809 32.077H38.9747C35.9492 37.5129 30.1501 41.203 23.5002 41.203C13.7384 41.203 5.797 33.2616 5.797 23.4997C5.797 16.5819 9.79524 10.5941 15.5943 7.68322ZM32.7966 22.9962C32.7966 21.8069 33.7636 20.8394 34.9533 20.8394C36.1431 20.8394 37.1101 21.8069 37.1101 22.9962C37.1101 24.1854 36.1431 25.1524 34.9533 25.1524C33.7641 25.1529 32.7966 24.1854 32.7966 22.9962ZM18.1703 30.8347C18.1703 32.024 17.2033 32.991 16.014 32.991C14.8248 32.991 13.8573 32.024 13.8573 30.8347C13.8573 29.6455 14.8248 28.678 16.014 28.678C17.2033 28.678 18.1703 29.6455 18.1703 30.8347Z" fill="url(#paint0_linear_2230_64)"/>
<defs>
<linearGradient id="paint0_linear_2230_64" x1="18.6547" y1="0.378292" x2="29.4077" y2="50.7688" gradientUnits="userSpaceOnUse">
<stop stop-color="#2AD3F8"/>
<stop offset="0.9813" stop-color="#933CFF"/>
</linearGradient>
</defs>
</svg>
