<?xml version="1.0" encoding="UTF-8"?>
<svg width="2600px" height="2100px" viewBox="0 0 2600 2100" version="1.1" xmlns="http://www.w3.org/2000/svg" xmlns:xlink="http://www.w3.org/1999/xlink">
    <title>iStock-1298405314</title>
    <g id="iStock-1298405314" stroke="none" stroke-width="1" fill="none" fill-rule="evenodd">
        <polygon id="Fill-1" fill="#FFFFFF" points="0.06 2099.94 2600 2099.94 2600 0 0.06 0"></polygon>
        <path d="M2170.33,1783.12 C2228.21,1783.12 2281.25,1750.59 2307.24,1698.87 C2371.46,1571.09 2366.25,1344.76 2267.08,1178.71 C2183.12,1038.13 2052.6,987.034 1952.17,853.125 C1724.17,549.125 1538,327.633 1111.96,321.632 C715.678,316.051 232.168,661.125 284.312,1430.82 C296.448,1609.95 359.308,1736.8 477.802,1783.12 L2170.33,1783.12" id="Fill-3" fill="#DAEBFE"></path>
        <path d="M979.95,1702.77 C888.818,1642.9 824.33,1548.61 769.249,1424.79 C694.828,1257.49 793.931,1216.72 685.92,1099.71 C649.085,1016.5 433.895,958.696 427.854,725.565 C323.997,900.442 211.873,1099.71 244.876,1420.74 C263.237,1599.34 359.308,1737.8 477.802,1784.12 L1298.34,1784.12 C1203,1769.16 997.923,1714.58 979.95,1702.77" id="Fill-4" fill="#CBE3FE"></path>
        <polyline id="Fill-5" fill="#FFFFFF" points="1769.79 811.958 1739.66 781.82 1746.03 775.446 1776.17 805.583 1769.79 811.958"></polyline>
        <polyline id="Fill-6" fill="#FFFFFF" points="1716.72 758.886 1688.83 730.999 1695.21 724.625 1723.1 752.512 1716.72 758.886"></polyline>
        <polyline id="Fill-7" fill="#FFFFFF" points="1695.21 811.958 1688.83 805.583 1719.3 775.115 1725.68 781.489 1695.21 811.958"></polyline>
        <polyline id="Fill-8" fill="#FFFFFF" points="1746.04 761.125 1739.67 754.751 1769.79 724.625 1776.17 730.999 1746.04 761.125"></polyline>
        <polyline id="Fill-9" fill="#FFFFFF" points="730.382 1237.22 710.989 1217.83 713.911 1214.91 733.304 1234.3 730.382 1237.22"></polyline>
        <polyline id="Fill-10" fill="#FFFFFF" points="696.231 1203.07 678.286 1185.13 681.208 1182.2 699.153 1200.15 696.231 1203.07"></polyline>
        <polyline id="Fill-11" fill="#FFFFFF" points="681.208 1237.22 678.286 1234.3 697.892 1214.69 700.814 1217.62 681.208 1237.22"></polyline>
        <polyline id="Fill-12" fill="#FFFFFF" points="713.918 1204.51 710.997 1201.59 730.382 1182.2 733.304 1185.13 713.918 1204.51"></polyline>
        <path d="M649.034,1365.92 C656.162,1358.8 656.162,1347.24 649.034,1340.11 C641.906,1332.98 630.351,1332.98 623.223,1340.11 C616.095,1347.24 616.095,1358.8 623.223,1365.92 C630.351,1373.05 641.906,1373.05 649.034,1365.92" id="Fill-13" fill="#FFFFFF"></path>
        <path d="M595.843,1400.25 C595.843,1395.4 591.909,1391.46 587.055,1391.46 C582.202,1391.46 578.268,1395.4 578.268,1400.25 C578.268,1405.1 582.202,1409.04 587.055,1409.04 C591.909,1409.04 595.843,1405.1 595.843,1400.25" id="Fill-14" fill="#FFFFFF"></path>
        <path d="M2024.4,1052.96 C2024.4,1048.82 2021.04,1045.46 2016.9,1045.46 C2012.75,1045.46 2009.4,1048.82 2009.4,1052.96 C2009.4,1057.11 2012.75,1060.46 2016.9,1060.46 C2021.04,1060.46 2024.4,1057.11 2024.4,1052.96" id="Fill-15" fill="#FFFFFF"></path>
        <path d="M1380.58,1715.66 L1380.58,1646.89 C1403.07,1646.63 1413.27,1642.67 1412.62,1681.97 C1412.03,1717.75 1402.88,1715.81 1380.58,1715.66 Z M1414.9,1642.3 C1405.81,1633.49 1393.09,1635.26 1380.58,1635.42 L1380.58,1624.99 C1380.58,1620.02 1376.55,1616 1371.58,1616 L1291.8,1616 C1286.83,1616 1282.81,1620.02 1282.81,1624.99 L1282.81,1728.59 C1282.81,1738.99 1291.24,1747.43 1301.64,1747.43 L1361.74,1747.43 C1372.15,1747.43 1380.58,1738.99 1380.58,1728.59 L1380.58,1727.13 C1393.21,1727.22 1406.13,1728.1 1415.13,1719.21 C1422.21,1712.21 1422.7,1700.37 1422.69014,1681.97 C1422.68,1661.62 1422.22,1649.39 1414.9,1642.3 L1414.9,1642.3 Z" id="Fill-16" fill="#80CBC8"></path>
        <path d="M1300.76,1716.48 C1300.23,1716.48 1299.81,1716.06 1299.81,1715.53 L1299.81,1645.44 C1299.81,1644.92 1300.23,1644.5 1300.76,1644.5 C1301.28,1644.5 1301.7,1644.92 1301.7,1645.44 L1301.7,1715.53 C1301.7,1716.06 1301.28,1716.48 1300.76,1716.48" id="Fill-17" fill="#2B2B2B"></path>
        <path d="M935.124,557.53 L1147.59,557.53 C1238.18,557.53 1311.63,630.973 1311.63,721.57 L1311.63,762.432 C1311.63,853.029 1238.18,926.472 1147.59,926.472 L931.266,926.472 L842.839,1065.9 L882.89,917.928 C817.914,896.108 771.084,834.759 771.084,762.432 L771.084,721.57 C771.084,630.973 844.527,557.53 935.124,557.53" id="Fill-18" fill="#FFFFFF"></path>
        <path d="M895.799,792.557 C895.799,781.521 903.332,773.824 913.932,773.79 C924.754,773.79 931.92,781.521 932.022,792.557 C932.022,803.123 924.89,811.152 913.889,811.152 C903.118,811.152 895.722,803.123 895.799,792.557 Z M901.583,759.277 L901.154,753.138 C900.126,740.62 904.337,727.371 915.56,713.942 C924.633,703.125 930.736,694.701 930.736,685.484 C930.736,675.409 924.348,668.601 910.946,668.396 C902.705,668.396 893.186,671.137 886.998,675.612 L880.016,654.518 C888.431,649.11 902.301,644.778 917.391,644.778 C947.047,644.778 960.638,662.055 960.638,681.128 C960.638,698.44 950.242,710.273 940.063,721.874 C930.585,732.875 926.846,742.733 927.292,754.197 L927.464,759.277 L901.583,759.277 L901.583,759.277 Z" id="Fill-19" fill="#2B2B2B"></path>
        <polygon id="Fill-20" fill="#345C7D" points="984.172 676.125 1172.17 676.125 1172.17 665.125 984.172 665.125"></polygon>
        <polygon id="Fill-21" fill="#345C7D" points="984.172 718.125 1133.77 718.125 1133.77 707.125 984.172 707.125"></polygon>
        <polygon id="Fill-22" fill="#345C7D" points="984.172 760.125 1172.17 760.125 1172.17 749.125 984.172 749.125"></polygon>
        <polygon id="Fill-23" fill="#345C7D" points="984.172 802.125 1133.77 802.125 1133.77 791.125 984.172 791.125"></polygon>
        <polyline id="Fill-24" fill="#FFFFFF" points="963.273 993.32 963.273 1336.7 990.768 1336.7 992.768 1329.18 970.792 1329.18 970.792 1000.84 1233.48 1000.84 1233.48 1329.18 1111.06 1329.18 1113.06 1336.7 1241 1336.7 1241 993.32 963.273 993.32"></polyline>
        <polygon id="Fill-25" fill="#FFFFFF" points="1139.06 1282.42 1192.03 1282.42 1192.03 1278.42 1139.06 1278.42"></polygon>
        <path d="M1010.16,1102.28 L1065.21,1102.28 L1065.21,1037.8 L1010.16,1037.8 L1010.16,1102.28 Z M1006.16,1106.28 L1069.21,1106.28 L1069.21,1033.8 L1006.16,1033.8 L1006.16,1106.28 Z" id="Fill-26" fill="#FFFFFF"></path>
        <polygon id="Fill-27" fill="#FFFFFF" points="1082.71 1038.68 1193.41 1038.68 1193.41 1034.68 1082.71 1034.68"></polygon>
        <polygon id="Fill-28" fill="#FFFFFF" points="1082.71 1056.16 1174.88 1056.16 1174.88 1052.16 1082.71 1052.16"></polygon>
        <polygon id="Fill-29" fill="#FFFFFF" points="1082.71 1073.64 1193.41 1073.64 1193.41 1069.64 1082.71 1069.64"></polygon>
        <polygon id="Fill-30" fill="#FFFFFF" points="1082.71 1091.12 1174.88 1091.12 1174.88 1087.12 1082.71 1087.12"></polygon>
        <polygon id="Fill-31" fill="#FFFFFF" points="1006.53 1136.67 1197.75 1136.67 1197.75 1132.67 1006.53 1132.67"></polygon>
        <polygon id="Fill-32" fill="#FFFFFF" points="1006.53 1154.68 1173.21 1154.68 1173.21 1150.68 1006.53 1150.68"></polygon>
        <polygon id="Fill-33" fill="#FFFFFF" points="1006.53 1172.69 1197.75 1172.69 1197.75 1168.69 1006.53 1168.69"></polygon>
        <polygon id="Fill-34" fill="#FFFFFF" points="1006.53 1190.7 1173.21 1190.7 1173.21 1186.7 1006.53 1186.7"></polygon>
        <polygon id="Fill-35" fill="#FFFFFF" points="1006.53 1208.71 1197.75 1208.71 1197.75 1204.71 1006.53 1204.71"></polygon>
        <polygon id="Fill-36" fill="#FFFFFF" points="1006.53 1226.72 1173.21 1226.72 1173.21 1222.72 1006.53 1222.72"></polygon>
        <polygon id="Fill-37" fill="#FFFFFF" points="1006.53 1244.73 1197.75 1244.73 1197.75 1240.73 1006.53 1240.73"></polygon>
        <path d="M2274.1,1470.1 C2270.77,1475.66 2272.58,1482.87 2278.15,1486.19 C2283.71,1489.52 2290.91,1487.71 2294.24,1482.15 C2297.56,1476.58 2295.75,1469.38 2290.19,1466.05 C2284.63,1462.73 2277.42,1464.54 2274.1,1470.1" id="Fill-38" fill="#FFFFFF"></path>
        <path d="M2254.36,1553.02 C2255.39,1557.11 2259.53,1559.59 2263.62,1558.56 C2267.7,1557.53 2270.18,1553.39 2269.15,1549.3 C2268.13,1545.22 2263.98,1542.74 2259.9,1543.77 C2255.81,1544.79 2253.33,1548.94 2254.36,1553.02" id="Fill-39" fill="#FFFFFF"></path>
        <path d="M2242.61,1503.12 C2240.74,1506.24 2241.76,1510.28 2244.88,1512.15 C2248,1514.01 2252.04,1513 2253.91,1509.88 C2255.78,1506.75 2254.76,1502.71 2251.64,1500.84 C2248.52,1498.98 2244.47,1500 2242.61,1503.12" id="Fill-40" fill="#FFFFFF"></path>
        <path d="M1447.67,1155.06 C1447.67,1149.04 1452.55,1144.16 1458.57,1144.16 C1464.59,1144.16 1469.47,1149.04 1469.47,1155.06 C1469.47,1161.07 1464.59,1165.95 1458.57,1165.95 C1452.55,1165.95 1447.67,1161.07 1447.67,1155.06" id="Fill-41" fill="#FFC65A"></path>
        <path d="M1445.77,1081.71 C1445.77,1073.85 1452.14,1067.48 1460,1067.48 C1467.86,1067.48 1474.23,1073.85 1474.23,1081.71 C1474.23,1089.57 1467.86,1095.94 1460,1095.94 C1452.14,1095.94 1445.77,1089.57 1445.77,1081.71" id="Fill-42" fill="#FFFFFF"></path>
        <path d="M1373.56,1141.24 C1373.56,1137.22 1376.82,1133.96 1380.84,1133.96 C1384.86,1133.96 1388.11,1137.22 1388.11,1141.24 C1388.11,1145.26 1384.86,1148.52 1380.84,1148.52 C1376.82,1148.52 1373.56,1145.26 1373.56,1141.24" id="Fill-43" fill="#FFFFFF"></path>
        <path d="M1033.09,448.123 C1033.06,448.122 1029.49,447.992 1023.2,448.075 L1023.15,444.075 C1029.55,443.992 1033.09,444.12 1033.24,444.126 L1033.09,448.123" id="Fill-44" fill="#FFFFFF"></path>
        <path d="M982.649,450.497 L982.245,446.518 C989.099,445.82 995.977,445.26 1002.69,444.853 L1002.93,448.845 C996.274,449.25 989.45,449.805 982.649,450.497 Z M942.369,456.188 L941.654,452.252 C948.322,451.041 955.131,449.943 961.891,448.989 L962.45,452.95 C955.742,453.897 948.986,454.986 942.369,456.188 Z M902.701,465.071 L901.664,461.208 C908.178,459.458 914.875,457.813 921.566,456.316 L922.439,460.22 C915.802,461.704 909.161,463.336 902.701,465.071 Z M863.996,477.361 L862.607,473.61 C868.919,471.273 875.442,469.036 881.993,466.959 L883.202,470.771 C876.711,472.83 870.249,475.047 863.996,477.361 Z M826.725,493.371 L824.953,489.785 C830.987,486.802 837.25,483.915 843.568,481.205 L845.146,484.881 C838.893,487.563 832.695,490.419 826.725,493.371 Z M791.524,513.416 L789.336,510.067 C794.978,506.383 800.867,502.792 806.843,499.395 L808.82,502.872 C802.916,506.229 797.096,509.777 791.524,513.416 Z M759.18,537.71 L756.566,534.683 C761.68,530.268 767.055,525.942 772.54,521.827 L774.94,525.026 C769.528,529.087 764.226,533.355 759.18,537.71 Z M730.569,566.238 L727.546,563.62 C731.984,558.495 736.689,553.45 741.53,548.625 L744.354,551.459 C739.582,556.214 734.944,561.187 730.569,566.238 Z M706.493,598.646 L703.113,596.507 C706.755,590.751 710.658,585.066 714.713,579.608 L717.924,581.994 C713.928,587.372 710.082,592.975 706.493,598.646 Z M687.465,634.252 L683.811,632.626 C686.592,626.376 689.617,620.183 692.803,614.217 L696.331,616.101 C693.19,621.983 690.208,628.09 687.465,634.252 Z M673.599,672.193 L669.76,671.07 C671.688,664.479 673.834,657.933 676.139,651.615 L679.897,652.986 C677.622,659.223 675.502,665.685 673.599,672.193 Z M664.629,711.621 L660.684,710.96 C661.818,704.181 663.145,697.426 664.629,690.883 L668.53,691.768 C667.063,698.237 665.75,704.916 664.629,711.621 Z M660.059,751.844 L656.066,751.591 C656.502,744.727 657.104,737.873 657.855,731.219 L661.83,731.668 C661.086,738.256 660.49,745.045 660.059,751.844 Z M655.301,792.491 C655.223,789.073 655.179,785.587 655.168,782.131 L655.166,780.616 C655.166,777.735 655.192,774.849 655.243,772.035 L659.242,772.107 C659.192,774.897 659.166,777.76 659.166,780.616 L659.168,782.119 C659.179,785.549 659.223,789.008 659.3,792.4 L655.301,792.491 Z M657.928,833.284 C657.205,826.629 656.616,819.775 656.178,812.912 L660.17,812.657 C660.604,819.462 661.188,826.256 661.904,832.851 L657.928,833.284 Z M664.329,873.677 C662.941,867.124 661.693,860.355 660.621,853.557 L664.572,852.934 C665.634,859.663 666.869,866.363 668.242,872.848 L664.329,873.677 Z M675.067,913.163 C672.92,906.795 670.92,900.204 669.122,893.573 L672.982,892.526 C674.76,899.08 676.736,905.593 678.858,911.886 L675.067,913.163 Z M690.634,951.034 C687.656,944.983 684.827,938.698 682.223,932.353 L685.923,930.834 C688.493,937.096 691.285,943.298 694.223,949.269 L690.634,951.034 Z M711.299,986.41 C707.461,980.82 703.77,974.994 700.325,969.093 L703.78,967.076 C707.175,972.894 710.814,978.637 714.597,984.146 L711.299,986.41 Z M736.97,1018.37 C732.32,1013.4 727.799,1008.18 723.531,1002.87 L726.65,1000.37 C730.855,1005.6 735.31,1010.74 739.891,1015.64 L736.97,1018.37 Z M767.137,1046.14 C761.777,1041.89 756.528,1037.41 751.536,1032.82 L754.245,1029.87 C759.165,1034.4 764.339,1038.82 769.623,1043.01 L767.137,1046.14 Z M800.999,1069.29 C795.084,1065.82 789.251,1062.13 783.662,1058.31 L785.918,1055.01 C791.432,1058.77 797.187,1062.42 803.022,1065.84 L800.999,1069.29 Z M837.661,1087.69 C831.338,1085 825.071,1082.1 819.034,1079.08 L820.826,1075.5 C826.789,1078.49 832.979,1081.35 839.225,1084.01 L837.661,1087.69 Z M876.313,1101.44 C869.738,1099.52 863.167,1097.4 856.783,1095.13 L858.122,1091.37 C864.433,1093.61 870.929,1095.7 877.43,1097.6 L876.313,1101.44 Z M916.316,1110.61 C909.667,1109.49 902.892,1108.14 896.176,1106.6 L897.072,1102.7 C903.71,1104.23 910.408,1105.56 916.98,1106.67 L916.316,1110.61 L916.316,1110.61 Z" id="Fill-45" fill="#FFFFFF"></path>
        <path d="M947.113,1114.12 C946.964,1114.12 943.381,1114.02 937.005,1113.39 L937.393,1109.41 C943.613,1110.02 947.188,1110.12 947.223,1110.13 L947.113,1114.12" id="Fill-46" fill="#FFFFFF"></path>
        <path d="M711.803,872.644 L625.288,872.644 C620.985,872.644 617.497,869.155 617.497,864.852 L617.497,775.685 C617.497,771.382 620.985,767.894 625.288,767.894 L711.803,767.894 C716.106,767.894 719.594,771.382 719.594,775.685 L719.594,864.852 C719.594,869.155 716.106,872.644 711.803,872.644" id="Fill-47" fill="#FFFFFF"></path>
        <polyline id="Fill-48" fill="#8BDEDB" points="710.415 781.008 702.796 776.218 700.256 774.622 663.488 833.113 640.106 803.333 637.747 805.186 630.667 810.743 628.308 812.596 659.23 851.98 660.785 851.899 668.134 851.516 669.689 851.434 712.955 782.605 710.415 781.008"></polyline>
        <path d="M705.722,695.842 L643.369,695.842 C640.361,695.842 637.922,693.404 637.922,690.396 L637.922,626.141 C637.922,623.133 640.361,620.695 643.369,620.695 L705.722,620.695 C708.729,620.695 711.168,623.133 711.168,626.141 L711.168,690.396 C711.168,693.404 708.729,695.842 705.722,695.842" id="Fill-49" fill="#FFFFFF"></path>
        <polyline id="Fill-50" fill="#8BDEDB" points="703.97 631.079 698.503 627.642 697.657 627.11 697.125 627.957 671.021 669.482 653.948 647.737 647.296 652.959 668.079 679.429 668.399 679.837 668.918 679.81 674.19 679.535 674.708 679.507 704.284 632.458 704.816 631.611 703.97 631.079"></polyline>
        <path d="M1139.11,1373.9 C1136.82,1362 1134.31,1354.86 1134.28,1354.79 L1138.05,1353.45 C1138.16,1353.75 1140.68,1360.91 1143.03,1373.14 L1139.11,1373.9 Z M1142.92,1413.3 C1142.89,1406.72 1142.55,1400.07 1141.92,1393.51 L1145.9,1393.12 C1146.54,1399.8 1146.88,1406.58 1146.92,1413.28 L1142.92,1413.3 Z M1143.35,1453.44 L1139.42,1452.71 C1140.62,1446.28 1141.52,1439.68 1142.1,1433.09 L1146.09,1433.44 C1145.5,1440.16 1144.58,1446.89 1143.35,1453.44 Z M1132.07,1492.16 L1128.36,1490.66 C1130.82,1484.58 1133,1478.29 1134.84,1471.97 L1138.68,1473.08 C1136.8,1479.54 1134.58,1485.96 1132.07,1492.16 Z M1113.26,1527.83 L1109.93,1525.63 C1113.57,1520.11 1116.97,1514.38 1120.02,1508.6 L1123.56,1510.47 C1120.45,1516.37 1116.98,1522.21 1113.26,1527.83 Z M1088,1559.23 L1085.12,1556.45 C1089.75,1551.65 1094.16,1546.66 1098.23,1541.6 L1101.35,1544.11 C1097.2,1549.26 1092.71,1554.35 1088,1559.23 L1088,1559.23 Z" id="Fill-51" fill="#FFFFFF"></path>
        <path d="M1213.34,447.26 C1203.63,446.898 1197.01,446.859 1194.62,446.859 C1193.75,446.859 1193.3,446.864 1193.29,446.865 L1193.24,442.865 C1193.24,442.865 1193.71,442.859 1194.62,442.859 C1197.04,442.859 1203.71,442.898 1213.49,443.263 L1213.34,447.26 Z M1253.32,449.78 C1246.63,449.197 1239.91,448.69 1233.35,448.274 L1233.6,444.282 C1240.2,444.7 1246.95,445.209 1253.66,445.795 L1253.32,449.78 Z M1293.1,454.184 C1286.53,453.302 1279.85,452.484 1273.24,451.752 L1273.68,447.776 C1280.32,448.512 1287.04,449.333 1293.63,450.219 L1293.1,454.184 Z M1332.59,460.466 C1326.11,459.269 1319.48,458.13 1312.89,457.083 L1313.51,453.132 C1320.14,454.185 1326.8,455.329 1333.32,456.532 L1332.59,460.466 Z M1371.68,468.779 C1365.31,467.237 1358.76,465.749 1352.2,464.355 L1353.03,460.442 C1359.62,461.844 1366.22,463.341 1372.62,464.892 L1371.68,468.779 Z M1410.18,479.37 C1403.93,477.432 1397.49,475.548 1391.02,473.771 L1392.08,469.914 C1398.59,471.703 1405.08,473.599 1411.36,475.55 L1410.18,479.37 Z M1447.79,492.564 C1441.75,490.177 1435.47,487.841 1429.13,485.622 L1430.45,481.846 C1436.84,484.083 1443.17,486.438 1449.26,488.843 L1447.79,492.564 Z M1484.2,508.817 C1478.39,505.886 1472.32,503.012 1466.18,500.275 L1467.81,496.622 C1474.01,499.384 1480.13,502.286 1486,505.245 L1484.2,508.817 Z M1518.75,528.621 C1513.32,525.075 1507.61,521.587 1501.78,518.254 L1503.77,514.783 C1509.66,518.154 1515.44,521.683 1520.93,525.271 L1518.75,528.621 Z M1550.51,552.477 C1545.61,548.222 1540.4,544.025 1535.03,540.001 L1537.43,536.8 C1542.87,540.881 1548.16,545.139 1553.13,549.456 L1550.51,552.477 Z M1578.22,580.7 C1574.08,575.713 1569.63,570.782 1564.96,566.044 L1567.82,563.24 C1572.56,568.058 1577.09,573.074 1581.3,578.147 L1578.22,580.7 Z M1600.52,613.265 C1597.36,607.557 1593.86,601.906 1590.13,596.47 L1593.43,594.208 C1597.23,599.748 1600.79,605.507 1604.02,611.326 L1600.52,613.265 Z M1616.21,649.43 C1614.19,643.175 1611.84,636.964 1609.24,630.969 L1612.91,629.377 C1615.56,635.489 1617.96,641.821 1620.02,648.198 L1616.21,649.43 Z M1624.85,687.944 C1623.98,681.364 1622.82,674.813 1621.4,668.473 L1625.31,667.6 C1626.75,674.055 1627.93,680.724 1628.82,687.419 L1624.85,687.944 Z M1627.51,727.611 C1627.38,721.144 1627.1,714.45 1626.68,707.714 L1630.67,707.464 C1631.09,714.256 1631.38,721.007 1631.51,727.53 L1627.51,727.611 Z M1630.38,767.662 L1626.39,767.338 C1626.91,760.902 1627.27,754.229 1627.45,747.505 L1631.45,747.613 C1631.26,754.409 1630.9,761.154 1630.38,767.662 Z M1624.64,807.418 L1620.73,806.581 C1622.08,800.279 1623.25,793.711 1624.2,787.062 L1628.15,787.627 C1627.19,794.368 1626.01,801.027 1624.64,807.418 Z M1613.08,845.938 L1609.37,844.46 C1611.75,838.473 1613.92,832.184 1615.83,825.77 L1619.67,826.912 C1617.72,833.439 1615.51,839.841 1613.08,845.938 Z M1594.54,881.684 L1591.2,879.476 C1594.78,874.078 1598.13,868.349 1601.19,862.445 L1604.74,864.282 C1601.62,870.312 1598.19,876.167 1594.54,881.684 Z M1568.58,912.53 L1565.84,909.614 C1570.61,905.133 1575.17,900.312 1579.4,895.284 L1582.46,897.858 C1578.13,903.005 1573.46,907.942 1568.58,912.53 Z M1536.16,936.552 L1534.16,933.09 C1539.89,929.772 1545.45,926.128 1550.68,922.259 L1553.06,925.475 C1547.71,929.433 1542.03,933.16 1536.16,936.552 Z M1499.32,953.006 L1498.06,949.21 C1504.39,947.104 1510.61,944.699 1516.53,942.063 L1518.16,945.717 C1512.12,948.406 1505.78,950.858 1499.32,953.006 Z M1460.08,962.309 L1459.48,958.353 C1466.08,957.364 1472.64,956.105 1478.98,954.61 L1479.9,958.503 C1473.45,960.023 1466.78,961.304 1460.08,962.309 Z M1422.54,965.123 C1421.61,965.123 1420.7,965.118 1419.83,965.107 L1419.88,961.107 C1420.73,961.118 1421.62,961.123 1422.54,961.123 C1428.18,961.123 1433.96,960.918 1439.73,960.515 L1440.01,964.505 C1434.15,964.915 1428.27,965.123 1422.54,965.123 L1422.54,965.123 Z" id="Fill-52" fill="#FFFFFF"></path>
        <polyline id="Fill-53" fill="#FFFFFF" points="1538.25 673.354 1362.76 673.354 1339.92 650.203 1339.92 554.447 1514.17 554.447 1538.25 576.124 1538.25 673.354"></polyline>
        <polygon id="Fill-54" fill="#DAEBFE" points="1372.92 593.542 1494.71 593.542 1494.71 590.259 1372.92 590.259"></polygon>
        <polygon id="Fill-55" fill="#DAEBFE" points="1372.92 610.662 1514.57 610.662 1514.57 607.378 1372.92 607.378"></polygon>
        <polygon id="Fill-56" fill="#DAEBFE" points="1372.92 627.781 1494.71 627.781 1494.71 624.498 1372.92 624.498"></polygon>
        <path d="M1534.17,741.948 L1376.03,741.948 C1308.59,741.948 1253.93,796.613 1253.93,864.047 L1253.93,894.462 C1253.93,961.896 1308.59,1016.56 1376.03,1016.56 L1531.39,1016.56 L1602.86,1120.34 L1573.05,1010.2 C1621.41,993.961 1656.27,948.297 1656.27,894.462 L1656.27,864.047 C1656.27,796.613 1601.6,741.948 1534.17,741.948" id="Fill-57" fill="#FFC65A"></path>
        <path d="M1389.31,883.895 C1389.31,876.185 1394.52,870.768 1401.81,870.768 C1409.1,870.768 1414.1,876.185 1414.1,883.895 C1414.1,891.397 1409.31,897.022 1401.6,897.022 C1394.31,897.022 1389.31,891.397 1389.31,883.895" id="Fill-58" fill="#FFFFFF"></path>
        <path d="M1442.7,883.895 C1442.7,876.185 1447.91,870.768 1455.2,870.768 C1462.49,870.768 1467.49,876.185 1467.49,883.895 C1467.49,891.397 1462.7,897.022 1454.99,897.022 C1447.7,897.022 1442.7,891.397 1442.7,883.895" id="Fill-59" fill="#FFFFFF"></path>
        <path d="M1496.09,883.895 C1496.09,876.185 1501.3,870.768 1508.6,870.768 C1515.89,870.768 1520.89,876.185 1520.89,883.895 C1520.89,891.397 1516.1,897.022 1508.39,897.022 C1501.09,897.022 1496.09,891.397 1496.09,883.895" id="Fill-60" fill="#FFFFFF"></path>
        <path d="M1099.38,1379.8 C1091.46,1393.12 1078.82,1402.55 1063.8,1406.37 C1048.78,1410.18 1033.17,1407.92 1019.85,1399.99 C992.354,1383.63 983.296,1347.95 999.656,1320.46 C1016.02,1292.96 1051.69,1283.91 1079.19,1300.27 C1106.68,1316.63 1115.74,1352.31 1099.38,1379.8 Z M1083.28,1293.39 C1051.99,1274.77 1011.4,1285.08 992.781,1316.37 C975.317,1345.72 983.309,1383.26 1010.19,1403.17 L950.539,1494.42 L969.92,1505.95 L1022.51,1410.37 C1031.17,1414.26 1040.33,1416.14 1049.41,1416.14 C1071.94,1416.14 1093.92,1404.62 1106.26,1383.89 C1124.87,1352.61 1114.57,1312.01 1083.28,1293.39 L1083.28,1293.39 Z" id="Fill-61" fill="#FFFFFF"></path>
        <path d="M1070.34,1315.13 C1051.05,1303.65 1026.01,1310.01 1014.52,1329.31 C1013.96,1330.25 1014.27,1331.48 1015.22,1332.05 C1015.54,1332.24 1015.89,1332.33 1016.24,1332.33 C1016.92,1332.33 1017.59,1331.98 1017.96,1331.35 C1028.31,1313.95 1050.89,1308.22 1068.3,1318.57 C1069.25,1319.14 1070.47,1318.82 1071.04,1317.88 C1071.6,1316.93 1071.29,1315.7 1070.34,1315.13" id="Fill-62" fill="#FFFFFF"></path>
        <path d="M2133.73,1194.56 C2125.98,1184.87 2120.79,1179.58 2120.74,1179.53 L2123.59,1176.72 C2123.81,1176.94 2128.96,1182.2 2136.85,1192.06 L2133.73,1194.56 Z M2156.78,1227.01 C2153.23,1221.4 2149.5,1215.83 2145.7,1210.47 L2148.96,1208.15 C2152.81,1213.57 2156.58,1219.2 2160.16,1224.88 L2156.78,1227.01 Z M2176.26,1261.72 C2173.35,1255.82 2170.23,1249.9 2166.98,1244.11 L2170.47,1242.15 C2173.75,1248 2176.91,1253.99 2179.84,1259.95 L2176.26,1261.72 Z M2191.88,1298.3 C2189.64,1292.13 2187.18,1285.9 2184.58,1279.8 L2188.25,1278.22 C2190.89,1284.4 2193.38,1290.7 2195.64,1296.94 L2191.88,1298.3 Z M2203.18,1336.4 C2201.7,1330.01 2199.99,1323.55 2198.1,1317.19 L2201.93,1316.05 C2203.84,1322.49 2205.58,1329.03 2207.08,1335.5 L2203.18,1336.4 Z M2209.71,1375.58 C2209.05,1369.05 2208.16,1362.42 2207.07,1355.89 L2211.02,1355.23 C2212.12,1361.85 2213.02,1368.56 2213.7,1375.18 L2209.71,1375.58 Z M2215.12,1415.38 L2211.12,1415.25 C2211.22,1412.2 2211.26,1409.11 2211.26,1406.07 C2211.26,1402.54 2211.2,1398.95 2211.07,1395.39 L2215.07,1395.25 C2215.2,1398.86 2215.26,1402.5 2215.26,1406.07 C2215.26,1409.15 2215.22,1412.28 2215.12,1415.38 Z M2211.23,1455.42 L2207.28,1454.77 C2208.35,1448.24 2209.22,1441.61 2209.86,1435.08 L2213.84,1435.46 C2213.19,1442.09 2212.32,1448.8 2211.23,1455.42 Z M2202.19,1494.61 L2198.36,1493.46 C2200.25,1487.11 2201.96,1480.65 2203.44,1474.26 L2207.33,1475.16 C2205.84,1481.63 2204.11,1488.18 2202.19,1494.61 Z M2188.45,1532.38 L2184.77,1530.8 C2187.41,1524.69 2189.88,1518.48 2192.12,1512.33 L2195.87,1513.7 C2193.61,1519.92 2191.11,1526.21 2188.45,1532.38 Z M2170.59,1568.38 L2167.11,1566.42 C2170.37,1560.61 2173.5,1554.69 2176.41,1548.84 L2179.99,1550.62 C2177.06,1556.53 2173.89,1562.51 2170.59,1568.38 Z M2149.28,1602.42 L2145.99,1600.14 C2149.79,1594.64 2153.48,1589.05 2156.94,1583.52 L2160.33,1585.65 C2156.83,1591.22 2153.12,1596.87 2149.28,1602.42 Z M2125.1,1634.46 L2122.01,1631.92 C2126.24,1626.75 2130.38,1621.49 2134.32,1616.27 L2137.51,1618.68 C2133.54,1623.94 2129.37,1629.25 2125.1,1634.46 Z M2098.6,1664.57 L2095.69,1661.83 C2100.28,1656.96 2104.79,1652.01 2109.11,1647.1 L2112.11,1649.75 C2107.77,1654.69 2103.22,1659.67 2098.6,1664.57 Z M2070.19,1692.88 L2067.45,1689.96 C2072.33,1685.38 2077.15,1680.72 2081.78,1676.11 L2084.61,1678.94 C2079.95,1683.58 2075.09,1688.27 2070.19,1692.88 L2070.19,1692.88 Z" id="Fill-63" fill="#FFFFFF"></path>
        <path d="M373.046,1017.33 C377.641,1012.73 377.641,1005.28 373.046,1000.69 C368.453,996.094 361.004,996.094 356.41,1000.69 C351.815,1005.28 351.815,1012.73 356.41,1017.33 C361.004,1021.92 368.453,1021.92 373.046,1017.33" id="Fill-64" fill="#FFFFFF"></path>
        <path d="M417.069,1073.97 C417.069,1070.34 414.122,1067.39 410.485,1067.39 C406.848,1067.39 403.9,1070.34 403.9,1073.97 C403.9,1077.61 406.848,1080.56 410.485,1080.56 C414.122,1080.56 417.069,1077.61 417.069,1073.97" id="Fill-65" fill="#FFFFFF"></path>
        <path d="M361.126,1088.36 C366.574,1082.91 366.574,1074.08 361.126,1068.63 C355.678,1063.18 346.845,1063.18 341.397,1068.63 C335.95,1074.08 335.95,1082.91 341.397,1088.36 C346.845,1093.8 355.678,1093.8 361.126,1088.36" id="Fill-66" fill="#FFC65A"></path>
        <path d="M2085.84,1061.83 C2052.3,1061.83 2025.01,1089.12 2025.01,1122.66 C2025.01,1156.2 2052.3,1183.48 2085.84,1183.48 C2119.38,1183.48 2146.66,1156.2 2146.66,1122.66 C2146.66,1089.12 2119.38,1061.83 2085.84,1061.83 Z M2085.84,1187.48 C2050.09,1187.48 2021.01,1158.4 2021.01,1122.66 C2021.01,1086.91 2050.09,1057.83 2085.84,1057.83 C2121.58,1057.83 2150.66,1086.91 2150.66,1122.66 C2150.66,1158.4 2121.58,1187.48 2085.84,1187.48 L2085.84,1187.48 Z" id="Fill-67" fill="#FFFFFF"></path>
        <path d="M2079.23,1145.66 C2077.21,1146.67 2072.75,1147.78 2067.08,1147.78 C2052.23,1147.78 2043.18,1138.45 2043.18,1124.19 C2043.18,1108.79 2053.93,1099.49 2068.25,1099.49 C2073.88,1099.49 2077.86,1100.63 2079.59,1101.56 L2077.73,1108.38 C2075.55,1107.39 2072.43,1106.55 2068.6,1106.55 C2059.05,1106.55 2052.18,1112.51 2052.18,1123.76 C2052.18,1134.08 2058.2,1140.62 2068.49,1140.62 C2071.95,1140.62 2075.56,1139.93 2077.82,1138.92 L2079.23,1145.66" id="Fill-68" fill="#FFFFFF"></path>
        <path d="M2101.36,1147.05 L2086.2,1100.22 L2095.54,1100.22 L2101.93,1121.51 C2103.73,1127.42 2105.29,1132.9 2106.51,1138.57 L2106.66,1138.57 C2107.9,1133.04 2109.6,1127.33 2111.42,1121.64 L2118.25,1100.22 L2127.35,1100.22 L2111.17,1147.05 L2101.36,1147.05" id="Fill-69" fill="#FFFFFF"></path>
        <path d="M769.559,1200.12 C769.732,1223.37 840.39,1306.51 809.313,1365.29 C782.386,1412.99 641.495,1487.71 641.495,1487.71 C643.919,1336.59 769.385,1176.88 769.559,1200.12" id="Fill-70" fill="#2B2B2B"></path>
        <path d="M784.826,1358.83 C784.766,1358.83 784.704,1358.82 784.643,1358.81 C784.22,1358.71 783.958,1358.28 784.06,1357.86 C796.625,1305.35 774.143,1248.06 766.755,1229.23 C764.887,1224.47 764.352,1223.07 764.424,1222.42 C764.473,1221.99 764.859,1221.67 765.295,1221.73 C765.715,1221.77 766.021,1222.14 765.993,1222.56 C766.034,1223.09 767.048,1225.67 768.221,1228.66 C775.654,1247.6 798.271,1305.23 785.591,1358.22 C785.505,1358.58 785.182,1358.83 784.826,1358.83" id="Fill-71" fill="#525252"></path>
        <path d="M767.016,1357.54 C766.942,1357.54 766.868,1357.53 766.793,1357.51 C766.376,1357.38 766.138,1356.95 766.26,1356.53 C781.988,1303.09 764.537,1251.28 758.802,1234.26 C757.5,1230.4 757.092,1229.14 757.16,1228.54 C757.208,1228.11 757.595,1227.79 758.03,1227.84 C758.456,1227.89 758.763,1228.27 758.727,1228.69 C758.74,1229.14 759.461,1231.28 760.294,1233.76 C766.068,1250.9 783.64,1303.06 767.771,1356.97 C767.67,1357.32 767.356,1357.54 767.016,1357.54" id="Fill-72" fill="#525252"></path>
        <path d="M539.044,1235.8 C528.333,1321.16 275.96,1469.01 522.168,1638.12 C559.255,1663.6 663.714,1352.26 701.556,1347.19 C727.542,1343.71 717.054,1296.57 728.626,1252.11 C737.174,1219.28 770.412,1190.53 773.79,1168.34 C775.713,1155.71 779.712,1132.48 777.244,1121.46 C766.663,1074.23 707.289,1052.71 672.493,1048.77 C546.317,1034.46 547.631,1167.36 539.044,1235.8" id="Fill-73" fill="#2B2B2B"></path>
        <path d="M745.194,1352.01 C745.194,1352.01 789.122,1365.98 813.033,1391.83 C844.896,1426.28 879.774,1549.18 910.249,1606.8 C913.439,1612.83 920.907,1616.51 923.992,1620.94 C927.366,1625.77 924.512,1628.04 927.739,1630.51 C949.545,1652.95 983.264,1662.37 1010.79,1676.3 C1013.37,1677.61 1023.24,1691.37 1025.57,1692.64 C1040.87,1700.97 1050.34,1704.51 1050.34,1704.51 L1034.46,1744.99 C1034.46,1744.99 1025.78,1744.26 1009.54,1743.85 C1007.1,1743.78 983.485,1747.88 980.816,1747.49 C950.247,1743.04 916.932,1726.53 870.575,1705.76 C804.955,1676.37 765.688,1550.62 765.688,1550.62 L745.194,1352.01" id="Fill-74" fill="#FFC65A"></path>
        <path d="M794.668,1423.62 L765.688,1550.62 C765.688,1550.62 802.651,1668.98 864.783,1702.88 C837.168,1643.62 853.728,1634.45 847.168,1598.12 C836.923,1541.39 797.668,1475.62 794.668,1423.62" id="Fill-75" fill="#FFAD42"></path>
        <path d="M502.495,1695.66 C500.862,1729.79 481.889,1756.86 498.749,1774.34 C502.994,1777.6 518.173,1780.17 539.406,1783.12 L718.998,1783.12 C737.668,1779.62 753.419,1775.47 763.967,1768.26 C781.035,1750.63 764.183,1709.91 766.901,1697.02 C769.603,1684.22 804.309,1602.82 811.593,1553.29 C813.785,1538.38 817.668,1513.62 800.168,1466.12 C793.325,1447.55 800.168,1419.12 793.895,1403.52 C785.373,1382.32 770.439,1365.06 750.606,1354.51 L739.366,1347.85 L692.949,1296.64 C692.949,1296.64 655.142,1284.11 630.297,1301.22 C611.564,1314.13 592.91,1341.9 583.601,1344.23 C573.71,1346.71 565.089,1349.1 559.191,1351.18 C499.441,1372.27 471.42,1408.58 468.814,1485.03 C466.48,1553.5 505.099,1641.23 502.495,1695.66" id="Fill-76" fill="#FFC65A"></path>
        <path d="M614.759,1755.16 C584.654,1726.35 558.21,1693.98 533.855,1660.23 C513.996,1632.71 496.607,1603.33 482.609,1572.4 C481.026,1568.9 479.47,1565.4 477.929,1561.88 C488.501,1610.92 504.186,1660.31 502.495,1695.66 C500.862,1729.79 481.889,1756.86 498.749,1774.34 C502.994,1777.6 518.173,1780.17 539.406,1783.12 L642.169,1783.12 C636.881,1777.28 631.732,1772.31 626.702,1766.24 C622.668,1762.6 618.683,1758.91 614.759,1755.16" id="Fill-77" fill="#FFAD42"></path>
        <path d="M710.491,1337.06 L710.491,1337.06 L719.09,1234.66 L635.492,1233.2 L616.287,1324.74 C613.964,1332.97 676.089,1447.76 707.936,1478.98 C722.572,1452.79 726.877,1411.96 725.108,1372.51 C724.632,1361.91 718.239,1343.79 710.491,1337.06" id="Fill-78" fill="#FE928D"></path>
        <path d="M713.822,1297.39 L719.09,1234.66 L660.793,1233.64 L660.793,1268.86 C660.793,1291.1 678.82,1309.12 701.057,1309.12 C707.716,1309.12 713.265,1304.02 713.822,1297.39" id="Fill-79" fill="#2B2B2B"></path>
        <path d="M631.106,1198.27 C634.608,1224.42 642.988,1247.92 659.838,1266.28 C676.873,1284.84 706.952,1297.04 724.169,1295.83 C740.09,1294.71 757.473,1278.17 769.838,1247.04 C778.294,1225.74 773.326,1200.43 772.86,1177.23 C772.706,1169.57 771.907,1160.04 772.036,1152.73 C772.89,1104.27 731.075,1076.3 697.979,1080.68 C623.319,1090.57 624.064,1145.69 631.106,1198.27" id="Fill-80" fill="#FE928D"></path>
        <path d="M643.004,1203.64 C636.582,1208.76 615.156,1188.88 613.781,1184.4 C596.265,1127.27 657.223,1078.55 699.335,1073.57 C724.791,1070.56 774.19,1093.43 772.948,1147.85 C763.504,1105.52 725.518,1116.37 707.547,1086.44 C705.554,1137.41 650.601,1134.97 643.004,1203.64" id="Fill-81" fill="#2B2B2B"></path>
        <path d="M758.357,1186.6 C758.138,1190.3 759.933,1193.41 762.364,1193.55 C764.797,1193.7 766.946,1190.82 767.165,1187.12 C767.384,1183.42 765.59,1180.31 763.158,1180.17 C760.726,1180.02 758.577,1182.9 758.357,1186.6" id="Fill-82" fill="#2B2B2B"></path>
        <path d="M703.478,1187.43 C703.535,1191.42 705.99,1194.62 708.96,1194.58 C711.932,1194.54 714.294,1191.27 714.237,1187.28 C714.18,1183.29 711.726,1180.09 708.755,1180.13 C705.784,1180.17 703.421,1183.44 703.478,1187.43" id="Fill-83" fill="#2B2B2B"></path>
        <path d="M762.945,1167.39 C758.827,1167.39 754.843,1169.67 751.679,1173.85 C748.29,1178.33 746.263,1184.41 745.971,1190.99 C745.679,1197.56 747.159,1203.8 750.139,1208.57 C753.031,1213.19 756.989,1215.84 761.283,1216.03 C770.299,1216.4 778.157,1205.85 778.753,1192.44 C779.044,1185.87 777.564,1179.63 774.585,1174.86 C771.692,1170.24 767.734,1167.59 763.441,1167.4 C763.275,1167.39 763.11,1167.39 762.945,1167.39 Z M761.771,1218.41 C761.573,1218.41 761.377,1218.4 761.178,1218.39 C756.085,1218.17 751.453,1215.12 748.136,1209.82 C744.905,1204.66 743.298,1197.93 743.611,1190.88 C743.924,1183.84 746.12,1177.28 749.795,1172.42 C753.569,1167.43 758.452,1164.81 763.545,1165.04 C768.639,1165.26 773.271,1168.31 776.587,1173.61 C779.818,1178.77 781.425,1185.5 781.112,1192.55 C780.472,1206.97 771.856,1218.4 761.771,1218.41 L761.771,1218.41 Z" id="Fill-84" fill="#E04B3E"></path>
        <path d="M688.319,1191.8 C688.51,1205.25 697.397,1216.08 708.179,1216.08 C708.255,1216.08 708.331,1216.08 708.408,1216.08 C719.292,1215.93 727.989,1204.78 727.796,1191.23 C727.702,1184.63 725.532,1178.45 721.685,1173.85 C717.897,1169.33 712.911,1166.88 707.708,1166.95 C702.482,1167.02 697.59,1169.62 693.933,1174.25 C690.218,1178.96 688.225,1185.19 688.319,1191.8 Z M708.18,1218.45 C696.11,1218.45 686.167,1206.57 685.957,1191.83 C685.855,1184.68 688.029,1177.92 692.079,1172.79 C696.185,1167.58 701.724,1164.67 707.674,1164.59 C713.631,1164.47 719.244,1167.25 723.497,1172.34 C727.69,1177.35 730.056,1184.05 730.158,1191.2 C730.37,1206.05 720.627,1218.27 708.441,1218.45 C708.354,1218.45 708.267,1218.45 708.18,1218.45 L708.18,1218.45 Z" id="Fill-85" fill="#E04B3E"></path>
        <path d="M732.751,1248.13 C728.016,1248.13 722.787,1247.07 716.965,1244.97 C716.706,1244.88 716.571,1244.59 716.665,1244.33 C716.759,1244.07 717.046,1243.94 717.305,1244.03 C736.33,1250.9 745.613,1244.83 750.939,1239.67 C751.138,1239.48 751.455,1239.49 751.646,1239.69 C751.839,1239.88 751.834,1240.2 751.636,1240.39 C746.295,1245.57 740.122,1248.13 732.751,1248.13" id="Fill-86" fill="#2B2B2B"></path>
        <path d="M690.606,1167.83 C688.307,1169.34 687.543,1167.34 688.782,1165.39 C697.971,1150.92 724.936,1152.56 722.651,1159.35 C722.168,1160.78 720.741,1161.94 719.345,1161.57 C706.511,1158.14 696.185,1164.15 690.606,1167.83" id="Fill-87" fill="#2B2B2B"></path>
        <path d="M772.622,1157.7 C767.747,1154.05 760.323,1153.41 753.118,1156.04 C749.907,1157.21 750.712,1163.41 753.866,1162.11 C759.13,1159.95 766.624,1158.88 772.622,1162.89 L772.622,1157.7" id="Fill-88" fill="#2B2B2B"></path>
        <path d="M734.838,1227.28 C734.768,1227.28 734.699,1227.28 734.629,1227.28 C734.353,1227.28 734.13,1227.05 734.131987,1226.78 C734.134,1226.5 734.358,1226.28 734.632,1226.28 C734.707,1226.26 734.773,1226.28 734.844,1226.28 C741.273,1226.28 748.767,1224.26 750.225,1219.77 C750.626,1218.54 749.447,1215.63 747.956,1211.95 C745.368,1205.56 741.824,1196.82 741.904,1186.8 C741.907,1186.53 742.13,1186.31 742.404,1186.31 C742.406,1186.31 742.407,1186.31 742.408,1186.31 C742.685,1186.31 742.907,1186.53 742.904,1186.81 C742.825,1196.63 746.326,1205.27 748.882,1211.58 C750.573,1215.75 751.689,1218.5 751.176,1220.08 C749.563,1225.04 741.62,1227.28 734.838,1227.28" id="Fill-89" fill="#2B2B2B"></path>
        <path d="M577.036,1399.84 C619.084,1453.94 627.097,1641.19 653.319,1661.58 C663.291,1669.34 678.207,1674.3 713.346,1676.65 C729.153,1677.71 740.532,1688.81 741.067,1688.94 C761.043,1693.5 770.49,1693.46 780.043,1695.87 C818.405,1705.59 775.168,1744.12 775.168,1744.12 C775.168,1744.12 627.608,1813.18 569.935,1754.15 C473.668,1655.62 473.731,1502.25 480.58,1444.01 C485.259,1404.21 528.555,1337.46 577.036,1399.84" id="Fill-90" fill="#FFC65A"></path>
        <path d="M766.794,1694.37 C766.758,1694.37 766.722,1694.37 766.686,1694.37 L744.186,1691.12 C743.935,1691.08 743.719,1690.92 743.612,1690.69 C743.582,1690.62 740.494,1684.04 735.446,1679.96 C733.565,1678.43 721.638,1677.18 709.01,1675.84 C687.368,1673.56 660.434,1670.72 652.157,1664.28 C650.484,1662.98 650.941,1660.96 651.425,1658.82 C651.93,1656.59 652.501,1654.06 651.084,1651.52 C650.416,1650.32 648.007,1649.1 645.678,1647.91 C642.527,1646.3 639.268,1644.64 638.209,1642.29 C630.222,1624.55 621.408,1599.14 612.076,1572.25 C592.553,1515.97 570.425,1452.19 543.92,1419.74 C543.659,1419.42 543.706,1418.95 544.027,1418.68 C544.348,1418.42 544.82,1418.47 545.082,1418.79 C571.755,1451.45 593.929,1515.37 613.493,1571.75 C622.814,1598.62 631.617,1623.99 639.577,1641.67 C640.42,1643.54 643.575,1645.15 646.359,1646.57 C649.005,1647.92 651.504,1649.2 652.394,1650.79 C654.091,1653.83 653.424,1656.78 652.888,1659.15 C652.421,1661.21 652.2,1662.42 653.078,1663.1 C661.017,1669.27 688.847,1672.21 709.167,1674.35 C725.132,1676.04 734.267,1677.07 736.39,1678.79 C741.067,1682.58 744.05,1688.19 744.794,1689.69 L766.9,1692.88 C767.31,1692.94 767.595,1693.32 767.535,1693.73 C767.481,1694.1 767.161,1694.37 766.794,1694.37" id="Fill-91" fill="#2B2B2B"></path>
        <path d="M637.914,1773.85 C605.787,1773.85 578.415,1767.98 566.462,1754.65 C531.401,1715.57 510.224,1667.4 498.632,1633.88 C498.497,1633.49 498.704,1633.06 499.096,1632.93 C499.487,1632.79 499.914,1633 500.05,1633.39 C511.596,1666.78 532.685,1714.75 567.579,1753.65 C579.852,1767.33 610.637,1773.99 652.049,1771.95 C691.58,1769.98 732.861,1760.48 762.477,1746.52 C762.854,1746.35 763.3,1746.51 763.475,1746.88 C763.652,1747.26 763.491,1747.7 763.117,1747.88 C728.797,1764.05 679.395,1773.85 637.914,1773.85" id="Fill-92" fill="#2B2B2B"></path>
        <path d="M817.932,1699 C859.977,1695.25 873.637,1691.74 900.565,1695.67 C948.871,1702.71 978.759,1734.27 978.759,1734.27 L841.868,1735.21 C811.895,1738.54 778.384,1742.71 761.107,1745 C751.861,1740.09 760.09,1698.32 768.393,1693.79 C768.393,1693.79 807.75,1699.9 817.932,1699" id="Fill-93" fill="#FE928D"></path>
        <path d="M795.565,1612.11 C795.475,1612.11 795.383,1612.1 795.294,1612.06 C794.908,1611.91 794.716,1611.48 794.866,1611.09 C814.372,1560.87 817.539,1516.15 804.026,1481.75 C795.212,1459.32 795.285,1424.47 795.287,1424.12 C795.289,1423.7 795.625,1423.37 796.037,1423.37 C796.039,1423.37 796.04,1423.37 796.041,1423.37 C796.455,1423.37 796.789,1423.71 796.787,1424.12 C796.785,1424.47 796.714,1459.04 805.422,1481.2 C819.076,1515.96 815.909,1561.06 796.265,1611.63 C796.149,1611.93 795.866,1612.11 795.565,1612.11" id="Fill-94" fill="#2B2B2B"></path>
        <path d="M600.344,1675.92 C600.149,1675.92 599.955,1675.85 599.808,1675.7 C599.518,1675.4 599.524,1674.92 599.82,1674.63 C600.011,1674.45 619.359,1655.96 650.016,1664.72 C650.414,1664.84 650.645,1665.25 650.531,1665.65 C650.417,1666.05 650.001,1666.28 649.604,1666.16 C619.811,1657.66 601.054,1675.53 600.869,1675.71 C600.723,1675.85 600.533,1675.92 600.344,1675.92" id="Fill-95" fill="#2B2B2B"></path>
        <path d="M727.668,1755.37 C727.422,1755.37 727.18,1755.25 727.037,1755.03 C722.706,1748.29 721.77,1739.12 724.257,1727.77 C727.919,1711.06 738.209,1694.41 742.39,1691.74 C742.738,1691.52 743.202,1691.62 743.425,1691.97 C743.648,1692.32 743.545,1692.78 743.196,1693.01 C739.82,1695.16 729.455,1711.07 725.722,1728.1 C723.324,1739.04 724.19,1747.83 728.299,1754.22 C728.523,1754.57 728.422,1755.03 728.074,1755.25 C727.948,1755.34 727.808,1755.37 727.668,1755.37" id="Fill-96" fill="#2B2B2B"></path>
        <path d="M878.646,1636.86 C878.354,1636.86 878.076,1636.69 877.955,1636.4 C877.793,1636.02 877.972,1635.58 878.354,1635.42 C890.346,1630.35 907.401,1624.8 920.538,1627.19 C920.946,1627.26 921.216,1627.65 921.142,1628.06 C921.069,1628.46 920.675,1628.73 920.271,1628.66 C906.818,1626.22 888.602,1632.71 878.938,1636.8 C878.842,1636.84 878.743,1636.86 878.646,1636.86" id="Fill-97" fill="#2B2B2B"></path>
        <path d="M913.688,1615.55 C913.576,1615.55 913.461,1615.52 913.354,1615.47 C905.455,1611.52 889.619,1612.66 880.157,1613.35 L880.023,1613.36 C879.62,1613.39 879.251,1613.08 879.221,1612.66 C879.191,1612.25 879.502,1611.89 879.915,1611.86 L880.049,1611.85 C890.287,1611.11 905.759,1609.99 914.024,1614.12 C914.395,1614.31 914.545,1614.76 914.36,1615.13 C914.229,1615.39 913.963,1615.55 913.688,1615.55" id="Fill-98" fill="#2B2B2B"></path>
        <path d="M722.886,1666.21 C722.841,1666.21 722.795,1666.21 722.75,1666.2 C722.342,1666.12 722.072,1665.73 722.147,1665.33 C742.739,1552.76 728.493,1516.07 719.981,1494.14 L719.454,1492.78 L708.598,1479.14 C708.34,1478.81 708.394,1478.34 708.718,1478.08 C709.042,1477.83 709.515,1477.88 709.771,1478.2 L720.699,1491.94 C720.747,1492 720.785,1492.07 720.812,1492.14 L721.379,1493.6 C729.949,1515.67 744.291,1552.62 723.623,1665.6 C723.556,1665.96 723.241,1666.21 722.886,1666.21" id="Fill-99" fill="#2B2B2B"></path>
        <path d="M635.586,1199.25 C635.23,1199.25 634.908,1199.01 634.821,1198.65 C630.495,1180.6 639.362,1145.09 657.279,1126.35 C660.427,1123.06 664.107,1119.68 668.005,1116.1 C683.168,1102.16 700.354,1086.37 695.177,1067.63 C695.062,1067.21 695.307,1066.77 695.727,1066.66 C696.144,1066.54 696.579,1066.79 696.695,1067.21 C702.128,1086.88 684.565,1103.01 669.07,1117.25 C665.192,1120.82 661.53,1124.19 658.417,1127.44 C640.835,1145.83 632.119,1180.62 636.352,1198.28 C636.454,1198.71 636.193,1199.13 635.77,1199.23 C635.709,1199.25 635.647,1199.25 635.586,1199.25" id="Fill-100" fill="#525252"></path>
        <path d="M586.183,1342.36 C586.147,1342.36 586.111,1342.36 586.075,1342.35 C585.644,1342.29 585.343,1341.9 585.401,1341.47 C588.469,1318.99 599.584,1298.87 609.391,1281.13 C619.024,1263.69 628.123,1247.22 627.535,1232.05 C627.518,1231.62 627.857,1231.25 628.291,1231.23 C628.728,1231.24 629.092,1231.55 629.108,1231.99 C629.713,1247.6 620.512,1264.25 610.769,1281.89 C601.029,1299.51 589.989,1319.5 586.962,1341.68 C586.908,1342.07 586.57,1342.36 586.183,1342.36" id="Fill-101" fill="#525252"></path>
        <path d="M553.485,1350.13 C553.372,1350.13 553.256,1350.1 553.147,1350.05 C552.754,1349.86 552.587,1349.39 552.774,1349 C558.746,1336.44 566.779,1324.41 575.284,1311.67 C591.124,1287.94 609.077,1261.05 617.216,1224.17 C617.956,1220.82 617.855,1215.29 617.728,1208.28 C617.459,1193.42 617.051,1170.96 624.438,1146.23 C630.366,1126.39 649.858,1109.87 667.055,1095.3 C681.339,1083.2 693.675,1072.75 694.395,1063.54 C694.428,1063.1 694.805,1062.77 695.241,1062.81 C695.674,1062.85 695.999,1063.22 695.965,1063.66 C695.194,1073.52 682.626,1084.17 668.073,1096.5 C651.043,1110.93 631.741,1127.29 625.947,1146.68 C618.63,1171.17 619.035,1193.49 619.303,1208.25 C619.432,1215.36 619.534,1220.98 618.754,1224.51 C610.551,1261.68 592.511,1288.7 576.594,1312.54 C568.122,1325.23 560.119,1337.22 554.196,1349.68 C554.061,1349.96 553.779,1350.13 553.485,1350.13" id="Fill-102" fill="#525252"></path>
        <path d="M1021.1,1728.31 C1020.95,1728.31 1020.8,1728.24 1020.7,1728.11 C1011.92,1716.24 976.637,1705.58 976.282,1705.47 C976.018,1705.39 975.867,1705.11 975.946,1704.85 C976.025,1704.58 976.302,1704.43 976.569,1704.51 C978.033,1704.95 1012.52,1715.38 1021.5,1727.52 C1021.67,1727.74 1021.62,1728.05 1021.4,1728.22 C1021.31,1728.28 1021.2,1728.31 1021.1,1728.31" id="Fill-103" fill="#2B2B2B"></path>
        <path d="M998.014,1729.57 C997.875,1729.57 997.736,1729.51 997.637,1729.4 C985.44,1715.37 956.153,1714.9 955.859,1714.9 C955.583,1714.89 955.361,1714.67 955.36397,1714.39 C955.367,1714.12 955.59,1713.9 955.864,1713.9 C955.866,1713.9 955.868,1713.9 955.87,1713.9 C956.168,1713.9 985.899,1714.38 998.392,1728.74 C998.573,1728.95 998.551,1729.27 998.342,1729.45 C998.248,1729.53 998.131,1729.57 998.014,1729.57" id="Fill-104" fill="#2B2B2B"></path>
        <path d="M775.609,1120.04 C775.282,1120.04 774.977,1119.83 774.864,1119.5 C770.008,1105.4 755.97,1100.5 744.69,1096.56 C741.561,1095.47 738.604,1094.43 736.208,1093.31 C714.388,1083.08 694.828,1064.35 694.633,1064.16 C694.32,1063.86 694.311,1063.36 694.613,1063.05 C694.916,1062.74 695.414,1062.73 695.726,1063.03 C695.919,1063.22 715.298,1081.77 736.876,1091.88 C739.2,1092.97 742.119,1093.99 745.209,1095.07 C756.199,1098.91 771.249,1104.16 776.354,1118.99 C776.495,1119.4 776.276,1119.85 775.865,1119.99 C775.78,1120.02 775.694,1120.04 775.609,1120.04" id="Fill-105" fill="#525252"></path>
        <path d="M709.809,1480.36 C709.598,1480.36 709.394,1480.27 709.25,1480.1 C708.862,1479.67 670.152,1436.21 638.654,1395.45 C638.461,1395.2 638.23,1395.09 637.907,1395.08 C634.428,1395.03 625.451,1405.75 618.897,1413.58 C615.333,1417.84 611.967,1421.87 609.586,1424.15 C609.424,1424.31 609.203,1424.38 608.979,1424.36 C608.757,1424.33 608.558,1424.21 608.436,1424.02 C590.547,1396.33 587.953,1353.39 588.858,1344.34 C588.899,1343.93 589.265,1343.62 589.679,1343.67 C590.091,1343.71 590.392,1344.08 590.351,1344.49 C589.499,1353 592.226,1395.43 609.2,1422.43 C611.473,1420.12 614.529,1416.47 617.747,1412.62 C627.065,1401.48 633.972,1393.58 637.881,1393.58 C637.899,1393.58 637.917,1393.58 637.936,1393.58 C638.712,1393.6 639.371,1393.93 639.841,1394.53 C668.669,1431.84 703.55,1471.41 709.491,1478.12 C712.043,1469.99 726.235,1424.31 734.055,1389.31 C734.169,1388.8 734.486,1388.43 734.946,1388.28 C736.713,1387.7 740.423,1390.64 747.899,1397.03 C751.14,1399.8 755.488,1403.52 756.958,1404.07 C758.448,1380.64 744.512,1354.2 739.847,1348.97 C739.571,1348.66 739.599,1348.19 739.908,1347.91 C740.217,1347.64 740.691,1347.66 740.966,1347.97 C745.756,1353.34 760.112,1380.56 758.431,1404.52 C758.397,1405 758.146,1405.38 757.743,1405.55 C756.408,1406.11 753.714,1403.97 746.924,1398.17 C743.184,1394.97 736.986,1389.66 735.508,1389.7 C726.91,1428.14 710.687,1479.32 710.524,1479.83 C710.442,1480.09 710.229,1480.28 709.966,1480.34 C709.914,1480.35 709.861,1480.36 709.809,1480.36" id="Fill-106" fill="#2B2B2B"></path>
        <path d="M728.77,1187.93 C728.399,1187.93 728.034,1187.75 727.804,1187.43 C727.428,1186.9 727.554,1186.16 728.087,1185.78 C731.753,1183.19 737.65,1181.18 741.82,1182.34 C743.702,1182.87 745.071,1184.01 745.781,1185.64 C746.042,1186.24 745.768,1186.93 745.17,1187.19 C744.572,1187.45 743.876,1187.18 743.615,1186.58 C743.187,1185.6 742.392,1184.96 741.184,1184.62 C738.18,1183.78 733.134,1185.11 729.45,1187.71 C729.243,1187.86 729.005,1187.93 728.77,1187.93" id="Fill-107" fill="#E04B3E"></path>
        <path d="M680.085,1192.11 C680.065,1192.11 680.044,1192.11 680.024,1192.11 L630.901,1189.59 C630.249,1189.56 629.748,1189.01 629.782,1188.35 C629.815,1187.7 630.375,1187.2 631.022,1187.24 L680.063,1189.75 L687.133,1189.12 C687.783,1189.06 688.356,1189.54 688.414,1190.19 C688.472,1190.84 687.992,1191.41 687.343,1191.47 L680.19,1192.11 C680.155,1192.11 680.12,1192.11 680.085,1192.11" id="Fill-108" fill="#E04B3E"></path>
        <path d="M722.677,1243.68 C722.508,1243.68 722.343,1243.6 722.249,1243.44 C722.105,1243.21 722.181,1242.9 722.417,1242.75 C722.725,1242.57 730.017,1238.17 733.283,1239.43 C734.023,1239.71 734.885,1240.2 735.719,1240.68 C736.485,1241.12 737.627,1241.77 737.999,1241.78 C738.476,1241.32 741.868,1238.11 743.44,1238.01 C745.867,1237.84 748.384,1240.9 748.49,1241.03 C748.666,1241.25 748.635,1241.56 748.421,1241.74 C748.208,1241.92 747.893,1241.88 747.718,1241.67 C747.081,1240.9 745.092,1238.93 743.501,1239.01 C742.561,1239.06 739.874,1241.34 738.644,1242.55 C738.034,1243.15 736.916,1242.51 735.223,1241.55 C734.422,1241.09 733.594,1240.62 732.925,1240.36 C730.593,1239.47 724.923,1242.4 722.936,1243.61 C722.854,1243.66 722.765,1243.68 722.677,1243.68" id="Fill-109" fill="#2B2B2B"></path>
        <path d="M735.24,1256.79 C726.957,1256.79 721.469,1250.4 721.236,1250.13 C721.058,1249.92 721.084,1249.6 721.295,1249.42 C721.506,1249.25 721.821,1249.27 722,1249.48 C722.054,1249.55 727.432,1255.79 735.249,1255.79 C735.349,1255.79 735.448,1255.79 735.548,1255.79 C741.319,1255.67 746.275,1250.05 746.532,1245.48 C746.546,1245.21 746.781,1244.97 747.059,1245.01 C747.334,1245.03 747.545,1245.26 747.53,1245.54 C747.188,1251.64 740.707,1256.68 735.569,1256.79 C735.459,1256.79 735.349,1256.79 735.24,1256.79" id="Fill-110" fill="#2B2B2B"></path>
        <path d="M682.788,1357.99 C675.85,1357.99 668.744,1353.92 668.345,1353.69 C668.106,1353.55 668.025,1353.25 668.164,1353.01 C668.302,1352.77 668.608,1352.69 668.847,1352.83 C668.974,1352.9 681.583,1360.11 689.144,1355.33 C689.378,1355.19 689.686,1355.26 689.833,1355.49 C689.981,1355.72 689.911,1356.03 689.678,1356.18 C687.595,1357.5 685.202,1357.99 682.788,1357.99" id="Fill-111" fill="#2B2B2B"></path>
        <path d="M716.778,1503.69 C717.451,1507.08 715.529,1510.31 712.485,1510.91 C709.441,1511.52 706.428,1509.27 705.754,1505.89 C705.081,1502.51 707.003,1499.27 710.047,1498.67 C713.091,1498.06 716.104,1500.31 716.778,1503.69" id="Fill-112" fill="#2B2B2B"></path>
        <path d="M726.995,1564.56 C727.292,1567.99 725.027,1570.99 721.935,1571.26 C718.843,1571.53 716.095,1568.96 715.796,1565.53 C715.499,1562.09 717.764,1559.09 720.856,1558.82 C723.948,1558.55 726.696,1561.12 726.995,1564.56" id="Fill-113" fill="#2B2B2B"></path>
        <path d="M722.69,1627.59 C722.69,1631.04 720.174,1633.84 717.07,1633.84 C713.966,1633.84 711.45,1631.04 711.45,1627.59 C711.45,1624.15 713.966,1621.35 717.07,1621.35 C720.174,1621.35 722.69,1624.15 722.69,1627.59" id="Fill-114" fill="#2B2B2B"></path>
        <path d="M647.705,1201.57 C647.705,1201.57 628.055,1177 614.45,1184.11 C600.398,1191.45 613.65,1232.57 637.637,1238.58 C673.146,1247.48 648.99,1203.19 647.705,1201.57" id="Fill-115" fill="#FE928D"></path>
        <path d="M917.668,1733.87 C917.452,1733.87 917.238,1733.78 917.09,1733.6 C907.905,1722.48 879.897,1720.39 879.615,1720.37 C879.202,1720.34 878.891,1719.98 878.92,1719.57 C878.949,1719.16 879.313,1718.86 879.721,1718.88 C880.897,1718.96 908.652,1721.03 918.246,1732.65 C918.51,1732.97 918.465,1733.44 918.146,1733.7 C918.006,1733.82 917.836,1733.87 917.668,1733.87" id="Fill-116" fill="#2B2B2B"></path>
        <path d="M933.168,1730.87 C932.878,1730.87 932.603,1730.7 932.48,1730.42 C926.205,1715.94 899.759,1709.42 899.492,1709.35 C899.09,1709.26 898.842,1708.85 898.939,1708.45 C899.036,1708.05 899.442,1707.8 899.844,1707.89 C899.912,1707.91 906.753,1709.58 914.295,1713.07 C924.504,1717.79 931.085,1723.43 933.856,1729.83 C934.021,1730.21 933.846,1730.65 933.466,1730.81 C933.369,1730.85 933.268,1730.87 933.168,1730.87" id="Fill-117" fill="#2B2B2B"></path>
        <path d="M1139.47,1749.34 L915.458,1749.34 L1068.29,1516.46 C1069.19,1515.09 1070.72,1514.26 1072.36,1514.26 L1284.72,1514.26 C1288.59,1514.26 1290.92,1518.57 1288.79,1521.8 L1139.47,1749.34" id="Fill-118" fill="#485BC9"></path>
        <path d="M1267.53,1514.26 L1072.36,1514.26 C1070.72,1514.26 1069.19,1515.09 1068.29,1516.46 L915.458,1749.34 C915.458,1749.34 1228.17,1536.12 1267.53,1514.26" id="Fill-119" fill="#5A6BC9"></path>
        <polyline id="Fill-120" fill="#2B2B2B" points="1142.89 1744.12 919.567 1744.12 915.458 1749.34 1139.47 1749.34 1142.89 1744.12"></polyline>
        <path d="M1072.36,1514.26 C1070.72,1514.26 1069.19,1515.09 1068.29,1516.46 L925.863,1733.48 L698.75,1733.48 C694.442,1733.48 690.922,1736.92 690.822913,1741.23 C690.724,1745.68 694.302,1749.34 698.75,1749.34 L923.691,1749.34 L1075.3,1516.46 C1076.2,1515.09 1083.83,1514.26 1085.47,1514.26 L1072.36,1514.26" id="Fill-121" fill="#2B2B2B"></path>
        <path d="M1107.02,1625.67 C1098.6,1638.11 1097.18,1651.85 1103.85,1656.36 C1110.51,1660.87 1122.73,1654.44 1131.15,1642 C1139.57,1629.56 1140.99,1615.82 1134.33,1611.31 C1127.66,1606.81 1115.44,1613.23 1107.02,1625.67" id="Fill-122" fill="#FFFFFF"></path>
        <path d="M2046.22,1783.47 L476.501,1783.47 L476.501,1768.4 C476.501,1756.76 485.939,1747.32 497.582,1747.32 L2046.22,1747.32 L2046.22,1783.47" id="Fill-123" fill="#345C7D"></path>
        <path d="M1190.08,490.387 L1053.61,490.387 C1050.94,490.387 1048.78,488.223 1048.78,485.553 L1048.78,395.473 C1048.78,392.803 1050.94,390.639 1053.61,390.639 L1190.08,390.639 C1192.75,390.639 1194.92,392.803 1194.92,395.473 L1194.92,485.553 C1194.92,488.223 1192.75,490.387 1190.08,490.387" id="Fill-124" fill="#FFC65A"></path>
        <path d="M1188.35,480.577 L1138.91,443.111 L1188.51,398.448 C1189.48,397.576 1189.55,396.083 1188.68,395.115 C1187.81,394.147 1186.32,394.066 1185.35,394.94 L1120.82,453.052 L1057.45,394.423 C1056.5,393.539 1055,393.596 1054.12,394.553 C1053.23,395.51 1053.29,397.003 1054.25,397.888 L1103.14,443.124 L1054.4,481.135 C1053.37,481.936 1053.19,483.419 1053.99,484.447 C1054.46,485.044 1055.15,485.356 1055.85,485.356 C1056.36,485.356 1056.87,485.193 1057.3,484.857 L1106.65,446.373 L1119.19,457.98 C1119.65,458.398 1120.22,458.608 1120.8,458.608 C1121.36,458.608 1121.93,458.406 1122.38,458.001 L1135.34,446.327 L1185.5,484.339 C1185.93,484.662 1186.43,484.818 1186.93,484.818 C1187.64,484.818 1188.35,484.496 1188.81,483.883 C1189.6,482.844 1189.39,481.364 1188.35,480.577" id="Fill-125" fill="#FFFFFF"></path>
        <path d="M1692.53,1478.77 L1628.73,1383.31 C1628.73,1383.31 1615.1,1332.39 1609.9,1327.51 C1604.7,1322.62 1586.35,1294.97 1586.35,1294.97 C1586.35,1294.97 1577,1264.41 1573.41,1267.64 C1566.1,1274.23 1562.67,1290.19 1566.62,1301.46 C1569.91,1310.83 1584.83,1321.33 1580.16,1332.61 C1579.68,1333.77 1555.73,1329.05 1531.19,1319.62 C1497.1,1306.52 1464.21,1284.18 1452.49,1295.46 C1448.47,1299.32 1517.77,1338.14 1517.77,1338.14 C1517.77,1338.14 1518.53,1342.61 1514.13,1341.79 C1509.74,1340.97 1447.7,1305.89 1428.11,1319.36 C1424.25,1322.02 1494.5,1357.06 1500.96,1359.73 C1495.51,1356.4 1440.91,1327.7 1433.17,1340.75 C1430.7,1344.91 1499.99,1382.52 1496.24,1380.57 C1494.05,1379.43 1503.22,1380.28 1496.48,1377.15 C1482.73,1370.75 1451.17,1354.77 1447.57,1364.49 C1445.82,1369.23 1508.83,1399.78 1508.83,1399.78 L1578.89,1429.61 L1630.97,1531.77 L1692.53,1478.77" id="Fill-126" fill="#F69587"></path>
        <path d="M1514.09,1362.86 C1514.02,1362.86 1513.96,1362.85 1513.89,1362.82 C1509.04,1360.74 1474.25,1346.83 1473.9,1346.69 C1473.65,1346.58 1473.52,1346.29 1473.63,1346.04 C1473.73,1345.78 1474.02,1345.65 1474.28,1345.76 C1474.63,1345.9 1509.43,1359.82 1514.29,1361.9 C1514.54,1362.01 1514.66,1362.31 1514.55,1362.56 C1514.47,1362.75 1514.28,1362.86 1514.09,1362.86" id="Fill-127" fill="#2B2B2B"></path>
        <path d="M1510.58,1379 C1510.53,1379 1510.47,1379 1510.42,1378.98 L1468.31,1364.24 C1468.05,1364.15 1467.91,1363.86 1468,1363.6 C1468.1,1363.34 1468.38,1363.2 1468.64,1363.29 L1510.75,1378.03 C1511.01,1378.12 1511.15,1378.41 1511.05,1378.67 C1510.98,1378.88 1510.79,1379 1510.58,1379" id="Fill-128" fill="#2B2B2B"></path>
        <path d="M1573.74,1378.3 C1573.52,1378.3 1573.31,1378.15 1573.26,1377.92 C1566.95,1352.69 1580.25,1337.61 1580.39,1337.46 C1580.58,1337.26 1580.89,1337.25 1581.1,1337.43 C1581.3,1337.62 1581.32,1337.93 1581.13,1338.14 C1581,1338.28 1568.05,1352.99 1574.23,1377.68 C1574.29,1377.95 1574.13,1378.22 1573.86,1378.29 C1573.82,1378.3 1573.78,1378.3 1573.74,1378.3" id="Fill-129" fill="#2B2B2B"></path>
        <path d="M1499.92,1497.06 L1414.34,1420.51 C1414.34,1420.51 1388.44,1374.6 1382.19,1371.17 C1375.93,1367.73 1351.28,1345.53 1351.28,1345.53 C1351.28,1345.53 1334.59,1318.26 1331.92,1322.29 C1326.49,1330.49 1327.15,1346.8 1333.79,1356.73 C1339.3,1364.98 1356.37,1371.44 1354.66,1383.53 C1354.48,1384.77 1330.11,1386.16 1304,1383.15 C1267.72,1378.96 1230.3,1365.52 1221.75,1379.37 C1218.83,1384.11 1295.61,1404.43 1295.61,1404.43 C1295.61,1404.43 1297.46,1408.57 1293.01,1408.87 C1288.55,1409.17 1219.72,1390.66 1204.11,1408.59 C1201.03,1412.13 1277.8,1428.55 1284.72,1429.52 C1278.61,1427.66 1218.58,1413.48 1214.34,1428.04 C1212.99,1432.69 1289.46,1451.84 1285.34,1450.89 C1282.94,1450.33 1292.04,1448.87 1284.72,1447.51 C1269.81,1444.74 1235.26,1437.13 1234.21,1447.45 C1233.69,1452.47 1302.33,1466.36 1302.33,1466.36 L1377.61,1477.78 L1453.51,1563.73 L1499.92,1497.06" id="Fill-130" fill="#F69587"></path>
        <path d="M1297.17,1431.78 C1297.16,1431.78 1297.15,1431.78 1297.13,1431.78 C1289.72,1431.12 1243.91,1422.26 1241.97,1421.89 C1241.69,1421.83 1241.52,1421.57 1241.57,1421.3 C1241.62,1421.03 1241.88,1420.86 1242.16,1420.9 C1242.63,1421 1289.86,1430.13 1297.22,1430.78 C1297.49,1430.81 1297.7,1431.05 1297.67,1431.33 C1297.65,1431.58 1297.43,1431.78 1297.17,1431.78" id="Fill-131" fill="#2B2B2B"></path>
        <path d="M1291.28,1448.42 C1291.25,1448.42 1291.23,1448.42 1291.2,1448.41 C1287.12,1447.79 1269.58,1444.21 1257.97,1441.85 C1252.64,1440.76 1248.44,1439.9 1248,1439.83 C1247.73,1439.79 1247.54,1439.54 1247.58,1439.26 C1247.62,1438.99 1247.88,1438.8 1248.15,1438.85 C1248.61,1438.92 1252.62,1439.73 1258.17,1440.87 C1269.77,1443.23 1287.3,1446.81 1291.35,1447.42 C1291.63,1447.46 1291.81,1447.72 1291.77,1447.99 C1291.73,1448.24 1291.52,1448.42 1291.28,1448.42" id="Fill-132" fill="#2B2B2B"></path>
        <path d="M1772.67,1132.55 C1787.47,1187.18 1805.72,1264.38 1811.33,1286.13 L1943.83,1222.85 C1923.6,1184.99 1905.69,1122.96 1892.26,1074.36 L1772.67,1132.55" id="Fill-133" fill="#F69587"></path>
        <path d="M1818.17,1110.41 L1772.67,1132.55 C1778.2,1152.95 1784.2,1176.49 1789.85,1199.12 C1831.17,1179.46 1818.17,1110.41 1818.17,1110.41" id="Fill-134" fill="#2B2B2B"></path>
        <path d="M1841.77,961.447 L1751.37,974.255 C1751.37,974.255 1728.33,1025.49 1727.87,1041.3 C1727.78,1044.21 1729.3,1054.59 1729.93,1058.99 C1730.28,1061.47 1730.33,1063.9 1730.21,1066.19 C1726.48,1084.72 1697.31,1093.42 1699.13,1101.39 C1699.82,1104.39 1708.14,1107.39 1714.13,1109.81 C1718.08,1111.41 1720.37,1115.62 1719.41,1119.77 C1718.53,1123.58 1715.71,1128.93 1717.76,1131.97 C1719.34,1136.71 1720.69,1140.34 1720.57,1144.78 C1720.1,1148.29 1721.93,1149.49 1722.56,1152.44 C1725.57,1166.55 1718.35,1176.3 1726.07,1187.88 C1733.85,1193.39 1760.02,1192.8 1781.66,1184.66 C1800.1,1181.94 1826.67,1156.62 1824.17,1122.62 C1822.5,1099.9 1870.33,1105.4 1879.17,1093.62 C1909.31,1053.43 1841.77,961.447 1841.77,961.447" id="Fill-135" fill="#F69587"></path>
        <path d="M1588.13,1449.03 L1627.08,1535.7 L1692.53,1478.77 L1640.41,1399.56 C1626.17,1418.79 1608,1436 1588.13,1449.03" id="Fill-136" fill="#FFFFFF"></path>
        <path d="M1595.15,1486.23 C1636.06,1584.29 1675.5,1724.12 1742.83,1732.79 C1850.83,1715.46 1953.43,1536.08 2044.64,1403.77 L1946.39,1273.24 L1742.87,1559.56 L1654.45,1415 C1642.17,1434.12 1606.17,1471.46 1595.15,1486.23" id="Fill-137" fill="#DB594A"></path>
        <path d="M1421.24,1426.42 C1410.08,1442.24 1396.74,1464.01 1387.34,1494.63 L1454.8,1565.6 L1502.76,1496.53 L1421.24,1426.42" id="Fill-138" fill="#FFFFFF"></path>
        <path d="M1960.05,1224.64 C1955.07,1221.32 1935.64,1179.06 1930.63,1178.6 C1903.13,1176.04 1848.56,1209.15 1800.81,1242.62 C1797.71,1244.79 1782.11,1289.49 1779.28,1291.79 C1734.07,1328.57 2009.85,1253.76 1960.05,1224.64" id="Fill-139" fill="#FFFFFF"></path>
        <path d="M2179.1,1783.12 C2156.41,1655.81 2111.58,1449.59 2046.66,1320.92 C2032.55,1292.94 1980.51,1239.73 1966.19,1221.74 C1957.63,1210.97 1957.43,1204.16 1947.48,1198.34 C1942.5,1195.02 1896.01,1189.92 1793.77,1275.45 C1748.57,1312.22 1711.85,1338.51 1704.3,1362.22 C1725.68,1537.84 1771.7,1690.09 1795.98,1783.12 L2179.1,1783.12" id="Fill-140" fill="#EB5F50"></path>
        <path d="M1952.17,1679.12 C1920.54,1691.77 1854.17,1719.12 1826.17,1783.12 L2179.1,1783.12 C2161.71,1685.53 2131.3,1541.57 2088.81,1421.71 C2100.17,1497.12 2094.95,1560.01 2058.17,1611.12 C2047.46,1626.01 1982.17,1667.12 1952.17,1679.12" id="Fill-141" fill="#DB594A"></path>
        <path d="M1833.98,1109.76 C1833.94,1109.76 1833.89,1109.76 1833.84,1109.76 C1833.57,1109.75 1833.35,1109.53 1833.35,1109.25 C1833.35,1108.98 1833.58,1108.76 1833.85,1108.76 C1833.88,1108.76 1833.94,1108.76 1833.99,1108.76 C1845.26,1108.76 1858.69,1091.15 1860.67,1073.73 C1861.64,1065.13 1860.41,1050.08 1841.17,1045.91 C1840.9,1045.85 1840.73,1045.58 1840.79,1045.31 C1840.85,1045.04 1841.1,1044.87 1841.38,1044.93 C1855.99,1048.1 1863.39,1058.64 1861.66,1073.84 C1859.63,1091.71 1845.7,1109.76 1833.98,1109.76" id="Fill-142" fill="#2B2B2B"></path>
        <path d="M1828.17,1081.71 C1828.12,1081.71 1828.06,1081.7 1828,1081.68 C1827.74,1081.58 1827.61,1081.29 1827.71,1081.03 C1828.56,1078.79 1829.3,1076.5 1830.01,1074.28 C1832.53,1066.49 1834.91,1059.14 1841.34,1056.88 C1841.61,1056.79 1841.89,1056.92 1841.98,1057.18 C1842.07,1057.44 1841.93,1057.73 1841.67,1057.82 C1835.71,1059.92 1833.51,1066.72 1830.97,1074.59 C1830.25,1076.82 1829.5,1079.12 1828.64,1081.39 C1828.57,1081.59 1828.38,1081.71 1828.17,1081.71" id="Fill-143" fill="#2B2B2B"></path>
        <path d="M1791.68,1281.03 C1791.43,1281.03 1791.18,1280.9 1791.04,1280.67 C1790.83,1280.32 1790.94,1279.86 1791.29,1279.64 C1857.94,1239.26 1928.91,1212.61 1956.36,1217.64 C1956.77,1217.71 1957.04,1218.1 1956.96,1218.51 C1956.89,1218.92 1956.49,1219.19 1956.09,1219.11 C1928.95,1214.15 1858.44,1240.71 1792.07,1280.92 C1791.95,1281 1791.82,1281.03 1791.68,1281.03" id="Fill-144" fill="#2B2B2B"></path>
        <path d="M1732.96,1037.37 C1739.69,1034.83 1757,1042.55 1761.68,1046.3 C1764.21,1048.48 1763.2,1053.29 1760.28,1051.68 C1757.16,1050.1 1736.01,1047.1 1733.14,1046.76 C1730.93,1046.92 1730.97,1038.13 1732.96,1037.37" id="Fill-145" fill="#2B2B2B"></path>
        <path d="M1601.53,1671.27 C1601.49,1671.27 1601.45,1671.27 1601.41,1671.27 C1600.61,1671.2 1600.02,1670.5 1600.08,1669.71 C1603.84,1622.79 1616.8,1605.53 1617.35,1604.81 C1617.84,1604.18 1618.75,1604.06 1619.38,1604.55 C1620.01,1605.04 1620.13,1605.95 1619.64,1606.58 C1619.61,1606.62 1616.36,1610.92 1612.7,1620.83 C1609.32,1629.99 1604.89,1645.94 1602.97,1669.94 C1602.91,1670.7 1602.27,1671.27 1601.53,1671.27" id="Fill-146" fill="#600B47"></path>
        <path d="M1575.71,1645.26 C1575.49,1645.26 1575.26,1645.21 1575.05,1645.1 C1574.34,1644.73 1574.06,1643.85 1574.43,1643.15 C1594.11,1605.25 1613.49,1602.67 1614.3,1602.58 C1615.09,1602.49 1615.81,1603.06 1615.9,1603.86 C1615.99,1604.65 1615.42,1605.36 1614.63,1605.45 C1614.41,1605.48 1595.84,1608.19 1577,1644.48 C1576.74,1644.98 1576.23,1645.26 1575.71,1645.26" id="Fill-147" fill="#600B47"></path>
        <path d="M1812.8,1556.53 C1812.6,1556.53 1812.4,1556.45 1812.25,1556.29 C1811.97,1555.98 1811.99,1555.5 1812.3,1555.23 C1846.4,1524.28 1864.09,1485.51 1864.27,1485.12 C1864.44,1484.74 1864.88,1484.58 1865.26,1484.74 C1865.64,1484.91 1865.8,1485.36 1865.63,1485.74 C1865.46,1486.13 1847.65,1525.17 1813.31,1556.34 C1813.16,1556.47 1812.98,1556.53 1812.8,1556.53" id="Fill-148" fill="#2B2B2B"></path>
        <path d="M1754.66,1067.15 C1754.54,1067.15 1754.41,1067.1 1754.32,1067.01 C1754.25,1066.94 1747.36,1060.39 1742.07,1060.83 C1741.8,1060.84 1741.56,1060.65 1741.53,1060.38 C1741.51,1060.1 1741.71,1059.86 1741.99,1059.83 C1747.76,1059.36 1754.72,1066.01 1755.01,1066.29 C1755.21,1066.48 1755.21,1066.8 1755.02,1067 C1754.92,1067.1 1754.79,1067.15 1754.66,1067.15" id="Fill-149" fill="#2B2B2B"></path>
        <path d="M1749.46,1322.67 C1701.64,1313.31 1645.61,1506.63 1591.67,1561.12 C1588.43,1564.39 1507.17,1495.62 1440.17,1440.62 C1410.67,1485.12 1403.28,1536.59 1405.67,1541.12 C1456.67,1617.12 1548.3,1730.09 1604.17,1743.51 C1730.51,1744.88 1819.29,1501.58 1821.16,1467.89 C1822.34,1446.62 1779.93,1328.64 1749.46,1322.67" id="Fill-150" fill="#EB5F50"></path>
        <path d="M1693.5,1702.87 C1693.25,1702.87 1693.01,1702.75 1692.87,1702.53 C1692.65,1702.18 1692.75,1701.71 1693.1,1701.49 C1703.23,1695.04 1751.03,1637.97 1767.52,1609.09 C1793.52,1563.54 1810.3,1520.45 1817.4,1481.03 C1823.51,1447.11 1822.4,1416.74 1814.11,1390.76 C1805.32,1363.25 1788.22,1341.89 1767.19,1332.14 C1766.81,1331.96 1766.65,1331.52 1766.82,1331.14 C1767,1330.77 1767.44,1330.61 1767.82,1330.78 C1789.23,1340.7 1806.62,1362.4 1815.54,1390.31 C1823.91,1416.52 1825.03,1447.14 1818.88,1481.3 C1811.75,1520.89 1794.91,1564.13 1768.82,1609.83 C1752.25,1638.85 1704.13,1696.25 1693.9,1702.76 C1693.78,1702.84 1693.64,1702.87 1693.5,1702.87" id="Fill-151" fill="#2B2B2B"></path>
        <path d="M1749.75,1067.17 C1749.75,1070.6 1748.18,1073.37 1746.24,1073.37 C1744.3,1073.37 1742.73,1070.6 1742.73,1067.17 C1742.73,1063.75 1744.3,1060.98 1746.24,1060.98 C1748.18,1060.98 1749.75,1063.75 1749.75,1067.17" id="Fill-152" fill="#2B2B2B"></path>
        <path d="M1925.37,979.452 C1925.72,951.731 1912.04,944.363 1898.7,941.205 C1849.19,929.478 1811.2,936.442 1782.17,941.924 C1756.24,946.819 1739.26,945.5 1730,938.183 C1721.5,942.959 1721.94,951.751 1720.63,954.818 C1716.24,965.065 1723.38,986.106 1758.81,1000.17 C1769.05,1004.23 1794.62,1005.29 1794.62,1029.16 C1794.62,1038.12 1805.56,1048.25 1806.56,1054.32 C1808.23,1064.44 1805.72,1078.4 1804.2,1086.47 L1819.36,1082.26 C1820.46,1078.05 1821.21,1074.61 1821.48,1071.37 C1825.75,1049.63 1836.07,1044.02 1847.92,1049.2 C1860.67,1054.78 1863.94,1066.88 1866.24,1080.86 L1874.84,1116.92 C1876.87,1121.23 1879.46,1125.37 1882.91,1129.17 C1902.35,1150.59 1913.29,1148.01 1922.12,1140.1 C1925.02,1099.46 1945.72,1060.16 1947.83,1037.7 C1949.62,1018.62 1952.36,983.753 1925.37,979.452" id="Fill-153" fill="#2B2B2B"></path>
        <path d="M1783.26,985.152 C1783.23,985.152 1783.2,985.15 1783.17,985.146 C1766.64,983.143 1735.06,965.819 1730.22,949.854 C1730.1,949.438 1730.33,948.999 1730.75,948.873 C1731.17,948.747 1731.61,948.983 1731.73,949.398 C1736.26,964.347 1767.24,981.629 1783.36,983.583 C1783.79,983.635 1784.09,984.028 1784.04,984.459 C1783.99,984.859 1783.65,985.152 1783.26,985.152" id="Fill-154" fill="#525252"></path>
        <path d="M1772.39,959.693 C1761.21,959.693 1750.08,957.415 1741.37,950.597 C1741.03,950.329 1740.97,949.834 1741.24,949.492 C1741.5,949.15 1742,949.087 1742.34,949.357 C1763.08,965.586 1798.49,955.143 1813.62,950.683 C1815.88,950.016 1817.66,949.489 1818.88,949.21 C1819.3,949.11 1819.72,949.376 1819.82,949.8 C1819.92,950.224 1819.65,950.646 1819.23,950.744 C1818.06,951.013 1816.3,951.534 1814.06,952.193 C1804.96,954.876 1788.63,959.693 1772.39,959.693" id="Fill-155" fill="#525252"></path>
        <path d="M1717.76,1131.97 C1717.76,1131.97 1744.43,1123.08 1744.43,1124.49 C1744.43,1125.89 1720.57,1144.6 1720.57,1144.6 L1717.76,1131.97" id="Fill-156" fill="#FFFFFF"></path>
        <path d="M1564.01,1615.43 C1563.99,1615.43 1563.97,1615.43 1563.95,1615.42 C1563.53,1615.39 1563.23,1615.03 1563.26,1614.62 C1564.05,1605.18 1569.04,1593.26 1578.12,1579.18 C1584.85,1568.73 1591.44,1560.93 1591.51,1560.86 C1591.78,1560.54 1592.25,1560.5 1592.57,1560.77 C1592.88,1561.04 1592.92,1561.51 1592.65,1561.83 C1592.39,1562.13 1566.59,1592.78 1564.76,1614.74 C1564.72,1615.13 1564.4,1615.43 1564.01,1615.43" id="Fill-157" fill="#2B2B2B"></path>
        <path d="M1553.72,1584.55 C1553.51,1584.55 1553.31,1584.47 1553.16,1584.3 C1552.88,1584 1552.91,1583.52 1553.21,1583.24 C1554.05,1582.48 1573.94,1564.43 1579.58,1561.61 C1579.95,1561.42 1580.4,1561.57 1580.59,1561.94 C1580.77,1562.31 1580.62,1562.76 1580.25,1562.95 C1574.79,1565.68 1554.43,1584.17 1554.22,1584.35 C1554.08,1584.48 1553.9,1584.55 1553.72,1584.55" id="Fill-158" fill="#2B2B2B"></path>
        <path d="M1779.5,1721.54 C1779.17,1721.54 1778.87,1721.33 1778.78,1720.99 L1753.45,1630.99 C1753.33,1630.6 1753.57,1630.18 1753.96,1630.07 C1754.37,1629.95 1754.78,1630.19 1754.89,1630.59 L1780.22,1720.59 C1780.33,1720.99 1780.1,1721.4 1779.7,1721.51 C1779.64,1721.53 1779.57,1721.54 1779.5,1721.54" id="Fill-159" fill="#2B2B2B"></path>
        <path d="M1612.17,1534.21 C1611.99,1534.21 1611.82,1534.15 1611.67,1534.02 C1611.36,1533.75 1611.33,1533.28 1611.6,1532.96 C1616.16,1527.75 1668.98,1430.09 1669.51,1429.1 C1669.71,1428.74 1670.16,1428.6 1670.52,1428.8 C1670.89,1428.99 1671.02,1429.45 1670.83,1429.81 C1668.65,1433.85 1617.4,1528.62 1612.73,1533.95 C1612.58,1534.12 1612.38,1534.21 1612.17,1534.21" id="Fill-160" fill="#2B2B2B"></path>
    </g>
</svg>