<svg width="154" height="47" viewBox="0 0 154 47" fill="none" xmlns="http://www.w3.org/2000/svg">
<path d="M74.26 32C73.0093 29.7787 71.656 27.5853 70.2 25.42C68.744 23.2547 67.1947 21.2107 65.552 19.288V32H61.24V12.596H64.796C65.412 13.212 66.0933 13.968 66.84 14.864C67.5867 15.76 68.3427 16.7213 69.108 17.748C69.892 18.756 70.6667 19.8107 71.432 20.912C72.1973 21.9947 72.916 23.04 73.588 24.048V12.596H77.928V32H74.26ZM94.4161 31.496C93.7067 31.7013 92.7921 31.888 91.6721 32.056C90.5521 32.2427 89.3761 32.336 88.1441 32.336C86.8934 32.336 85.8481 32.168 85.0081 31.832C84.1867 31.496 83.5334 31.0293 83.0481 30.432C82.5627 29.816 82.2174 29.088 82.0121 28.248C81.8067 27.408 81.7041 26.484 81.7041 25.476V17.272H85.8761V24.972C85.8761 26.316 86.0534 27.2867 86.4081 27.884C86.7627 28.4813 87.4254 28.78 88.3961 28.78C88.6947 28.78 89.0121 28.7707 89.3481 28.752C89.6841 28.7147 89.9827 28.6773 90.2441 28.64V17.272H94.4161V31.496ZM97.9123 13.604L102.084 12.932V17.272H107.096V20.744H102.084V25.924C102.084 26.8013 102.234 27.5013 102.532 28.024C102.85 28.5467 103.475 28.808 104.408 28.808C104.856 28.808 105.314 28.7707 105.78 28.696C106.266 28.6027 106.704 28.4813 107.096 28.332L107.684 31.58C107.18 31.7853 106.62 31.9627 106.004 32.112C105.388 32.2613 104.632 32.336 103.736 32.336C102.598 32.336 101.655 32.1867 100.908 31.888C100.162 31.5707 99.5643 31.1413 99.1163 30.6C98.6683 30.04 98.351 29.368 98.1643 28.584C97.9963 27.8 97.9123 26.932 97.9123 25.98V13.604ZM108.967 24.748C108.967 23.4413 109.163 22.3027 109.555 21.332C109.966 20.3427 110.498 19.5213 111.151 18.868C111.804 18.2147 112.551 17.72 113.391 17.384C114.25 17.048 115.127 16.88 116.023 16.88C118.114 16.88 119.766 17.524 120.979 18.812C122.192 20.0813 122.799 21.9573 122.799 24.44C122.799 24.6827 122.79 24.9533 122.771 25.252C122.752 25.532 122.734 25.784 122.715 26.008H113.251C113.344 26.8667 113.746 27.548 114.455 28.052C115.164 28.556 116.116 28.808 117.311 28.808C118.076 28.808 118.823 28.7427 119.551 28.612C120.298 28.4627 120.904 28.2853 121.371 28.08L121.931 31.468C121.707 31.58 121.408 31.692 121.035 31.804C120.662 31.916 120.242 32.0093 119.775 32.084C119.327 32.1773 118.842 32.252 118.319 32.308C117.796 32.364 117.274 32.392 116.751 32.392C115.426 32.392 114.268 32.196 113.279 31.804C112.308 31.412 111.496 30.88 110.843 30.208C110.208 29.5173 109.732 28.7053 109.415 27.772C109.116 26.8387 108.967 25.8307 108.967 24.748ZM118.767 23.152C118.748 22.7973 118.683 22.452 118.571 22.116C118.478 21.78 118.319 21.4813 118.095 21.22C117.89 20.9587 117.619 20.744 117.283 20.576C116.966 20.408 116.564 20.324 116.079 20.324C115.612 20.324 115.211 20.408 114.875 20.576C114.539 20.7253 114.259 20.9307 114.035 21.192C113.811 21.4533 113.634 21.7613 113.503 22.116C113.391 22.452 113.307 22.7973 113.251 23.152H118.767ZM125.038 24.636C125.038 23.572 125.206 22.5733 125.542 21.64C125.897 20.688 126.401 19.8667 127.054 19.176C127.708 18.4667 128.501 17.9067 129.434 17.496C130.368 17.0853 131.432 16.88 132.626 16.88C133.41 16.88 134.129 16.9547 134.782 17.104C135.436 17.2347 136.07 17.4307 136.686 17.692L135.818 21.024C135.426 20.8747 134.997 20.744 134.53 20.632C134.064 20.52 133.541 20.464 132.962 20.464C131.73 20.464 130.806 20.8467 130.19 21.612C129.593 22.3773 129.294 23.3853 129.294 24.636C129.294 25.9613 129.574 26.988 130.134 27.716C130.713 28.444 131.712 28.808 133.13 28.808C133.634 28.808 134.176 28.7613 134.754 28.668C135.333 28.5747 135.865 28.4253 136.35 28.22L136.938 31.636C136.453 31.8413 135.846 32.0187 135.118 32.168C134.39 32.3173 133.588 32.392 132.71 32.392C131.366 32.392 130.209 32.196 129.238 31.804C128.268 31.3933 127.465 30.8427 126.83 30.152C126.214 29.4613 125.757 28.6493 125.458 27.716C125.178 26.764 125.038 25.7373 125.038 24.636ZM139.458 32V10.944L143.63 10.272V17.328C143.91 17.2347 144.265 17.1507 144.694 17.076C145.142 16.9827 145.572 16.936 145.982 16.936C147.177 16.936 148.166 17.104 148.95 17.44C149.753 17.7573 150.388 18.2147 150.854 18.812C151.34 19.4093 151.676 20.1187 151.862 20.94C152.068 21.7613 152.17 22.676 152.17 23.684V32H147.998V24.188C147.998 22.844 147.821 21.892 147.466 21.332C147.13 20.772 146.496 20.492 145.562 20.492C145.189 20.492 144.834 20.5293 144.498 20.604C144.181 20.66 143.892 20.7253 143.63 20.8V32H139.458Z" fill="#020842"/>
<path d="M33.8573 9.29415C35.7088 10.7945 38.2409 11.5725 40.9928 11.4947C41.921 11.4684 42.8776 11.3439 43.8577 11.1261C42.0492 8.13051 39.5485 5.49044 36.4062 3.47176C33.533 1.6259 30.4102 0.48755 27.2396 0L29.9618 4.33226C31.0998 6.14245 32.2764 8.01458 33.8573 9.29415ZM8.50376 28.5061C9.65685 26.5603 10.7456 24.7221 10.8691 22.7723C10.9709 21.1661 10.4042 19.4547 9.85576 17.7996L9.288 16.0862C8.30253 13.796 7.30669 11.511 6.29939 9.23257C6.20309 9.03833 6.10788 8.84275 6.02183 8.63668C5.97628 8.52761 5.93546 8.41817 5.89459 8.30873C5.83977 8.18516 5.78356 8.06311 5.72868 7.93954C5.01938 8.76553 4.35501 9.64593 3.75002 10.5883C-1.96576 19.4909 -0.956269 30.7828 5.47627 38.5002C5.36171 36.5154 5.63783 34.5128 6.35592 32.6504C6.92937 31.1641 7.72963 29.8126 8.50376 28.5061ZM46.5303 29.2236C46.4688 29.2266 46.4063 29.2298 46.345 29.2327C46.0522 29.2468 45.7726 29.263 45.4869 29.2777C45.3608 29.3005 45.2354 29.3238 45.1091 29.3464C43.0058 29.7233 41.0192 30.0796 39.4212 31.0649C37.2844 32.3824 35.9564 34.9505 36.1158 37.4556C36.1602 38.153 36.3108 38.881 36.47 39.6518C36.6846 40.6925 36.8991 41.7696 36.9018 42.932C39.4705 41.1913 41.7378 38.9148 43.5206 36.138C44.9263 33.9486 45.9186 31.6135 46.5303 29.2236ZM45.3892 25.6343C46.0188 25.5168 46.6141 25.3868 47.1945 25.2512C47.3802 22.9066 47.2153 20.5557 46.7138 18.2781C46.4302 18.3206 46.1473 18.3663 45.8671 18.4252C44.4698 18.7196 43.107 19.2279 41.6641 19.7656C40.9411 20.0349 40.1938 20.3136 39.4357 20.566C37.4834 21.2155 34.5464 21.999 31.5953 21.3098C30.5243 21.0601 29.5081 20.6216 28.5902 20.0318C26.8667 18.9246 25.489 17.2844 24.7421 15.3581C24.0809 13.654 23.9506 11.9284 23.8248 10.2595C23.7599 9.40207 23.699 8.59209 23.5686 7.81391C23.3413 6.45596 22.8828 5.06507 22.1673 3.5619C21.4566 2.06971 20.6833 0.911464 19.8194 0.0350024C16.8366 0.52419 13.9534 1.58149 11.3428 3.16886C11.0782 3.7064 10.9038 4.20984 10.8161 4.69909C10.3355 7.36955 12.3292 10.205 13.8709 12.1058C14.0793 12.3629 14.2912 12.6203 14.504 12.8788C16.4488 15.2444 18.6531 17.9257 19.1603 21.3222C19.6836 24.8278 18.307 27.9385 16.9759 30.9467C15.9441 33.2788 14.9701 35.4811 14.9418 37.7017C14.9078 40.3601 16.3113 43.1854 18.7932 45.455C19.3157 45.9324 19.8687 46.3735 20.4452 46.7875C21.8531 46.9784 23.2679 47.0391 24.6739 46.976C25.3541 46.5808 25.8961 46.1302 26.3139 45.6126C27.5456 44.0873 27.8244 41.8679 27.9422 39.6965C27.9587 39.3967 27.9728 39.0948 27.9869 38.7929C28.0954 36.4864 28.2077 34.1014 29.2247 31.829C30.4026 29.1979 32.7427 27.0991 35.4855 26.2143C37.5428 25.5502 39.6653 25.5723 41.8402 25.6585L42.019 25.6656C43.0877 25.7079 44.1199 25.7465 45.1058 25.6859C45.2001 25.6687 45.2951 25.6519 45.3892 25.6343Z" fill="url(#paint0_linear_65_1999)"/>
<defs>
<linearGradient id="paint0_linear_65_1999" x1="18.7613" y1="0.378292" x2="29.4585" y2="50.7937" gradientUnits="userSpaceOnUse">
<stop stop-color="#2AD3F8"/>
<stop offset="0.9813" stop-color="#933CFF"/>
</linearGradient>
</defs>
</svg>
